STARTFONT 2.1
FONT -Baekmuk-Dotum-Medium-R-Normal--24-240-75-75-M-240-ksx1001.1997-0
SIZE 24 75 75
FONTBOUNDINGBOX 24 24 0 -5
STARTPROPERTIES 18
FOUNDRY "Baekmuk"
FAMILY_NAME "Dotum"
WEIGHT_NAME "Medium"
SLANT "R"
SETWIDTH_NAME "Normal"
ADD_STYLE_NAME ""
PIXEL_SIZE 24
POINT_SIZE 240
RESOLUTION_X 75
RESOLUTION_Y 75
SPACING "M"
AVERAGE_WIDTH 240
CHARSET_REGISTRY "ksx1001.1997"
CHARSET_ENCODING "0"
DEFAULT_CHAR 8481
FONT_ASCENT 19
FONT_DESCENT 4
COPYRIGHT "(c)Hwan Design Inc. and Mizi Research Inc."
ENDPROPERTIES
CHARS 8224
STARTCHAR 3000
ENCODING 8481
SWIDTH 2400 0
DWIDTH 24 0
BBX 0 0 0 0
BITMAP
ENDCHAR
STARTCHAR 3001
ENCODING 8482
SWIDTH 2400 0
DWIDTH 24 0
BBX 4 4 10 14
BITMAP
80
60
30
10
ENDCHAR
STARTCHAR 3002
ENCODING 8483
SWIDTH 2400 0
DWIDTH 24 0
BBX 5 5 9 14
BITMAP
70
88
88
88
50
ENDCHAR
STARTCHAR 00B7
ENCODING 8484
SWIDTH 2400 0
DWIDTH 24 0
BBX 3 3 10 6
BITMAP
E0
E0
E0
ENDCHAR
STARTCHAR 2025
ENCODING 8485
SWIDTH 2400 0
DWIDTH 24 0
BBX 14 3 5 6
BITMAP
E01C
E01C
E01C
ENDCHAR
STARTCHAR 2026
ENCODING 8486
SWIDTH 2400 0
DWIDTH 24 0
BBX 18 3 3 6
BITMAP
E1C1C0
E1C1C0
E1C1C0
ENDCHAR
STARTCHAR 00A8
ENCODING 8487
SWIDTH 2400 0
DWIDTH 24 0
BBX 10 2 7 17
BITMAP
C0C0
C0C0
ENDCHAR
STARTCHAR 3003
ENCODING 8488
SWIDTH 2400 0
DWIDTH 24 0
BBX 7 8 8 3
BITMAP
32
32
22
24
44
48
88
08
ENDCHAR
STARTCHAR 00AD
ENCODING 8489
SWIDTH 2400 0
DWIDTH 24 0
BBX 10 1 7 7
BITMAP
FFC0
ENDCHAR
STARTCHAR 2015
ENCODING 8490
SWIDTH 2400 0
DWIDTH 24 0
BBX 24 1 0 7
BITMAP
FFFFFF
ENDCHAR
STARTCHAR 2225
ENCODING 8491
SWIDTH 2400 0
DWIDTH 24 0
BBX 6 20 9 -3
BITMAP
84
84
84
84
84
84
84
84
84
84
84
84
84
84
84
84
84
84
84
84
ENDCHAR
STARTCHAR FF3C
ENCODING 8492
SWIDTH 2400 0
DWIDTH 24 0
BBX 20 20 2 -3
BITMAP
800000
400000
200000
100000
080000
040000
020000
010000
008000
004000
002000
001000
000800
000400
000200
000100
000080
000040
000020
000010
ENDCHAR
STARTCHAR 223C
ENCODING 8493
SWIDTH 2400 0
DWIDTH 24 0
BBX 15 4 5 5
BITMAP
3C00
6F02
838C
00F0
ENDCHAR
STARTCHAR 2018
ENCODING 8494
SWIDTH 2400 0
DWIDTH 24 0
BBX 3 6 15 13
BITMAP
20
40
80
80
E0
60
ENDCHAR
STARTCHAR 2019
ENCODING 8495
SWIDTH 2400 0
DWIDTH 24 0
BBX 3 6 6 13
BITMAP
40
E0
60
40
40
80
ENDCHAR
STARTCHAR 201C
ENCODING 8496
SWIDTH 2400 0
DWIDTH 24 0
BBX 8 5 11 13
BITMAP
41
42
C2
E3
63
ENDCHAR
STARTCHAR 201D
ENCODING 8497
SWIDTH 2400 0
DWIDTH 24 0
BBX 8 6 5 13
BITMAP
C6
C7
C3
42
42
84
ENDCHAR
STARTCHAR 3014
ENCODING 8498
SWIDTH 2400 0
DWIDTH 24 0
BBX 5 22 17 -4
BITMAP
18
60
80
80
80
80
80
80
80
80
80
80
80
80
80
80
80
80
80
80
60
18
ENDCHAR
STARTCHAR 3015
ENCODING 8499
SWIDTH 2400 0
DWIDTH 24 0
BBX 5 22 2 -4
BITMAP
C0
30
08
08
08
08
08
08
08
08
08
08
08
08
08
08
08
08
08
08
30
C0
ENDCHAR
STARTCHAR 3008
ENCODING 8500
SWIDTH 2400 0
DWIDTH 24 0
BBX 8 22 8 -4
BITMAP
01
01
02
04
08
08
10
20
40
80
80
80
40
60
30
10
08
0C
04
02
01
01
ENDCHAR
STARTCHAR 3009
ENCODING 8501
SWIDTH 2400 0
DWIDTH 24 0
BBX 8 21 8 -3
BITMAP
80
40
40
20
10
08
08
04
02
01
01
01
02
04
08
18
10
20
40
80
80
ENDCHAR
STARTCHAR 300A
ENCODING 8502
SWIDTH 2400 0
DWIDTH 24 0
BBX 10 22 7 -4
BITMAP
0240
0480
0500
0900
0A00
1200
1400
2800
4800
5000
9000
9000
5000
2800
2400
1400
1200
0A00
0900
0480
0280
0200
ENDCHAR
STARTCHAR 300B
ENCODING 8503
SWIDTH 2400 0
DWIDTH 24 0
BBX 8 21 8 -3
BITMAP
20
A0
50
50
28
24
14
0A
0A
05
05
09
0A
12
14
24
28
48
90
A0
20
ENDCHAR
STARTCHAR 300C
ENCODING 8504
SWIDTH 2400 0
DWIDTH 24 0
BBX 7 12 14 7
BITMAP
FE
80
80
80
80
80
80
80
80
80
80
80
ENDCHAR
STARTCHAR 300D
ENCODING 8505
SWIDTH 2400 0
DWIDTH 24 0
BBX 7 11 2 -4
BITMAP
02
02
02
02
02
02
02
02
02
02
FE
ENDCHAR
STARTCHAR 300E
ENCODING 8506
SWIDTH 2400 0
DWIDTH 24 0
BBX 10 12 12 7
BITMAP
FFC0
8040
BFC0
A000
A000
A000
A000
A000
A000
A000
A000
E000
ENDCHAR
STARTCHAR 300F
ENCODING 8507
SWIDTH 2400 0
DWIDTH 24 0
BBX 10 11 2 -4
BITMAP
01C0
0140
0140
0140
0140
0140
0140
0140
0140
FF40
FFC0
ENDCHAR
STARTCHAR 3010
ENCODING 8508
SWIDTH 2400 0
DWIDTH 24 0
BBX 6 21 15 -3
BITMAP
FC
F8
F8
F0
F0
F0
E0
E0
E0
E0
E0
E0
E0
E0
E0
F0
F0
F0
F8
F8
FC
ENDCHAR
STARTCHAR 3011
ENCODING 8509
SWIDTH 2400 0
DWIDTH 24 0
BBX 6 21 3 -3
BITMAP
FC
7C
7C
3C
3C
3C
1C
1C
1C
1C
1C
1C
1C
1C
1C
3C
3C
3C
7C
FC
FC
ENDCHAR
STARTCHAR 00B1
ENCODING 8510
SWIDTH 2400 0
DWIDTH 24 0
BBX 16 16 4 0
BITMAP
0100
0100
0100
0100
0100
0100
0100
FFFE
0100
0100
0100
0100
0100
0100
0000
FFFF
ENDCHAR
STARTCHAR 00D7
ENCODING 8511
SWIDTH 2400 0
DWIDTH 24 0
BBX 14 15 5 0
BITMAP
8004
C00C
6018
3030
1860
0CC0
0780
0300
0780
0CC0
1860
3030
6018
C008
8004
ENDCHAR
STARTCHAR 00F7
ENCODING 8512
SWIDTH 2400 0
DWIDTH 24 0
BBX 16 15 4 0
BITMAP
0380
0380
0380
0000
0000
0000
0000
FFFF
0000
0000
0000
0000
0380
0380
0380
ENDCHAR
STARTCHAR 2260
ENCODING 8513
SWIDTH 2400 0
DWIDTH 24 0
BBX 16 14 4 0
BITMAP
0200
0200
0200
0100
FFFF
0100
0100
0080
FFFF
0080
0080
0040
0040
0040
ENDCHAR
STARTCHAR 2264
ENCODING 8514
SWIDTH 2400 0
DWIDTH 24 0
BBX 16 14 4 1
BITMAP
0003
000C
0030
01C0
0600
3800
C000
3800
0600
01C0
0038
0007
0000
FFFF
ENDCHAR
STARTCHAR 2265
ENCODING 8515
SWIDTH 2400 0
DWIDTH 24 0
BBX 16 14 4 1
BITMAP
8000
7000
0C00
0380
0060
0018
0007
000C
0070
0380
0C00
7000
0000
FFFF
ENDCHAR
STARTCHAR 221E
ENCODING 8516
SWIDTH 2400 0
DWIDTH 24 0
BBX 20 9 2 3
BITMAP
1E0780
610860
809030
806010
806010
806010
C09030
610860
1E07C0
ENDCHAR
STARTCHAR 2234
ENCODING 8517
SWIDTH 2400 0
DWIDTH 24 0
BBX 14 13 5 1
BITMAP
0380
0380
0380
0000
0000
0000
0000
0000
0000
0000
E01C
E01C
E01C
ENDCHAR
STARTCHAR 00B0
ENCODING 8518
SWIDTH 2400 0
DWIDTH 24 0
BBX 6 6 9 13
BITMAP
78
CC
84
84
CC
78
ENDCHAR
STARTCHAR 2032
ENCODING 8519
SWIDTH 2400 0
DWIDTH 24 0
BBX 4 5 10 14
BITMAP
30
20
40
40
80
ENDCHAR
STARTCHAR 2033
ENCODING 8520
SWIDTH 2400 0
DWIDTH 24 0
BBX 8 5 8 14
BITMAP
33
62
46
84
88
ENDCHAR
STARTCHAR 2103
ENCODING 8521
SWIDTH 2400 0
DWIDTH 24 0
BBX 18 19 3 0
BITMAP
700000
880000
88FC00
8B8700
760180
040180
0C0080
080000
080000
080000
080000
080000
080000
0C00C0
040080
040180
060300
038E00
00F800
ENDCHAR
STARTCHAR 212B
ENCODING 8522
SWIDTH 2400 0
DWIDTH 24 0
BBX 16 19 4 0
BITMAP
0380
0440
0440
0480
0300
0380
0380
06C0
06C0
0C60
0C70
1830
1818
3018
3FFC
600C
6006
C007
C003
ENDCHAR
STARTCHAR FFE0
ENCODING 8523
SWIDTH 2400 0
DWIDTH 24 0
BBX 22 21 1 -3
BITMAP
000004
00FC08
018F10
0301A0
0600C0
0C00C0
0C0100
080200
080400
081800
082000
084000
0880C0
0D00C0
060080
060180
0B0700
11FC00
200000
400000
800000
ENDCHAR
STARTCHAR FFE1
ENCODING 8524
SWIDTH 2400 0
DWIDTH 24 0
BBX 15 17 4 0
BITMAP
00F8
018C
030C
0206
0600
0600
0600
0600
7FF8
0300
0300
0200
3200
DE02
8786
89FC
5078
ENDCHAR
STARTCHAR FFE5
ENCODING 8525
SWIDTH 2400 0
DWIDTH 24 0
BBX 14 17 5 0
BITMAP
400C
6008
2018
3030
1020
FFFC
0CC0
04C0
0780
0300
FFFC
0300
0300
0300
0300
0300
0300
ENDCHAR
STARTCHAR 2642
ENCODING 8526
SWIDTH 2400 0
DWIDTH 24 0
BBX 13 21 5 -3
BITMAP
0200
0700
0A80
0A80
1240
2220
4210
8208
0200
0200
0200
0200
0200
1DC0
1040
3020
3020
3020
3020
1840
0F80
ENDCHAR
STARTCHAR 2640
ENCODING 8527
SWIDTH 2400 0
DWIDTH 24 0
BBX 15 21 4 -3
BITMAP
07C0
0C20
1810
1810
1810
1810
0810
0C20
03C0
0100
0100
0100
FFFE
0100
0100
0100
0100
0100
0100
0100
0100
ENDCHAR
STARTCHAR 2220
ENCODING 8528
SWIDTH 2400 0
DWIDTH 24 0
BBX 15 13 5 1
BITMAP
0008
0010
0020
0040
0080
0100
0200
0400
0800
1000
2000
4000
FFFE
ENDCHAR
STARTCHAR 22A5
ENCODING 8529
SWIDTH 2400 0
DWIDTH 24 0
BBX 17 14 3 1
BITMAP
008000
008000
008000
008000
008000
008000
008000
008000
008000
008000
008000
008000
008000
FFFF80
ENDCHAR
STARTCHAR 2312
ENCODING 8530
SWIDTH 2400 0
DWIDTH 24 0
BBX 14 5 5 14
BITMAP
0FC0
1030
6018
8008
8004
ENDCHAR
STARTCHAR 2202
ENCODING 8531
SWIDTH 2400 0
DWIDTH 24 0
BBX 10 18 7 -2
BITMAP
0700
0F80
1080
20C0
0040
0040
0040
0040
1E40
2140
4180
8180
8180
8300
8300
8600
CE00
7C00
ENDCHAR
STARTCHAR 2207
ENCODING 8532
SWIDTH 2400 0
DWIDTH 24 0
BBX 18 14 3 1
BITMAP
FFFFC0
800040
400080
400100
200100
200200
100400
080400
080800
041000
021000
022000
012000
00C000
ENDCHAR
STARTCHAR 2261
ENCODING 8533
SWIDTH 2400 0
DWIDTH 24 0
BBX 16 9 4 3
BITMAP
FFFF
0000
0000
0000
FFFF
0000
0000
0000
FFFF
ENDCHAR
STARTCHAR 2252
ENCODING 8534
SWIDTH 2400 0
DWIDTH 24 0
BBX 16 15 4 0
BITMAP
3800
3800
3800
0000
0000
FFFF
0000
0000
0000
FFFF
0000
0000
001C
001C
001C
ENDCHAR
STARTCHAR 00A7
ENCODING 8535
SWIDTH 2400 0
DWIDTH 24 0
BBX 10 22 7 -4
BITMAP
1E00
6300
6180
6180
6000
7000
3800
1E00
3F00
4380
C180
C080
6080
7980
3E00
0F00
0780
03C0
61C0
60C0
2180
1F00
ENDCHAR
STARTCHAR 203B
ENCODING 8536
SWIDTH 2400 0
DWIDTH 24 0
BBX 16 16 4 -1
BITMAP
8180
43C2
23C4
13C8
0810
0420
725C
799E
799E
725C
0420
0810
13C8
23C4
43C2
0001
ENDCHAR
STARTCHAR 2606
ENCODING 8537
SWIDTH 2400 0
DWIDTH 24 0
BBX 18 19 3 -3
BITMAP
004000
00C000
00C000
012000
012000
022000
FE1FC0
800080
400100
300200
080C00
040800
080400
080400
11E400
121200
1C0A00
300600
200000
ENDCHAR
STARTCHAR 2605
ENCODING 8538
SWIDTH 2400 0
DWIDTH 24 0
BBX 20 19 2 -3
BITMAP
002000
006000
006000
00F000
00F000
00F000
FFFFF0
3FFFC0
1FFF80
0FFF00
07FE00
03FC00
07FE00
07FE00
079E00
0F0E00
0C0700
080100
100000
ENDCHAR
STARTCHAR 25CB
ENCODING 8539
SWIDTH 2400 0
DWIDTH 24 0
BBX 20 20 2 -3
BITMAP
01F800
060600
180180
3000C0
200040
400020
400020
800010
800010
800010
800010
800010
800010
400020
400020
200060
3000C0
180180
060700
01F800
ENDCHAR
STARTCHAR 25CF
ENCODING 8540
SWIDTH 2400 0
DWIDTH 24 0
BBX 20 20 2 -3
BITMAP
01F800
07FE00
0FFF80
1FFFC0
3FFFC0
7FFFE0
7FFFE0
FFFFF0
FFFFF0
FFFFF0
FFFFF0
FFFFF0
FFFFF0
7FFFE0
7FFFE0
3FFFC0
1FFFC0
1FFF80
07FE00
01F800
ENDCHAR
STARTCHAR 25CE
ENCODING 8541
SWIDTH 2400 0
DWIDTH 24 0
BBX 20 20 2 -3
BITMAP
01F800
060600
180180
31F8C0
230C40
440220
480120
900190
900090
900090
900090
900090
980190
480120
440220
230C40
21F840
100080
0C0300
031C00
ENDCHAR
STARTCHAR 25C7
ENCODING 8542
SWIDTH 2400 0
DWIDTH 24 0
BBX 21 22 1 -4
BITMAP
001000
006800
008400
010200
020100
040080
080040
100020
200010
400008
800008
400008
200010
100020
080040
040080
020100
030200
018400
00C800
007000
002000
ENDCHAR
STARTCHAR 25C6
ENCODING 8543
SWIDTH 2400 0
DWIDTH 24 0
BBX 20 22 2 -4
BITMAP
002000
007000
00F800
01FC00
03FE00
07FF00
0FFF80
1FFFC0
3FFFE0
7FFFE0
FFFFF0
FFFFF0
7FFFE0
3FFFC0
1FFF80
0FFF00
07FE00
03FC00
03F800
01F000
00E000
004000
ENDCHAR
STARTCHAR 25A1
ENCODING 8544
SWIDTH 2400 0
DWIDTH 24 0
BBX 20 19 2 -2
BITMAP
FFFFF0
800010
800010
800010
800010
800010
800010
800010
800010
800010
800010
800010
800010
800010
800010
800010
800010
800010
FFFFF0
ENDCHAR
STARTCHAR 25A0
ENCODING 8545
SWIDTH 2400 0
DWIDTH 24 0
BBX 18 19 3 -2
BITMAP
FFFFC0
FFFFC0
FFFFC0
FFFFC0
FFFFC0
FFFFC0
FFFFC0
FFFFC0
FFFFC0
FFFFC0
FFFFC0
FFFFC0
FFFFC0
FFFFC0
FFFFC0
FFFFC0
FFFFC0
FFFFC0
FFFFC0
ENDCHAR
STARTCHAR 25B3
ENCODING 8546
SWIDTH 2400 0
DWIDTH 24 0
BBX 20 17 2 -2
BITMAP
006000
005000
009000
010800
010800
020400
040400
040200
080100
080100
100080
200080
200040
400020
800020
800010
FFFFF0
ENDCHAR
STARTCHAR 25B2
ENCODING 8547
SWIDTH 2400 0
DWIDTH 24 0
BBX 20 16 2 -1
BITMAP
006000
007000
00F000
01F800
01FC00
03FC00
07FE00
07FE00
0FFF00
1FFF80
1FFF80
3FFFC0
3FFFC0
7FFFE0
FFFFF0
FFFFF0
ENDCHAR
STARTCHAR 25BD
ENCODING 8548
SWIDTH 2400 0
DWIDTH 24 0
BBX 20 17 2 -1
BITMAP
FFFFF0
800010
800020
400040
200040
200080
100080
100100
080200
040200
040400
020800
010800
011000
00B000
00A000
004000
ENDCHAR
STARTCHAR 25BC
ENCODING 8549
SWIDTH 2400 0
DWIDTH 24 0
BBX 20 16 2 0
BITMAP
FFFFF0
FFFFF0
7FFFE0
3FFFC0
3FFFC0
1FFF80
1FFF80
0FFF00
07FE00
07FE00
03FC00
01F800
01F800
00F000
00F000
006000
ENDCHAR
STARTCHAR 2192
ENCODING 8550
SWIDTH 2400 0
DWIDTH 24 0
BBX 21 7 1 3
BITMAP
0000C0
000020
FFFFF8
000038
000070
000040
000080
ENDCHAR
STARTCHAR 2190
ENCODING 8551
SWIDTH 2400 0
DWIDTH 24 0
BBX 21 7 2 4
BITMAP
080000
100000
600000
FFFFF8
E00000
700000
100000
ENDCHAR
STARTCHAR 2191
ENCODING 8552
SWIDTH 2400 0
DWIDTH 24 0
BBX 6 22 8 -4
BITMAP
10
10
38
3C
54
90
10
10
10
10
10
10
10
10
10
10
10
10
10
10
10
10
ENDCHAR
STARTCHAR 2193
ENCODING 8553
SWIDTH 2400 0
DWIDTH 24 0
BBX 7 22 9 -4
BITMAP
10
10
10
10
10
10
10
10
10
10
10
10
10
10
10
10
92
54
7C
38
10
10
ENDCHAR
STARTCHAR 2194
ENCODING 8554
SWIDTH 2400 0
DWIDTH 24 0
BBX 20 7 2 4
BITMAP
100000
200080
600040
FFFFE0
600070
200040
100080
ENDCHAR
STARTCHAR 3013
ENCODING 8555
SWIDTH 2400 0
DWIDTH 24 0
BBX 16 6 4 4
BITMAP
FFFF
0000
0000
0000
0000
FFFF
ENDCHAR
STARTCHAR 226A
ENCODING 8556
SWIDTH 2400 0
DWIDTH 24 0
BBX 18 17 3 -1
BITMAP
000800
0030C0
004100
018600
020800
0C3000
104000
618000
820000
430000
308000
086000
061000
018C00
004200
003180
000840
ENDCHAR
STARTCHAR 226B
ENCODING 8557
SWIDTH 2400 0
DWIDTH 24 0
BBX 18 17 3 -1
BITMAP
040000
C30000
208000
186000
041000
030C00
008200
006180
001040
003080
004300
018C00
021000
0C6000
108000
630000
840000
ENDCHAR
STARTCHAR 221A
ENCODING 8558
SWIDTH 2400 0
DWIDTH 24 0
BBX 22 20 1 -2
BITMAP
000FFC
001000
001000
001000
002000
002000
002000
004000
004000
008000
008000
008000
210000
710000
B10000
120000
1A0000
0C0000
0C0000
0C0000
ENDCHAR
STARTCHAR 223D
ENCODING 8559
SWIDTH 2400 0
DWIDTH 24 0
BBX 19 9 2 3
BITMAP
1E0780
601840
401020
802020
804020
804020
408020
610040
1E0780
ENDCHAR
STARTCHAR 221D
ENCODING 8560
SWIDTH 2400 0
DWIDTH 24 0
BBX 17 9 3 2
BITMAP
3F0780
409800
405000
806000
802000
406000
409000
210800
1E0780
ENDCHAR
STARTCHAR 2235
ENCODING 8561
SWIDTH 2400 0
DWIDTH 24 0
BBX 14 13 5 1
BITMAP
E01C
E01C
E01C
0000
0000
0000
0000
0000
0000
0000
0700
0700
0700
ENDCHAR
STARTCHAR 222B
ENCODING 8562
SWIDTH 2400 0
DWIDTH 24 0
BBX 4 21 10 -3
BITMAP
70
B0
80
80
80
80
C0
C0
40
60
60
60
20
30
30
10
10
10
10
E0
E0
ENDCHAR
STARTCHAR 222C
ENCODING 8563
SWIDTH 2400 0
DWIDTH 24 0
BBX 10 21 7 -3
BITMAP
70C0
B3C0
8200
8200
8200
8200
C300
C300
4100
6180
6180
6180
20C0
30C0
30C0
1040
1040
1040
1040
E340
C380
ENDCHAR
STARTCHAR 2208
ENCODING 8564
SWIDTH 2400 0
DWIDTH 24 0
BBX 18 14 3 0
BITMAP
07FFC0
180000
200000
400000
800000
800000
FFFFC0
800000
800000
400000
200000
100000
0E0000
01FF80
ENDCHAR
STARTCHAR 220B
ENCODING 8565
SWIDTH 2400 0
DWIDTH 24 0
BBX 18 13 3 1
BITMAP
FFFC00
000600
000100
000080
000080
000040
FFFFC0
000040
000080
000080
000100
000200
FFFC00
ENDCHAR
STARTCHAR 2286
ENCODING 8566
SWIDTH 2400 0
DWIDTH 24 0
BBX 16 14 4 0
BITMAP
0FFF
3000
4000
4000
8000
8000
8000
4000
2000
1800
07FE
0000
0000
7FFF
ENDCHAR
STARTCHAR 2287
ENCODING 8567
SWIDTH 2400 0
DWIDTH 24 0
BBX 16 14 4 0
BITMAP
7FF8
0004
0002
0001
0001
0001
0001
0002
0004
7FF8
0000
0000
0000
FFFE
ENDCHAR
STARTCHAR 2282
ENCODING 8568
SWIDTH 2400 0
DWIDTH 24 0
BBX 18 14 3 0
BITMAP
0FFFC0
180000
200000
400000
400000
800000
800000
800000
800000
400000
400000
200000
180000
0FFFC0
ENDCHAR
STARTCHAR 2283
ENCODING 8569
SWIDTH 2400 0
DWIDTH 24 0
BBX 18 13 3 1
BITMAP
FFFC00
000300
000080
000080
000080
000040
000040
000040
000080
000080
000100
000200
FFFC00
ENDCHAR
STARTCHAR 222A
ENCODING 8570
SWIDTH 2400 0
DWIDTH 24 0
BBX 14 18 5 -2
BITMAP
8004
8004
8004
8004
8004
8004
8004
8004
8004
8004
8004
8004
8004
8004
4008
2010
1020
0FC0
ENDCHAR
STARTCHAR 2229
ENCODING 8571
SWIDTH 2400 0
DWIDTH 24 0
BBX 14 17 5 -1
BITMAP
0FC0
3020
6018
4008
8004
8004
8004
8004
8004
8004
8004
8004
8004
8004
8004
8004
8004
ENDCHAR
STARTCHAR 2227
ENCODING 8572
SWIDTH 2400 0
DWIDTH 24 0
BBX 16 14 4 0
BITMAP
0180
0180
0240
0440
0420
0820
0810
1008
1008
2004
2004
4002
4002
8001
ENDCHAR
STARTCHAR 2228
ENCODING 8573
SWIDTH 2400 0
DWIDTH 24 0
BBX 16 15 4 0
BITMAP
8001
4002
4002
2004
2004
1008
1008
0810
0810
0420
0420
0240
0240
0180
0180
ENDCHAR
STARTCHAR FFE2
ENCODING 8574
SWIDTH 2400 0
DWIDTH 24 0
BBX 15 9 5 2
BITMAP
FFFE
0002
0002
0002
0002
0002
0002
0002
0002
ENDCHAR
STARTCHAR 21D2
ENCODING 8737
SWIDTH 2400 0
DWIDTH 24 0
BBX 22 12 1 1
BITMAP
000100
000080
000040
FFFFE0
000018
00000C
000008
000010
FFFFE0
000040
000080
000100
ENDCHAR
STARTCHAR 21D4
ENCODING 8738
SWIDTH 2400 0
DWIDTH 24 0
BBX 20 12 2 1
BITMAP
040200
080100
100080
3FFFC0
400020
800010
800020
400040
3FFF80
100100
080200
040400
ENDCHAR
STARTCHAR 2200
ENCODING 8739
SWIDTH 2400 0
DWIDTH 24 0
BBX 16 19 4 -2
BITMAP
0001
8001
8002
4002
4004
2004
3FFC
1008
1008
1010
0810
0810
0420
0420
0240
0240
0280
0180
0180
ENDCHAR
STARTCHAR 2203
ENCODING 8740
SWIDTH 2400 0
DWIDTH 24 0
BBX 12 17 6 -1
BITMAP
FFF0
0010
0010
0010
0010
0010
0010
0010
FFF0
0010
0010
0010
0010
0010
0010
0010
FFF0
ENDCHAR
STARTCHAR 00B4
ENCODING 8741
SWIDTH 2400 0
DWIDTH 24 0
BBX 4 2 10 17
BITMAP
70
C0
ENDCHAR
STARTCHAR FF5E
ENCODING 8742
SWIDTH 2400 0
DWIDTH 24 0
BBX 10 4 7 14
BITMAP
7800
FE00
1FC0
0780
ENDCHAR
STARTCHAR 02C7
ENCODING 8743
SWIDTH 2400 0
DWIDTH 24 0
BBX 8 3 8 16
BITMAP
81
66
3C
ENDCHAR
STARTCHAR 02D8
ENCODING 8744
SWIDTH 2400 0
DWIDTH 24 0
BBX 8 3 8 15
BITMAP
81
43
3E
ENDCHAR
STARTCHAR 02DD
ENCODING 8745
SWIDTH 2400 0
DWIDTH 24 0
BBX 7 3 8 16
BITMAP
26
48
80
ENDCHAR
STARTCHAR 02DA
ENCODING 8746
SWIDTH 2400 0
DWIDTH 24 0
BBX 5 5 9 14
BITMAP
30
48
88
50
20
ENDCHAR
STARTCHAR 02D9
ENCODING 8747
SWIDTH 2400 0
DWIDTH 24 0
BBX 3 3 10 16
BITMAP
E0
E0
E0
ENDCHAR
STARTCHAR 00B8
ENCODING 8748
SWIDTH 2400 0
DWIDTH 24 0
BBX 3 4 11 -4
BITMAP
40
60
60
C0
ENDCHAR
STARTCHAR 02DB
ENCODING 8749
SWIDTH 2400 0
DWIDTH 24 0
BBX 4 3 10 -4
BITMAP
80
90
60
ENDCHAR
STARTCHAR 00A1
ENCODING 8750
SWIDTH 2400 0
DWIDTH 24 0
BBX 2 18 11 -2
BITMAP
C0
C0
C0
00
00
00
80
80
80
80
80
80
C0
C0
C0
C0
C0
C0
ENDCHAR
STARTCHAR 00BF
ENCODING 8751
SWIDTH 2400 0
DWIDTH 24 0
BBX 7 18 9 -2
BITMAP
1C
1C
1C
00
00
00
08
08
08
38
60
C0
80
80
80
80
4E
3C
ENDCHAR
STARTCHAR 02D0
ENCODING 8752
SWIDTH 2400 0
DWIDTH 24 0
BBX 4 11 10 2
BITMAP
F0
60
60
00
00
00
00
00
60
60
F0
ENDCHAR
STARTCHAR 222E
ENCODING 8753
SWIDTH 2400 0
DWIDTH 24 0
BBX 9 19 8 -2
BITMAP
0380
0500
0800
0800
0800
0800
0800
3C00
5A00
9A00
5A00
5C00
3800
1000
1000
1000
1000
A000
C000
ENDCHAR
STARTCHAR 2211
ENCODING 8754
SWIDTH 2400 0
DWIDTH 24 0
BBX 19 20 2 -3
BITMAP
FFFFE0
E00060
780060
3C0060
0E0060
070020
038020
01C020
00E000
007000
006000
00C000
018000
030000
060020
0C0020
180020
300020
7FFFE0
FFFFE0
ENDCHAR
STARTCHAR 220F
ENCODING 8755
SWIDTH 2400 0
DWIDTH 24 0
BBX 19 20 2 -3
BITMAP
FFFFE0
180300
180300
180300
180300
180300
180300
180300
180300
180300
180300
180300
180300
180300
180300
180300
180300
180300
180300
FE0FC0
ENDCHAR
STARTCHAR 00A4
ENCODING 8756
SWIDTH 2400 0
DWIDTH 24 0
BBX 16 17 4 -2
BITMAP
8381
4EF2
301C
200C
4004
4004
8002
8002
8002
8002
4004
4004
2008
3834
4FE2
8001
8000
ENDCHAR
STARTCHAR 2109
ENCODING 8757
SWIDTH 2400 0
DWIDTH 24 0
BBX 20 16 2 0
BITMAP
707FF0
886000
886000
C86000
706000
006000
006000
007FE0
006000
006000
006000
006000
006000
006000
006000
006000
ENDCHAR
STARTCHAR 2030
ENCODING 8758
SWIDTH 2400 0
DWIDTH 24 0
BBX 20 22 2 -4
BITMAP
380100
440200
820400
820800
820800
821000
822000
824000
844000
448000
390000
0270E0
028910
048910
088910
108910
208910
208910
408910
809120
0050A0
002040
ENDCHAR
STARTCHAR 25C1
ENCODING 8759
SWIDTH 2400 0
DWIDTH 24 0
BBX 15 19 5 -2
BITMAP
0002
0006
001A
0062
0082
0302
0402
1802
2002
C002
4002
3002
0802
0602
0102
00C2
0022
001A
0006
ENDCHAR
STARTCHAR 25C0
ENCODING 8760
SWIDTH 2400 0
DWIDTH 24 0
BBX 14 17 5 -1
BITMAP
000C
001C
007C
01FC
03FC
0FFC
1FFC
7FFC
FFFC
7FFC
1FFC
0FFC
03FC
01FC
007C
001C
000C
ENDCHAR
STARTCHAR 25B7
ENCODING 8761
SWIDTH 2400 0
DWIDTH 24 0
BBX 15 19 4 -2
BITMAP
8000
C000
B000
8800
8600
8180
8040
8030
8008
8006
800C
8010
8060
8080
8300
8C00
9000
E000
8000
ENDCHAR
STARTCHAR 25B6
ENCODING 8762
SWIDTH 2400 0
DWIDTH 24 0
BBX 14 17 5 -1
BITMAP
C000
E000
F800
FE00
FF00
FFC0
FFE0
FFF8
FFFC
FFF8
FFE0
FFC0
FF00
FE00
F800
E000
C000
ENDCHAR
STARTCHAR 2664
ENCODING 8763
SWIDTH 2400 0
DWIDTH 24 0
BBX 16 20 4 -3
BITMAP
0180
03C0
0660
0420
0C30
1818
300C
6004
6006
C003
C003
8001
8001
8001
C6E2
3ADC
02C0
0660
0660
07E0
ENDCHAR
STARTCHAR 2660
ENCODING 8764
SWIDTH 2400 0
DWIDTH 24 0
BBX 18 20 3 -3
BITMAP
00C000
01E000
03F000
07F800
07F800
0FFC00
1FFE00
3FFF00
3FFF00
7FFF80
7FFF80
7FFF80
FFFFC0
FFFFC0
7EDF80
3EDF00
00C000
01E000
01E000
03F000
ENDCHAR
STARTCHAR 2661
ENCODING 8765
SWIDTH 2400 0
DWIDTH 24 0
BBX 18 19 3 -3
BITMAP
1F3E00
333300
61E180
41E080
C0C0C0
C000C0
400080
600180
600180
300300
300300
180600
1C0600
0C0C00
061800
033000
03F000
01E000
00C000
ENDCHAR
STARTCHAR 2665
ENCODING 8766
SWIDTH 2400 0
DWIDTH 24 0
BBX 20 21 2 -4
BITMAP
1E0780
3F9FC0
7F9FE0
7FFFE0
FFFFE0
FFFFF0
FFFFE0
7FFFE0
7FFFE0
7FFFE0
3FFFC0
1FFF80
1FFF80
0FFF00
07FF00
07FE00
03FC00
01F800
00F000
00F000
006000
ENDCHAR
STARTCHAR 2667
ENCODING 8767
SWIDTH 2400 0
DWIDTH 24 0
BBX 21 21 1 -3
BITMAP
007800
01FC00
038600
030200
030200
030200
030200
018400
0CC9C0
3FCFF0
71CE10
600008
400008
C00008
604C08
60EE10
3F6FF0
1E49C0
00C800
00C800
00FC00
ENDCHAR
STARTCHAR 2663
ENCODING 8768
SWIDTH 2400 0
DWIDTH 24 0
BBX 20 21 2 -3
BITMAP
00F000
03FC00
03FC00
07FC00
07FE00
07FE00
03FC00
01F800
3CF380
7FFFE0
FFFFF0
FFFFF0
FFFFF0
FFDFF0
FF6FF0
7F6FE0
3E67C0
00E000
00F000
00F000
01F800
ENDCHAR
STARTCHAR 2299
ENCODING 8769
SWIDTH 2400 0
DWIDTH 24 0
BBX 20 20 2 -3
BITMAP
01F800
0E0600
100180
20F040
43FC40
47FE20
4FFF20
8FFF10
8FFF10
9FFF90
8FFF90
8FFF10
8FFF10
47FE20
47FE20
21F840
3000C0
180180
060600
01F800
ENDCHAR
STARTCHAR 25C8
ENCODING 8770
SWIDTH 2400 0
DWIDTH 24 0
BBX 21 22 1 -4
BITMAP
001000
006800
008400
010200
023100
047880
08FC80
11FE40
23FF20
47FF90
8FFFC8
4FFFC8
27FF90
13FF20
09FE40
04FC80
027900
013200
008600
004C00
003800
001000
ENDCHAR
STARTCHAR 25A3
ENCODING 8771
SWIDTH 2400 0
DWIDTH 24 0
BBX 20 20 2 -3
BITMAP
FFFFF0
800010
800010
800010
800010
87FE10
87FE10
87FE10
87FE10
87FE10
87FE10
87FE10
87FE10
87FE10
87FE10
800010
800010
800010
800010
FFFFF0
ENDCHAR
STARTCHAR 25D0
ENCODING 8772
SWIDTH 2400 0
DWIDTH 24 0
BBX 20 20 2 -3
BITMAP
01F800
07C600
0FC180
1FC040
3FC040
7FC020
7FC020
7FC010
FFC010
FFC010
FFC010
FFC010
FFC010
7FC020
7FC020
3FC040
1FC0C0
1FC180
07C700
01F800
ENDCHAR
STARTCHAR 25D1
ENCODING 8773
SWIDTH 2400 0
DWIDTH 24 0
BBX 20 20 2 -3
BITMAP
01F800
061E00
181F00
201F80
201FC0
401FE0
401FE0
801FE0
801FF0
801FF0
801FF0
801FF0
801FE0
401FE0
401FE0
201FC0
301F80
181F80
0E1E00
01F800
ENDCHAR
STARTCHAR 2592
ENCODING 8774
SWIDTH 2400 0
DWIDTH 24 0
BBX 20 20 2 -3
BITMAP
FFFFF0
800010
912250
A44890
800010
912250
800010
A44890
800010
912250
A44890
800010
912250
800010
A44890
800010
912250
A44890
800010
FFFFF0
ENDCHAR
STARTCHAR 25A4
ENCODING 8775
SWIDTH 2400 0
DWIDTH 24 0
BBX 20 19 2 -2
BITMAP
FFFFF0
800010
800010
800010
800010
FFFFF0
800010
800010
800010
FFFFF0
800010
800010
800010
800010
FFFFF0
800010
800010
800010
FFFFF0
ENDCHAR
STARTCHAR 25A5
ENCODING 8776
SWIDTH 2400 0
DWIDTH 24 0
BBX 20 20 2 -3
BITMAP
FFFFF0
844210
844210
844210
844210
844210
844210
844210
844210
844210
844210
844210
844210
844210
844210
844210
844210
844210
844210
FFFFF0
ENDCHAR
STARTCHAR 25A8
ENCODING 8777
SWIDTH 2400 0
DWIDTH 24 0
BBX 20 20 2 -3
BITMAP
FFFFF0
804030
808050
810090
820110
840210
980410
A00810
C01010
802010
804030
808050
810090
820110
840210
880410
900810
E01010
C02010
FFFFF0
ENDCHAR
STARTCHAR 25A7
ENCODING 8778
SWIDTH 2400 0
DWIDTH 24 0
BBX 20 20 2 -3
BITMAP
FFFFF0
E02010
B01010
980810
8C0410
860210
810110
808090
804050
802030
C01010
A00810
900410
880210
840110
820090
810050
808030
804010
FFFFF0
ENDCHAR
STARTCHAR 25A6
ENCODING 8779
SWIDTH 2400 0
DWIDTH 24 0
BBX 19 19 2 -2
BITMAP
FFFFE0
844220
844220
844220
844220
FFFFE0
844220
844220
844220
FFFFE0
844220
844220
844220
844220
FFFFE0
844220
844220
844220
FFFFE0
ENDCHAR
STARTCHAR 25A9
ENCODING 8780
SWIDTH 2400 0
DWIDTH 24 0
BBX 20 19 2 -2
BITMAP
FFFFF0
C06030
A09050
930890
8C0510
8C0710
920890
A11050
C0A030
C04010
A0A030
911050
8A0890
840510
8A0610
910910
A09090
C06050
FFFFF0
ENDCHAR
STARTCHAR 2668
ENCODING 8781
SWIDTH 2400 0
DWIDTH 24 0
BBX 20 20 2 -3
BITMAP
002000
002400
026400
026400
064C00
064C00
066C00
066400
036600
037600
033600
0B3680
332640
426430
C24810
C44830
E008E0
7F1FC0
1FFF80
03FC00
ENDCHAR
STARTCHAR 260F
ENCODING 8782
SWIDTH 2400 0
DWIDTH 24 0
BBX 22 17 1 -1
BITMAP
00F800
0F07C0
300030
4EFF88
8A8644
86FE84
8A7944
738738
050280
0A0140
120140
120120
220120
210220
218610
407810
3F87E0
ENDCHAR
STARTCHAR 260E
ENCODING 8783
SWIDTH 2400 0
DWIDTH 24 0
BBX 22 16 1 0
BITMAP
00FC00
0FFFC0
3FFFF0
798678
F9867C
FDFEFC
FBFF7C
038700
070380
0E01C0
1E01C0
1E01E0
3E01E0
3F03E0
3F87F0
3FFFF0
ENDCHAR
STARTCHAR 261C
ENCODING 8784
SWIDTH 2400 0
DWIDTH 24 0
BBX 23 10 0 2
BITMAP
0FFFC0
F01C3E
7FE00A
029E0A
036E0A
01B58A
014A0A
00F41A
007DE4
000200
ENDCHAR
STARTCHAR 261E
ENCODING 8785
SWIDTH 2400 0
DWIDTH 24 0
BBX 22 10 1 2
BITMAP
07FFC0
D8E03C
601E08
40E5F0
41FA80
429500
40EF00
209E00
DE6800
01D000
ENDCHAR
STARTCHAR 00B6
ENCODING 8786
SWIDTH 2400 0
DWIDTH 24 0
BBX 13 21 6 -3
BITMAP
1F00
7F08
C108
8108
8108
8108
8108
8108
6108
1F08
0108
0108
0108
0108
0108
0108
0108
0108
0108
0108
0108
ENDCHAR
STARTCHAR 2020
ENCODING 8787
SWIDTH 2400 0
DWIDTH 24 0
BBX 13 22 6 -4
BITMAP
0200
0200
0200
0200
0200
0200
FFF8
0200
0200
0200
0200
0200
0200
0200
0200
0200
0200
0200
0200
0200
0200
0200
ENDCHAR
STARTCHAR 2021
ENCODING 8788
SWIDTH 2400 0
DWIDTH 24 0
BBX 12 22 6 -4
BITMAP
0400
0400
0400
FFF0
0400
0400
0400
FFE0
0400
0400
0400
0400
0400
0400
0400
0400
0400
0400
0400
0400
0400
0400
ENDCHAR
STARTCHAR 2195
ENCODING 8789
SWIDTH 2400 0
DWIDTH 24 0
BBX 8 20 8 -3
BITMAP
10
38
7C
92
10
10
10
10
10
10
10
10
10
10
10
11
92
7C
38
10
ENDCHAR
STARTCHAR 2197
ENCODING 8790
SWIDTH 2400 0
DWIDTH 24 0
BBX 14 14 5 0
BITMAP
00FC
000C
0014
0024
0044
0080
0100
0200
0400
0800
1000
2000
4000
8000
ENDCHAR
STARTCHAR 2199
ENCODING 8791
SWIDTH 2400 0
DWIDTH 24 0
BBX 14 15 5 0
BITMAP
0004
0008
0010
0020
0040
0080
0100
0200
0400
8800
9800
9000
A000
E000
F800
ENDCHAR
STARTCHAR 2196
ENCODING 8792
SWIDTH 2400 0
DWIDTH 24 0
BBX 14 14 5 0
BITMAP
F800
C000
A000
9000
8800
0400
0200
0100
0080
0040
0020
0010
0008
0004
ENDCHAR
STARTCHAR 2198
ENCODING 8793
SWIDTH 2400 0
DWIDTH 24 0
BBX 14 15 5 0
BITMAP
8000
4000
2000
1000
0800
0400
0400
0200
0100
0084
0044
0024
0014
000C
007C
ENDCHAR
STARTCHAR 266D
ENCODING 8794
SWIDTH 2400 0
DWIDTH 24 0
BBX 8 16 8 -1
BITMAP
80
80
80
80
80
9C
E6
83
83
83
83
86
86
8C
B0
C0
ENDCHAR
STARTCHAR 2669
ENCODING 8795
SWIDTH 2400 0
DWIDTH 24 0
BBX 5 20 10 -3
BITMAP
08
08
08
08
08
08
08
08
08
08
08
08
08
08
08
08
38
F8
F0
C0
ENDCHAR
STARTCHAR 266A
ENCODING 8796
SWIDTH 2400 0
DWIDTH 24 0
BBX 12 20 6 -3
BITMAP
0800
0C00
0E00
0F00
0B80
09C0
0860
0830
0830
0830
0820
0820
0840
0880
0800
0800
7800
F000
E000
C000
ENDCHAR
STARTCHAR 266C
ENCODING 8797
SWIDTH 2400 0
DWIDTH 24 0
BBX 17 18 3 -2
BITMAP
07FF80
07FF80
040080
040080
07FF80
07FF80
040080
040080
040080
040080
040080
040080
040080
040080
3C0780
780F00
F81E00
600C00
ENDCHAR
STARTCHAR 327F
ENCODING 8798
SWIDTH 2400 0
DWIDTH 24 0
BBX 20 19 2 -2
BITMAP
01FC00
0E0700
180180
3000C0
630660
430C20
431800
C33000
836000
FBE1F0
03B030
031830
430C30
430C20
630660
3000C0
180180
0F0F00
03FC00
ENDCHAR
STARTCHAR 321C
ENCODING 8799
SWIDTH 2400 0
DWIDTH 24 0
BBX 23 19 0 -3
BITMAP
13FFD0
101808
201804
202404
404202
418182
420042
800002
800002
87FFF2
800802
800802
400802
400802
400804
200804
200808
100810
080000
ENDCHAR
STARTCHAR 2116
ENCODING 8800
SWIDTH 2400 0
DWIDTH 24 0
BBX 22 17 1 0
BITMAP
C04000
C04000
E04000
A04000
B04000
9043E0
984630
884410
844808
844808
824808
824808
814808
814808
80C410
80C630
8043E4
ENDCHAR
STARTCHAR 33C7
ENCODING 8801
SWIDTH 2400 0
DWIDTH 24 0
BBX 22 18 1 0
BITMAP
1E0000
210000
408000
408000
C08000
808000
8003C0
800420
800810
801008
801008
801008
80D008
809008
C09008
408810
610810
3E07E4
ENDCHAR
STARTCHAR 2122
ENCODING 8802
SWIDTH 2400 0
DWIDTH 24 0
BBX 20 17 2 0
BITMAP
FFB030
083030
083030
083030
083870
082850
082850
082850
082C50
082490
082490
082490
082490
082790
082310
082310
082310
ENDCHAR
STARTCHAR 33C2
ENCODING 8803
SWIDTH 2400 0
DWIDTH 24 0
BBX 22 13 1 0
BITMAP
180000
641E70
421190
821110
821110
061110
3A1110
621110
821110
821110
821110
861110
795114
ENDCHAR
STARTCHAR 33D8
ENCODING 8804
SWIDTH 2400 0
DWIDTH 24 0
BBX 22 17 1 -4
BITMAP
180000
BC1E70
C21110
C31110
811110
811110
811110
811110
811110
811110
C21110
C21110
BC9114
800000
800000
800000
800000
ENDCHAR
STARTCHAR 2121
ENCODING 8805
SWIDTH 2400 0
DWIDTH 24 0
BBX 19 18 2 0
BITMAP
000020
FF8020
080020
080020
080020
080020
083E20
084220
08C120
088120
088120
08FF20
088020
088020
088120
08C120
086220
003C00
ENDCHAR
STARTCHAR FF01
ENCODING 8993
SWIDTH 2400 0
DWIDTH 24 0
BBX 2 17 11 0
BITMAP
80
80
80
80
80
80
80
80
80
80
80
80
80
00
00
C0
C0
ENDCHAR
STARTCHAR FF02
ENCODING 8994
SWIDTH 2400 0
DWIDTH 24 0
BBX 8 5 8 14
BITMAP
33
62
46
84
88
ENDCHAR
STARTCHAR FF03
ENCODING 8995
SWIDTH 2400 0
DWIDTH 24 0
BBX 16 17 4 0
BITMAP
0080
010C
0108
0108
0318
0210
3FFF
0430
0420
0C60
FFFC
0840
10C0
1080
1080
2180
0100
ENDCHAR
STARTCHAR FF04
ENCODING 8996
SWIDTH 2400 0
DWIDTH 24 0
BBX 11 20 6 -2
BITMAP
0400
0400
3F80
64C0
4440
4440
4400
6400
7C00
1E00
05C0
0440
0460
C420
C460
4460
64C0
1F80
0400
0400
ENDCHAR
STARTCHAR FF05
ENCODING 8997
SWIDTH 2400 0
DWIDTH 24 0
BBX 18 17 3 0
BITMAP
000400
3C0800
C30800
811000
811000
812000
C36000
3C4000
00C000
008F00
019080
012040
022040
022040
042040
041080
080F00
ENDCHAR
STARTCHAR FF06
ENCODING 8998
SWIDTH 2400 0
DWIDTH 24 0
BBX 14 17 5 0
BITMAP
0F00
1880
1080
3080
1080
1980
0F00
1C00
3600
6310
4190
C090
C070
C060
4070
60D8
1F8C
ENDCHAR
STARTCHAR FF07
ENCODING 8999
SWIDTH 2400 0
DWIDTH 24 0
BBX 2 5 11 14
BITMAP
C0
C0
C0
80
80
ENDCHAR
STARTCHAR FF08
ENCODING 9000
SWIDTH 2400 0
DWIDTH 24 0
BBX 4 21 10 -3
BITMAP
10
30
20
60
40
C0
C0
80
80
80
80
80
80
80
C0
C0
40
60
20
30
10
ENDCHAR
STARTCHAR FF09
ENCODING 9001
SWIDTH 2400 0
DWIDTH 24 0
BBX 4 21 10 -3
BITMAP
80
C0
40
60
20
30
30
10
10
10
10
10
10
10
10
30
20
60
40
C0
80
ENDCHAR
STARTCHAR FF0A
ENCODING 9002
SWIDTH 2400 0
DWIDTH 24 0
BBX 9 9 8 3
BITMAP
0800
0800
0800
FF80
3E00
1C00
1600
3600
2200
ENDCHAR
STARTCHAR FF0B
ENCODING 9003
SWIDTH 2400 0
DWIDTH 24 0
BBX 17 16 3 -1
BITMAP
008000
008000
008000
008000
008000
008000
008000
FFFF80
008000
008000
008000
008000
008000
008000
008000
008000
ENDCHAR
STARTCHAR FF0C
ENCODING 9004
SWIDTH 2400 0
DWIDTH 24 0
BBX 2 5 3 -4
BITMAP
C0
C0
40
40
80
ENDCHAR
STARTCHAR FF0D
ENCODING 9005
SWIDTH 2400 0
DWIDTH 24 0
BBX 16 1 4 7
BITMAP
FFFF
ENDCHAR
STARTCHAR FF0E
ENCODING 9006
SWIDTH 2400 0
DWIDTH 24 0
BBX 2 2 5 0
BITMAP
C0
C0
ENDCHAR
STARTCHAR FF0F
ENCODING 9007
SWIDTH 2400 0
DWIDTH 24 0
BBX 20 21 2 -3
BITMAP
000010
000030
000060
0000C0
000180
000300
000600
000C00
001800
003000
006000
00C000
018000
030000
060000
0C0000
180000
300000
600000
C00000
800000
ENDCHAR
STARTCHAR FF10
ENCODING 9008
SWIDTH 2400 0
DWIDTH 24 0
BBX 12 17 6 0
BITMAP
0F00
30C0
6060
6060
4070
C030
C030
C030
C030
C030
C030
C030
C030
6060
6060
30C0
0F00
ENDCHAR
STARTCHAR FF11
ENCODING 9009
SWIDTH 2400 0
DWIDTH 24 0
BBX 6 17 9 0
BITMAP
0C
0C
1C
FC
0C
0C
0C
0C
0C
0C
0C
0C
0C
0C
0C
0C
0C
ENDCHAR
STARTCHAR FF12
ENCODING 9010
SWIDTH 2400 0
DWIDTH 24 0
BBX 10 17 7 0
BITMAP
1F00
6080
40C0
C040
C040
0040
00C0
01C0
0380
0700
1E00
3800
7000
E000
C000
8000
FFC0
ENDCHAR
STARTCHAR FF13
ENCODING 9011
SWIDTH 2400 0
DWIDTH 24 0
BBX 10 18 7 -1
BITMAP
1E00
3F80
6080
C0C0
C0C0
00C0
00C0
0180
0F00
0080
0040
0040
8040
8040
C0C0
E0C0
7F80
0800
ENDCHAR
STARTCHAR FF14
ENCODING 9012
SWIDTH 2400 0
DWIDTH 24 0
BBX 11 17 6 0
BITMAP
0180
0380
0780
0580
0D80
1980
1180
3180
6180
C180
C180
FFE0
0180
0180
0180
0180
0180
ENDCHAR
STARTCHAR FF15
ENCODING 9013
SWIDTH 2400 0
DWIDTH 24 0
BBX 10 16 7 0
BITMAP
7F80
4000
4000
4000
4000
5E00
FF80
E180
80C0
0040
0040
0040
8040
C0C0
6180
3E00
ENDCHAR
STARTCHAR FF16
ENCODING 9014
SWIDTH 2400 0
DWIDTH 24 0
BBX 12 17 6 0
BITMAP
0F80
39C0
6060
6020
4000
C000
C700
DFC0
E060
E030
C030
C030
C030
4030
6060
30C0
0F80
ENDCHAR
STARTCHAR FF17
ENCODING 9015
SWIDTH 2400 0
DWIDTH 24 0
BBX 10 16 7 0
BITMAP
FFC0
00C0
0180
0300
0300
0600
0400
0C00
0C00
0800
1800
1000
1000
1000
3000
3000
ENDCHAR
STARTCHAR FF18
ENCODING 9016
SWIDTH 2400 0
DWIDTH 24 0
BBX 11 17 7 0
BITMAP
1F00
6180
40C0
80C0
80C0
40C0
6180
3F00
6180
C0C0
8060
8060
8060
8060
C0C0
6180
1F00
ENDCHAR
STARTCHAR FF19
ENCODING 9017
SWIDTH 2400 0
DWIDTH 24 0
BBX 10 17 7 0
BITMAP
1E00
7300
4180
8080
80C0
80C0
80C0
80C0
41C0
7740
1C40
0040
00C0
8080
4180
6300
3E00
ENDCHAR
STARTCHAR FF1A
ENCODING 9018
SWIDTH 2400 0
DWIDTH 24 0
BBX 2 12 11 0
BITMAP
C0
C0
00
00
00
00
00
00
00
00
C0
C0
ENDCHAR
STARTCHAR FF1B
ENCODING 9019
SWIDTH 2400 0
DWIDTH 24 0
BBX 2 14 11 -3
BITMAP
C0
C0
00
00
00
00
00
00
00
C0
C0
40
40
80
ENDCHAR
STARTCHAR FF1C
ENCODING 9020
SWIDTH 2400 0
DWIDTH 24 0
BBX 14 16 5 -1
BITMAP
0004
001C
0070
00C0
0300
0C00
3000
C000
E000
3000
0C00
0300
00C0
0070
001C
0004
ENDCHAR
STARTCHAR FF1D
ENCODING 9021
SWIDTH 2400 0
DWIDTH 24 0
BBX 18 6 3 4
BITMAP
FFFFC0
000000
000000
000000
000000
FFFFC0
ENDCHAR
STARTCHAR FF1E
ENCODING 9022
SWIDTH 2400 0
DWIDTH 24 0
BBX 14 16 5 -1
BITMAP
8000
E000
3000
0C00
0300
00C0
0070
001C
000C
0030
00C0
0300
0C00
3800
E000
8000
ENDCHAR
STARTCHAR FF1F
ENCODING 9023
SWIDTH 2400 0
DWIDTH 24 0
BBX 10 17 7 0
BITMAP
3F00
7180
C0C0
C0C0
C040
00C0
0080
0180
0300
0600
0C00
0C00
0C00
0000
0000
0C00
0C00
ENDCHAR
STARTCHAR FF20
ENCODING 9024
SWIDTH 2400 0
DWIDTH 24 0
BBX 18 17 3 -1
BITMAP
03F000
1C0C00
300300
600180
43C080
C628C0
8C1840
880840
880840
880840
880840
CC1880
463900
63CE00
300180
1C0700
03F800
ENDCHAR
STARTCHAR FF21
ENCODING 9025
SWIDTH 2400 0
DWIDTH 24 0
BBX 14 17 5 0
BITMAP
0300
0300
0780
0780
04C0
0CC0
0C40
1860
1860
1020
3030
3FF0
2018
6018
4008
C00C
C00C
ENDCHAR
STARTCHAR FF22
ENCODING 9026
SWIDTH 2400 0
DWIDTH 24 0
BBX 12 17 6 0
BITMAP
FF80
C040
C020
C020
C020
C020
C020
C040
FFC0
C060
C010
C010
C010
C010
C010
C060
FF80
ENDCHAR
STARTCHAR FF23
ENCODING 9027
SWIDTH 2400 0
DWIDTH 24 0
BBX 15 17 5 0
BITMAP
07E0
1C38
300C
2004
6006
C000
C000
C000
C000
C000
C000
C006
6006
6004
300C
1C30
07E0
ENDCHAR
STARTCHAR FF24
ENCODING 9028
SWIDTH 2400 0
DWIDTH 24 0
BBX 14 17 5 0
BITMAP
FF00
FFE0
C070
C010
C018
C008
C008
C00C
C00C
C008
C008
C008
C008
C010
C010
C060
FF80
ENDCHAR
STARTCHAR FF25
ENCODING 9029
SWIDTH 2400 0
DWIDTH 24 0
BBX 12 17 6 0
BITMAP
FFF0
C000
C000
C000
C000
C000
C000
C000
FFC0
C000
C000
C000
C000
C000
C000
C000
FFF0
ENDCHAR
STARTCHAR FF26
ENCODING 9030
SWIDTH 2400 0
DWIDTH 24 0
BBX 11 16 7 0
BITMAP
FFE0
C000
C000
C000
C000
C000
C000
FFC0
C000
C000
C000
C000
C000
C000
C000
C000
ENDCHAR
STARTCHAR FF27
ENCODING 9031
SWIDTH 2400 0
DWIDTH 24 0
BBX 16 17 4 0
BITMAP
07E0
0C18
100C
2006
6006
C000
C000
C000
C0FF
C003
C003
E003
6007
7007
380F
1FFB
07E3
ENDCHAR
STARTCHAR FF28
ENCODING 9032
SWIDTH 2400 0
DWIDTH 24 0
BBX 14 17 5 0
BITMAP
C000
C00C
C00C
C00C
C00C
C00C
C00C
C00C
FFFC
C00C
C00C
C00C
C00C
C00C
C00C
C00C
C00C
ENDCHAR
STARTCHAR FF29
ENCODING 9033
SWIDTH 2400 0
DWIDTH 24 0
BBX 2 17 11 0
BITMAP
C0
C0
C0
C0
C0
C0
C0
C0
C0
C0
C0
C0
C0
C0
C0
C0
C0
ENDCHAR
STARTCHAR FF2A
ENCODING 9034
SWIDTH 2400 0
DWIDTH 24 0
BBX 10 17 7 0
BITMAP
00C0
00C0
00C0
00C0
00C0
00C0
00C0
00C0
00C0
00C0
00C0
C0C0
40C0
40C0
6180
3380
1E00
ENDCHAR
STARTCHAR FF2B
ENCODING 9035
SWIDTH 2400 0
DWIDTH 24 0
BBX 13 17 5 0
BITMAP
C030
C060
C0C0
C180
C300
C600
CC00
DC00
F600
E300
C180
C080
C0C0
C060
C030
C010
C018
ENDCHAR
STARTCHAR FF2C
ENCODING 9036
SWIDTH 2400 0
DWIDTH 24 0
BBX 11 17 7 0
BITMAP
C000
C000
C000
C000
C000
C000
C000
C000
C000
C000
C000
C000
C000
C000
C000
C000
FFE0
ENDCHAR
STARTCHAR FF2D
ENCODING 9037
SWIDTH 2400 0
DWIDTH 24 0
BBX 16 17 4 0
BITMAP
C003
E007
E007
F007
D00B
D00B
C81B
C813
CC13
C423
C423
C623
C243
C243
C3C3
C183
C183
ENDCHAR
STARTCHAR FF2E
ENCODING 9038
SWIDTH 2400 0
DWIDTH 24 0
BBX 14 17 5 0
BITMAP
C00C
E00C
D00C
D00C
C80C
CC0C
C40C
C20C
C30C
C10C
C08C
C0CC
C04C
C02C
C03C
C01C
C00C
ENDCHAR
STARTCHAR FF2F
ENCODING 9039
SWIDTH 2400 0
DWIDTH 24 0
BBX 15 17 4 0
BITMAP
0FE0
3830
3008
6004
C004
C002
C002
C002
C002
C002
C002
C002
C004
6004
7008
3810
0FE0
ENDCHAR
STARTCHAR FF30
ENCODING 9040
SWIDTH 2400 0
DWIDTH 24 0
BBX 12 17 6 0
BITMAP
FF00
FFE0
C070
C030
C030
C030
C030
C020
FFE0
FF00
C000
C000
C000
C000
C000
C000
C000
ENDCHAR
STARTCHAR FF31
ENCODING 9041
SWIDTH 2400 0
DWIDTH 24 0
BBX 16 18 4 -1
BITMAP
07E0
1C38
300C
6006
6006
C003
C003
C003
C003
C003
C003
C003
6006
6066
303C
181C
07E6
0002
ENDCHAR
STARTCHAR FF32
ENCODING 9042
SWIDTH 2400 0
DWIDTH 24 0
BBX 12 17 6 0
BITMAP
FFC0
C060
C030
C030
C030
C030
C030
C060
FFC0
C040
C020
C020
C020
C020
C020
C030
C030
ENDCHAR
STARTCHAR FF33
ENCODING 9043
SWIDTH 2400 0
DWIDTH 24 0
BBX 12 17 6 0
BITMAP
1F80
30C0
6060
C020
C030
C000
E000
7E00
1FC0
01E0
0070
0030
8030
8030
C060
60E0
1F80
ENDCHAR
STARTCHAR FF34
ENCODING 9044
SWIDTH 2400 0
DWIDTH 24 0
BBX 12 16 6 0
BITMAP
FFF0
0600
0600
0600
0600
0600
0600
0600
0600
0600
0600
0600
0600
0600
0600
0600
ENDCHAR
STARTCHAR FF35
ENCODING 9045
SWIDTH 2400 0
DWIDTH 24 0
BBX 14 17 5 0
BITMAP
C00C
C00C
C00C
C00C
C00C
C00C
C00C
C00C
C00C
C00C
C00C
C00C
C00C
E018
6018
3870
0FC0
ENDCHAR
STARTCHAR FF36
ENCODING 9046
SWIDTH 2400 0
DWIDTH 24 0
BBX 12 17 6 0
BITMAP
8010
8010
C030
C020
4020
6060
6040
2040
30C0
3080
1080
1980
1900
0900
0F00
0E00
0600
ENDCHAR
STARTCHAR FF37
ENCODING 9047
SWIDTH 2400 0
DWIDTH 24 0
BBX 20 17 2 0
BITMAP
C06030
C06030
406020
40F020
609060
609060
219840
219840
310840
3108C0
130C80
120C80
1A0480
1A0500
0E0700
0C0700
0C0300
ENDCHAR
STARTCHAR FF38
ENCODING 9048
SWIDTH 2400 0
DWIDTH 24 0
BBX 12 17 6 0
BITMAP
C030
4020
6060
30C0
1080
1980
0F00
0600
0600
0F00
0900
1980
30C0
2040
6060
4020
8010
ENDCHAR
STARTCHAR FF39
ENCODING 9049
SWIDTH 2400 0
DWIDTH 24 0
BBX 13 17 6 0
BITMAP
8018
C030
4020
6060
30C0
1080
1980
0D00
0F00
0600
0600
0600
0600
0600
0600
0600
0600
ENDCHAR
STARTCHAR FF3A
ENCODING 9050
SWIDTH 2400 0
DWIDTH 24 0
BBX 12 17 6 0
BITMAP
FFF0
0030
0060
0060
00C0
0180
0300
0300
0600
0C00
1800
1800
3000
6000
C000
C000
FFF0
ENDCHAR
STARTCHAR FF3B
ENCODING 9051
SWIDTH 2400 0
DWIDTH 24 0
BBX 5 22 10 -4
BITMAP
F8
80
80
80
80
80
80
80
80
80
80
80
80
80
80
80
80
80
80
80
80
F0
ENDCHAR
STARTCHAR FFE6
ENCODING 9052
SWIDTH 2400 0
DWIDTH 24 0
BBX 24 17 0 0
BITMAP
30180C
30180C
101808
103C08
182418
FFFFFF
182410
084210
0C4230
FFFFFF
04C320
048120
068160
068160
0381C0
0300C0
0300C0
ENDCHAR
STARTCHAR FF3D
ENCODING 9053
SWIDTH 2400 0
DWIDTH 24 0
BBX 4 22 10 -4
BITMAP
F0
10
10
10
10
10
10
10
10
10
10
10
10
10
10
10
10
10
10
10
10
F0
ENDCHAR
STARTCHAR FF3E
ENCODING 9054
SWIDTH 2400 0
DWIDTH 24 0
BBX 8 4 8 15
BITMAP
18
3C
66
81
ENDCHAR
STARTCHAR FF3F
ENCODING 9055
SWIDTH 2400 0
DWIDTH 24 0
BBX 22 1 1 -4
BITMAP
FFFFFC
ENDCHAR
STARTCHAR FF40
ENCODING 9056
SWIDTH 2400 0
DWIDTH 24 0
BBX 3 5 10 14
BITMAP
80
C0
40
20
20
ENDCHAR
STARTCHAR FF41
ENCODING 9057
SWIDTH 2400 0
DWIDTH 24 0
BBX 10 12 7 0
BITMAP
3E00
6100
C180
8180
0180
3E80
E080
8080
8180
8180
C280
7840
ENDCHAR
STARTCHAR FF42
ENCODING 9058
SWIDTH 2400 0
DWIDTH 24 0
BBX 10 17 7 0
BITMAP
8000
8000
8000
8000
8400
BF00
E180
C080
8040
8040
8040
8040
8040
8040
C080
A100
9E00
ENDCHAR
STARTCHAR FF43
ENCODING 9059
SWIDTH 2400 0
DWIDTH 24 0
BBX 10 12 7 0
BITMAP
1F00
7180
40C0
C040
8000
8000
8000
8000
C040
40C0
7180
1F00
ENDCHAR
STARTCHAR FF44
ENCODING 9060
SWIDTH 2400 0
DWIDTH 24 0
BBX 11 17 6 0
BITMAP
0020
0020
0020
0020
0420
1FA0
30E0
6060
4020
4020
C020
C020
4020
4020
6060
30A0
0F20
ENDCHAR
STARTCHAR FF45
ENCODING 9061
SWIDTH 2400 0
DWIDTH 24 0
BBX 10 12 7 0
BITMAP
1E00
6180
40C0
8040
8040
FFC0
8000
8000
C040
C0C0
7180
1F00
ENDCHAR
STARTCHAR FF46
ENCODING 9062
SWIDTH 2400 0
DWIDTH 24 0
BBX 5 17 9 0
BITMAP
18
30
20
20
20
F8
20
20
20
20
20
20
20
20
20
20
20
ENDCHAR
STARTCHAR FF47
ENCODING 9063
SWIDTH 2400 0
DWIDTH 24 0
BBX 10 16 7 -4
BITMAP
1E40
6140
40C0
8040
8040
8040
8040
8040
8040
40C0
61C0
3E40
0040
80C0
C180
3F00
ENDCHAR
STARTCHAR FF48
ENCODING 9064
SWIDTH 2400 0
DWIDTH 24 0
BBX 8 17 8 0
BITMAP
80
80
80
80
80
BE
C3
81
81
81
81
81
81
81
81
81
81
ENDCHAR
STARTCHAR FF49
ENCODING 9065
SWIDTH 2400 0
DWIDTH 24 0
BBX 1 17 11 0
BITMAP
80
80
00
00
00
80
80
80
80
80
80
80
80
80
80
80
80
ENDCHAR
STARTCHAR FF4A
ENCODING 9066
SWIDTH 2400 0
DWIDTH 24 0
BBX 3 21 11 -4
BITMAP
20
20
00
00
00
20
20
20
20
20
20
20
20
20
20
20
20
20
20
20
E0
ENDCHAR
STARTCHAR FF4B
ENCODING 9067
SWIDTH 2400 0
DWIDTH 24 0
BBX 9 17 7 0
BITMAP
8000
8000
8000
8000
8000
8300
8600
8C00
9800
B000
F800
CC00
8400
8600
8300
8100
8180
ENDCHAR
STARTCHAR FF4C
ENCODING 9068
SWIDTH 2400 0
DWIDTH 24 0
BBX 1 17 11 0
BITMAP
80
80
80
80
80
80
80
80
80
80
80
80
80
80
80
80
80
ENDCHAR
STARTCHAR FF4D
ENCODING 9069
SWIDTH 2400 0
DWIDTH 24 0
BBX 16 12 4 0
BITMAP
BE3E
E3C3
C101
8101
8101
8101
8101
8101
8101
8101
8101
8101
ENDCHAR
STARTCHAR FF4E
ENCODING 9070
SWIDTH 2400 0
DWIDTH 24 0
BBX 9 12 8 0
BITMAP
BE00
E300
C180
8180
8180
8180
8180
8180
8180
8180
8180
8180
ENDCHAR
STARTCHAR FF4F
ENCODING 9071
SWIDTH 2400 0
DWIDTH 24 0
BBX 10 12 7 0
BITMAP
1E00
6180
4080
8040
8040
8040
8040
8040
8040
4080
6180
1E00
ENDCHAR
STARTCHAR FF50
ENCODING 9072
SWIDTH 2400 0
DWIDTH 24 0
BBX 10 16 7 -4
BITMAP
9E00
A180
C080
8040
8040
8040
8040
8040
8040
C080
E180
9E00
8000
8000
8000
8000
ENDCHAR
STARTCHAR FF51
ENCODING 9073
SWIDTH 2400 0
DWIDTH 24 0
BBX 11 17 7 -4
BITMAP
0400
1FA0
21E0
40E0
8060
8060
8060
8060
8060
8060
40E0
21A0
1F20
0020
0020
0020
0020
ENDCHAR
STARTCHAR FF52
ENCODING 9074
SWIDTH 2400 0
DWIDTH 24 0
BBX 6 12 9 0
BITMAP
DC
F8
E0
C0
C0
C0
C0
C0
C0
C0
C0
C0
ENDCHAR
STARTCHAR FF53
ENCODING 9075
SWIDTH 2400 0
DWIDTH 24 0
BBX 9 12 8 0
BITMAP
3C00
E600
8300
8100
8000
6000
3E00
0300
0180
8180
C100
7F00
ENDCHAR
STARTCHAR FF54
ENCODING 9076
SWIDTH 2400 0
DWIDTH 24 0
BBX 5 15 9 0
BITMAP
20
20
20
F8
20
20
20
20
20
20
20
20
20
20
38
ENDCHAR
STARTCHAR FF55
ENCODING 9077
SWIDTH 2400 0
DWIDTH 24 0
BBX 9 12 7 0
BITMAP
8080
8080
8080
8080
8080
8080
8080
8080
8080
C180
6380
3C80
ENDCHAR
STARTCHAR FF56
ENCODING 9078
SWIDTH 2400 0
DWIDTH 24 0
BBX 10 12 7 0
BITMAP
8040
C0C0
4080
4080
6180
2100
2100
1200
1200
1A00
0C00
0C00
ENDCHAR
STARTCHAR FF57
ENCODING 9079
SWIDTH 2400 0
DWIDTH 24 0
BBX 16 12 4 0
BITMAP
8183
C183
4182
4342
6246
2244
2264
2424
3428
1428
1838
1818
ENDCHAR
STARTCHAR FF58
ENCODING 9080
SWIDTH 2400 0
DWIDTH 24 0
BBX 10 12 7 0
BITMAP
C0C0
6180
2100
1200
1E00
0C00
0C00
1A00
3300
2100
4080
C0C0
ENDCHAR
STARTCHAR FF59
ENCODING 9081
SWIDTH 2400 0
DWIDTH 24 0
BBX 10 16 7 -4
BITMAP
8040
C0C0
4080
4080
2180
2100
3300
1200
1200
1E00
0C00
0C00
0C00
0800
1800
7000
ENDCHAR
STARTCHAR FF5A
ENCODING 9082
SWIDTH 2400 0
DWIDTH 24 0
BBX 10 12 7 0
BITMAP
FF80
0180
0100
0300
0600
0C00
0800
1000
3000
6000
C000
FFC0
ENDCHAR
STARTCHAR FF5B
ENCODING 9083
SWIDTH 2400 0
DWIDTH 24 0
BBX 4 24 10 -5
BITMAP
10
20
20
60
60
60
60
60
60
60
40
80
80
40
60
60
60
60
60
60
60
20
20
10
ENDCHAR
STARTCHAR FF5C
ENCODING 9084
SWIDTH 2400 0
DWIDTH 24 0
BBX 1 23 11 -4
BITMAP
80
80
80
80
80
80
80
80
80
80
80
80
80
80
80
80
80
80
80
80
80
80
80
ENDCHAR
STARTCHAR FF5D
ENCODING 9085
SWIDTH 2400 0
DWIDTH 24 0
BBX 5 23 9 -5
BITMAP
60
20
20
20
20
20
20
20
20
20
10
18
20
20
20
20
20
20
20
20
20
40
80
ENDCHAR
STARTCHAR FFE3
ENCODING 9086
SWIDTH 2400 0
DWIDTH 24 0
BBX 10 1 7 18
BITMAP
FFC0
ENDCHAR
STARTCHAR 3131
ENCODING 9249
SWIDTH 2400 0
DWIDTH 24 0
BBX 15 12 4 1
BITMAP
FFFE
0002
0002
0002
0002
0002
0002
0002
0002
0002
0002
0002
ENDCHAR
STARTCHAR 3132
ENCODING 9250
SWIDTH 2400 0
DWIDTH 24 0
BBX 16 11 4 1
BITMAP
FE7F
0201
0201
0201
0201
0201
0201
0201
0201
0201
0201
ENDCHAR
STARTCHAR 3133
ENCODING 9251
SWIDTH 2400 0
DWIDTH 24 0
BBX 18 12 3 1
BITMAP
FE0400
020400
020400
020400
020400
020E00
020A00
020B00
021100
023180
0220C0
020040
ENDCHAR
STARTCHAR 3134
ENCODING 9252
SWIDTH 2400 0
DWIDTH 24 0
BBX 15 11 5 3
BITMAP
8000
8000
8000
8000
8000
8000
8000
8000
8000
8000
FFFE
ENDCHAR
STARTCHAR 3135
ENCODING 9253
SWIDTH 2400 0
DWIDTH 24 0
BBX 18 12 3 1
BITMAP
807F80
800C00
800C00
800C00
800C00
801E00
801200
803300
802100
804080
9DC0C0
F00000
ENDCHAR
STARTCHAR 3136
ENCODING 9254
SWIDTH 2400 0
DWIDTH 24 0
BBX 18 13 3 0
BITMAP
803E00
800000
800000
81FFC0
800000
801E00
802100
804080
804080
804080
864080
FC2100
001E00
ENDCHAR
STARTCHAR 3137
ENCODING 9255
SWIDTH 2400 0
DWIDTH 24 0
BBX 14 9 5 4
BITMAP
FFFC
8000
8000
8000
8000
8000
8000
8000
FFFC
ENDCHAR
STARTCHAR 3138
ENCODING 9256
SWIDTH 2400 0
DWIDTH 24 0
BBX 18 11 3 2
BITMAP
FE3FC0
802000
802000
802000
802000
802000
802000
802000
802000
FF2000
E03FC0
ENDCHAR
STARTCHAR 3139
ENCODING 9257
SWIDTH 2400 0
DWIDTH 24 0
BBX 15 12 4 1
BITMAP
FFFC
0004
0004
0004
0004
7FFC
4000
4000
4000
4000
4000
7FFE
ENDCHAR
STARTCHAR 313A
ENCODING 9258
SWIDTH 2400 0
DWIDTH 24 0
BBX 17 12 4 1
BITMAP
FE3F80
020080
020080
020080
020080
FE0080
800080
800080
800080
800080
830080
FE0080
ENDCHAR
STARTCHAR 313B
ENCODING 9259
SWIDTH 2400 0
DWIDTH 24 0
BBX 16 12 4 1
BITMAP
FE3F
0221
0221
0221
0221
FE21
8021
8021
8021
8021
873F
FC21
ENDCHAR
STARTCHAR 313C
ENCODING 9260
SWIDTH 2400 0
DWIDTH 24 0
BBX 17 12 3 1
BITMAP
FE2080
022080
022080
022080
023F80
FE2080
802080
802080
802080
802080
8F2080
FC3F80
ENDCHAR
STARTCHAR 313D
ENCODING 9261
SWIDTH 2400 0
DWIDTH 24 0
BBX 18 12 3 1
BITMAP
FE0400
020400
020400
020400
020400
FE0C00
800A00
800A00
801900
801180
8F20C0
FC2040
ENDCHAR
STARTCHAR 313E
ENCODING 9262
SWIDTH 2400 0
DWIDTH 24 0
BBX 18 12 3 1
BITMAP
FE3F80
022000
022000
022000
022000
FE3F80
802000
802000
802000
802000
832000
FE3FC0
ENDCHAR
STARTCHAR 313F
ENCODING 9263
SWIDTH 2400 0
DWIDTH 24 0
BBX 18 12 3 1
BITMAP
FE7FC0
020000
020000
022100
022100
FE2100
802100
803300
803200
801200
9EFFC0
F00000
ENDCHAR
STARTCHAR 3140
ENCODING 9264
SWIDTH 2400 0
DWIDTH 24 0
BBX 20 13 2 0
BITMAP
FE0F80
020000
020000
027FF0
020000
7E0F00
401080
402040
402040
402040
43A040
7E1080
000F00
ENDCHAR
STARTCHAR 3141
ENCODING 9265
SWIDTH 2400 0
DWIDTH 24 0
BBX 14 12 5 1
BITMAP
FFFC
8004
8004
8004
8004
8004
8004
8004
8004
8004
FFFC
8000
ENDCHAR
STARTCHAR 3142
ENCODING 9266
SWIDTH 2400 0
DWIDTH 24 0
BBX 14 12 5 1
BITMAP
8004
8004
8004
8004
FFFC
8004
8004
8004
8004
8004
FFFC
8004
ENDCHAR
STARTCHAR 3143
ENCODING 9267
SWIDTH 2400 0
DWIDTH 24 0
BBX 17 11 3 2
BITMAP
821080
821080
821080
821080
FE1F80
821080
821080
821080
821080
821080
FE1F80
ENDCHAR
STARTCHAR 3144
ENCODING 9268
SWIDTH 2400 0
DWIDTH 24 0
BBX 18 12 3 1
BITMAP
820400
820400
820400
820400
FE0400
820600
820A00
820A00
821900
821180
FE20C0
006040
ENDCHAR
STARTCHAR 3145
ENCODING 9269
SWIDTH 2400 0
DWIDTH 24 0
BBX 18 13 3 0
BITMAP
00C000
00C000
00C000
00C000
00C000
01E000
012000
023000
061800
0C0C00
380600
600180
C000C0
ENDCHAR
STARTCHAR 3146
ENCODING 9270
SWIDTH 2400 0
DWIDTH 24 0
BBX 16 12 4 1
BITMAP
0810
0810
0810
0810
1818
1418
1428
2224
6364
C0C2
8083
0101
ENDCHAR
STARTCHAR 3147
ENCODING 9271
SWIDTH 2400 0
DWIDTH 24 0
BBX 14 12 5 1
BITMAP
0FC0
3030
4008
C00C
8004
8004
8004
8004
C00C
4008
3030
0FC0
ENDCHAR
STARTCHAR 3148
ENCODING 9272
SWIDTH 2400 0
DWIDTH 24 0
BBX 16 12 4 1
BITMAP
FFFE
0180
0180
0180
03C0
0240
0420
0C30
1818
300C
E007
8001
ENDCHAR
STARTCHAR 3149
ENCODING 9273
SWIDTH 2400 0
DWIDTH 24 0
BBX 16 12 4 1
BITMAP
FEFE
1810
1810
1810
1818
1C28
2428
226C
4244
C0C2
8183
0100
ENDCHAR
STARTCHAR 314A
ENCODING 9274
SWIDTH 2400 0
DWIDTH 24 0
BBX 16 13 4 1
BITMAP
0FF0
0000
0000
0000
7FFF
0180
0180
03C0
0260
0430
1818
7006
C001
ENDCHAR
STARTCHAR 314B
ENCODING 9275
SWIDTH 2400 0
DWIDTH 24 0
BBX 15 12 4 1
BITMAP
FFFE
0002
0002
0002
0002
03F2
7F02
0002
0006
0006
0004
0004
ENDCHAR
STARTCHAR 314C
ENCODING 9276
SWIDTH 2400 0
DWIDTH 24 0
BBX 14 11 5 2
BITMAP
FFFC
8000
8000
8000
8000
FFFC
8000
8000
8000
8000
FFFC
ENDCHAR
STARTCHAR 314D
ENCODING 9277
SWIDTH 2400 0
DWIDTH 24 0
BBX 16 11 4 2
BITMAP
7FFE
0000
0000
0000
1008
1818
1810
0810
0810
0810
FFFF
ENDCHAR
STARTCHAR 314E
ENCODING 9278
SWIDTH 2400 0
DWIDTH 24 0
BBX 16 13 4 1
BITMAP
0FF0
0000
0000
FFFF
0000
0000
07F0
0818
1004
1004
1004
0808
07F0
ENDCHAR
STARTCHAR 314F
ENCODING 9279
SWIDTH 2400 0
DWIDTH 24 0
BBX 7 21 9 -3
BITMAP
80
80
80
80
80
80
80
80
80
80
FE
80
80
80
80
80
80
80
80
80
80
ENDCHAR
STARTCHAR 3150
ENCODING 9280
SWIDTH 2400 0
DWIDTH 24 0
BBX 8 21 8 -3
BITMAP
01
81
81
81
81
81
81
81
81
81
FF
81
81
81
81
81
81
81
81
81
01
ENDCHAR
STARTCHAR 3151
ENCODING 9281
SWIDTH 2400 0
DWIDTH 24 0
BBX 7 21 9 -3
BITMAP
80
80
80
80
80
80
80
FE
80
80
80
80
80
80
FE
80
80
80
80
80
80
ENDCHAR
STARTCHAR 3152
ENCODING 9282
SWIDTH 2400 0
DWIDTH 24 0
BBX 8 21 8 -3
BITMAP
01
81
81
81
81
81
81
FF
81
81
81
81
FF
81
81
81
81
81
81
81
01
ENDCHAR
STARTCHAR 3153
ENCODING 9283
SWIDTH 2400 0
DWIDTH 24 0
BBX 8 21 8 -3
BITMAP
01
01
01
01
01
01
01
01
01
FF
01
01
01
01
01
01
01
01
01
01
01
ENDCHAR
STARTCHAR 3154
ENCODING 9284
SWIDTH 2400 0
DWIDTH 24 0
BBX 12 21 6 -3
BITMAP
0010
0210
0210
0210
0210
0210
0210
0210
0210
FE10
0210
0210
0210
0210
0210
0210
0210
0210
0210
0010
0010
ENDCHAR
STARTCHAR 3155
ENCODING 9285
SWIDTH 2400 0
DWIDTH 24 0
BBX 9 21 7 -3
BITMAP
0080
0080
0080
0080
0080
0080
0080
FF80
0080
0080
0080
0080
0080
FF80
0080
0080
0080
0080
0080
0080
0080
ENDCHAR
STARTCHAR 3156
ENCODING 9286
SWIDTH 2400 0
DWIDTH 24 0
BBX 12 21 6 -3
BITMAP
0010
0010
0210
0210
0210
0210
0210
FE10
0210
0210
0210
0210
0210
FE10
0210
0210
0210
0210
0210
0210
0010
ENDCHAR
STARTCHAR 3157
ENCODING 9287
SWIDTH 2400 0
DWIDTH 24 0
BBX 19 11 2 2
BITMAP
004000
004000
004000
004000
004000
004000
004000
004000
004000
004000
FFFFE0
ENDCHAR
STARTCHAR 3158
ENCODING 9288
SWIDTH 2400 0
DWIDTH 24 0
BBX 20 21 2 -3
BITMAP
000200
000200
000200
000200
000200
020200
020200
020200
020200
020200
0203F0
020200
020200
02FE00
FFC200
000200
000200
000200
000200
000200
000200
ENDCHAR
STARTCHAR 3159
ENCODING 9289
SWIDTH 2400 0
DWIDTH 24 0
BBX 18 21 3 -3
BITMAP
000040
000840
000840
000840
000840
040840
040840
040840
040840
040840
040FC0
040840
041840
FFE840
800840
000840
000840
000840
000840
000040
000040
ENDCHAR
STARTCHAR 315A
ENCODING 9290
SWIDTH 2400 0
DWIDTH 24 0
BBX 17 21 3 -3
BITMAP
000080
000080
000080
000080
000080
010080
010080
010080
010080
010080
010080
010080
010080
010780
0FF880
F00080
000080
000080
000080
000080
000080
ENDCHAR
STARTCHAR 315B
ENCODING 9291
SWIDTH 2400 0
DWIDTH 24 0
BBX 20 10 2 3
BITMAP
060200
060200
060200
060600
020600
020400
030400
030400
030400
FFFFF0
ENDCHAR
STARTCHAR 315C
ENCODING 9292
SWIDTH 2400 0
DWIDTH 24 0
BBX 19 15 3 -3
BITMAP
FFFFE0
004000
004000
004000
004000
004000
004000
004000
004000
004000
004000
004000
004000
004000
004000
ENDCHAR
STARTCHAR 315D
ENCODING 9293
SWIDTH 2400 0
DWIDTH 24 0
BBX 17 21 3 -3
BITMAP
000080
000080
000080
000080
000080
000080
FFFC80
610080
010080
010080
010080
011F80
010080
010080
010080
010080
010080
010080
000080
000080
000080
ENDCHAR
STARTCHAR 315E
ENCODING 9294
SWIDTH 2400 0
DWIDTH 24 0
BBX 18 21 3 -3
BITMAP
000040
000440
000440
000440
000440
000440
03C440
FC0440
040440
040440
040440
047C40
040440
040440
040440
040440
040440
000440
000440
000440
000040
ENDCHAR
STARTCHAR 315F
ENCODING 9295
SWIDTH 2400 0
DWIDTH 24 0
BBX 17 21 3 -3
BITMAP
000080
000080
000080
000080
000080
000080
000780
FFF880
008080
008080
008080
008080
008080
008080
008080
008080
008080
008080
000080
000080
000080
ENDCHAR
STARTCHAR 3160
ENCODING 9296
SWIDTH 2400 0
DWIDTH 24 0
BBX 20 15 2 -3
BITMAP
FFFFF0
020400
020400
020400
020400
020400
020400
020400
020400
020400
020400
020400
020400
020400
020400
ENDCHAR
STARTCHAR 3161
ENCODING 9297
SWIDTH 2400 0
DWIDTH 24 0
BBX 20 1 2 7
BITMAP
FFFFF0
ENDCHAR
STARTCHAR 3162
ENCODING 9298
SWIDTH 2400 0
DWIDTH 24 0
BBX 17 21 3 -3
BITMAP
000080
000080
000080
000080
000080
000080
000080
000080
000080
000080
000080
000780
03F880
FE0080
000080
000080
000080
000080
000080
000080
000080
ENDCHAR
STARTCHAR 3163
ENCODING 9299
SWIDTH 2400 0
DWIDTH 24 0
BBX 1 21 11 -3
BITMAP
80
80
80
80
80
80
80
80
80
80
80
80
80
80
80
80
80
80
80
80
80
ENDCHAR
STARTCHAR 3164
ENCODING 9300
SWIDTH 2400 0
DWIDTH 24 0
BBX 0 0 0 0
BITMAP
ENDCHAR
STARTCHAR 3165
ENCODING 9301
SWIDTH 2400 0
DWIDTH 24 0
BBX 18 11 3 2
BITMAP
804000
804000
804000
804000
804000
804000
804000
804000
804000
874000
FE7FC0
ENDCHAR
STARTCHAR 3166
ENCODING 9302
SWIDTH 2400 0
DWIDTH 24 0
BBX 17 11 3 2
BITMAP
807F80
804000
804000
804000
804000
804000
804000
804000
804000
804000
FE7F80
ENDCHAR
STARTCHAR 3167
ENCODING 9303
SWIDTH 2400 0
DWIDTH 24 0
BBX 18 12 3 1
BITMAP
800400
800400
800400
800400
800400
800400
800A00
800A00
801100
803180
FF20C0
E04040
ENDCHAR
STARTCHAR 3168
ENCODING 9304
SWIDTH 2400 0
DWIDTH 24 0
BBX 18 11 3 2
BITMAP
800800
800C00
801400
801600
803200
802300
802100
804180
804080
80C0C0
FEFFC0
ENDCHAR
STARTCHAR 3169
ENCODING 9305
SWIDTH 2400 0
DWIDTH 24 0
BBX 18 12 3 1
BITMAP
FBE300
082200
082200
082200
082300
F82300
802300
802700
802480
802C80
8E2840
F80840
ENDCHAR
STARTCHAR 316A
ENCODING 9306
SWIDTH 2400 0
DWIDTH 24 0
BBX 18 12 3 1
BITMAP
FE3F80
022000
022000
022000
022000
FE2000
802000
802000
802000
802000
812000
FE3FC0
ENDCHAR
STARTCHAR 316B
ENCODING 9307
SWIDTH 2400 0
DWIDTH 24 0
BBX 19 12 2 1
BITMAP
F91000
091080
091080
091080
09F080
791080
4110C0
411140
411140
411160
7FF220
000200
ENDCHAR
STARTCHAR 316C
ENCODING 9308
SWIDTH 2400 0
DWIDTH 24 0
BBX 18 12 3 1
BITMAP
FE0600
020400
020E00
020A00
020B00
FE1B00
801100
801180
803080
802080
9F20C0
F87FC0
ENDCHAR
STARTCHAR 316D
ENCODING 9309
SWIDTH 2400 0
DWIDTH 24 0
BBX 19 12 3 1
BITMAP
FEFFE0
020000
020000
020400
021B00
FE3100
802080
802080
802080
812080
FE1100
000E00
ENDCHAR
STARTCHAR 316E
ENCODING 9310
SWIDTH 2400 0
DWIDTH 24 0
BBX 18 12 3 1
BITMAP
000040
FE2040
822040
822040
823FC0
822040
822040
822040
822040
822040
FE3FC0
800000
ENDCHAR
STARTCHAR 316F
ENCODING 9311
SWIDTH 2400 0
DWIDTH 24 0
BBX 18 12 3 1
BITMAP
000C00
FE0C00
820C00
820C00
820C00
820C00
821A00
821200
822100
826080
FEC0C0
820000
ENDCHAR
STARTCHAR 3170
ENCODING 9312
SWIDTH 2400 0
DWIDTH 24 0
BBX 18 12 3 1
BITMAP
000400
FE0400
820A00
820A00
821B00
821100
821100
822180
822080
8260C0
FE7FC0
820000
ENDCHAR
STARTCHAR 3171
ENCODING 9313
SWIDTH 2400 0
DWIDTH 24 0
BBX 10 16 7 -1
BITMAP
FFC0
8040
8040
8040
8040
8040
FFC0
0000
3F00
E1C0
8040
8040
8040
8040
E180
3F00
ENDCHAR
STARTCHAR 3172
ENCODING 9314
SWIDTH 2400 0
DWIDTH 24 0
BBX 18 12 3 1
BITMAP
013FC0
810040
810040
810040
FF0040
810040
810040
810040
810040
810040
FF0040
000040
ENDCHAR
STARTCHAR 3173
ENCODING 9315
SWIDTH 2400 0
DWIDTH 24 0
BBX 18 11 3 2
BITMAP
020000
823F80
822000
822000
FE2000
822000
822000
822000
822000
822000
FE3FC0
ENDCHAR
STARTCHAR 3174
ENCODING 9316
SWIDTH 2400 0
DWIDTH 24 0
BBX 18 12 3 1
BITMAP
0427C0
842040
842040
846040
FC6040
846040
845040
84D040
848840
850C40
FD0440
000040
ENDCHAR
STARTCHAR 3175
ENCODING 9317
SWIDTH 2400 0
DWIDTH 24 0
BBX 19 12 3 1
BITMAP
8887C0
888400
888400
888400
F88400
888400
894400
894400
894400
8A6400
8E27E0
F82000
ENDCHAR
STARTCHAR 3176
ENCODING 9318
SWIDTH 2400 0
DWIDTH 24 0
BBX 19 12 2 1
BITMAP
813FE0
810200
810200
810200
FF0700
810500
810D00
810980
811880
813040
FF2060
004020
ENDCHAR
STARTCHAR 3177
ENCODING 9319
SWIDTH 2400 0
DWIDTH 24 0
BBX 18 11 3 2
BITMAP
823FC0
822000
822000
822000
FE2000
823F80
822000
822000
822000
822000
FE3FC0
ENDCHAR
STARTCHAR 3178
ENCODING 9320
SWIDTH 2400 0
DWIDTH 24 0
BBX 10 20 7 -3
BITMAP
8040
8040
8040
FFC0
8040
8040
8040
8040
FFC0
0000
0000
3F00
6180
C0C0
8040
8040
8040
C0C0
6180
3E00
ENDCHAR
STARTCHAR 3179
ENCODING 9321
SWIDTH 2400 0
DWIDTH 24 0
BBX 15 20 4 -3
BITMAP
8242
8242
8242
FE7E
8242
8242
8242
8242
FE7E
0000
0000
07E0
0C30
1818
1008
1008
1008
1818
0C30
03E0
ENDCHAR
STARTCHAR 317A
ENCODING 9322
SWIDTH 2400 0
DWIDTH 24 0
BBX 18 12 3 1
BITMAP
043FC0
040040
040040
040040
040040
0E0040
0A0040
1B0040
118040
20C040
E06040
802000
ENDCHAR
STARTCHAR 317B
ENCODING 9323
SWIDTH 2400 0
DWIDTH 24 0
BBX 20 11 2 2
BITMAP
040800
040800
040800
0C0800
0C0800
0E0800
1A0800
130800
218800
E0C800
004FF0
ENDCHAR
STARTCHAR 317C
ENCODING 9324
SWIDTH 2400 0
DWIDTH 24 0
BBX 18 12 3 1
BITMAP
183FC0
182000
182000
182000
182000
182000
3C2000
242000
662000
422000
813FC0
810000
ENDCHAR
STARTCHAR 317D
ENCODING 9325
SWIDTH 2400 0
DWIDTH 24 0
BBX 18 11 3 2
BITMAP
081040
081040
081040
081040
181FC0
181040
141040
261040
621040
C11040
809FC0
ENDCHAR
STARTCHAR 317E
ENCODING 9326
SWIDTH 2400 0
DWIDTH 24 0
BBX 20 11 2 2
BITMAP
081FF0
080300
080300
080300
080300
140380
140480
360CC0
220860
411820
80B010
ENDCHAR
STARTCHAR 317F
ENCODING 9327
SWIDTH 2400 0
DWIDTH 24 0
BBX 16 13 4 1
BITMAP
0180
0180
03C0
0240
0660
0C20
0C30
1818
1008
300C
2004
6006
FFFF
ENDCHAR
STARTCHAR 3180
ENCODING 9328
SWIDTH 2400 0
DWIDTH 24 0
BBX 20 12 2 1
BITMAP
1E0780
230860
419820
409020
C09030
C09030
C09030
C09030
C09020
419020
610860
3E0FC0
ENDCHAR
STARTCHAR 3181
ENCODING 9329
SWIDTH 2400 0
DWIDTH 24 0
BBX 12 12 6 2
BITMAP
0600
0600
0F00
30C0
4020
8010
8010
8010
8010
4020
60E0
1F80
ENDCHAR
STARTCHAR 3182
ENCODING 9330
SWIDTH 2400 0
DWIDTH 24 0
BBX 19 13 2 1
BITMAP
0C0000
080200
1C0200
330200
610200
608700
C08500
C08500
C08C80
4088C0
611860
333020
1E0000
ENDCHAR
STARTCHAR 3183
ENCODING 9331
SWIDTH 2400 0
DWIDTH 24 0
BBX 18 13 3 1
BITMAP
180000
180400
3C0C00
660E00
C21A00
811200
811100
812100
812080
816080
4240C0
46FFC0
3C0000
ENDCHAR
STARTCHAR 3184
ENCODING 9332
SWIDTH 2400 0
DWIDTH 24 0
BBX 16 19 4 -3
BITMAP
7FFE
0000
0000
0810
0810
0810
0830
FFFF
0000
0000
07E0
0810
1818
1008
1008
1008
1818
0C30
03C0
ENDCHAR
STARTCHAR 3185
ENCODING 9333
SWIDTH 2400 0
DWIDTH 24 0
BBX 22 14 1 0
BITMAP
1F87E0
000000
000000
FFE000
001FFC
000000
0F03C0
308420
20CC10
204810
204810
20CC10
308420
1F03C0
ENDCHAR
STARTCHAR 3186
ENCODING 9334
SWIDTH 2400 0
DWIDTH 24 0
BBX 20 14 2 -1
BITMAP
FFFFF0
000000
000000
000000
01F800
030C00
060600
040200
040200
040200
040200
060600
030C00
01F800
ENDCHAR
STARTCHAR 3187
ENCODING 9335
SWIDTH 2400 0
DWIDTH 24 0
BBX 20 20 2 -3
BITMAP
000100
000100
000100
000100
084100
084100
084100
0841F0
084100
084100
084100
084100
084100
0FFFF0
FF0100
000100
000100
000100
000100
000100
ENDCHAR
STARTCHAR 3188
ENCODING 9336
SWIDTH 2400 0
DWIDTH 24 0
BBX 16 20 4 -3
BITMAP
0001
0009
0009
0009
0009
1109
110F
1109
1109
1109
1109
110F
13F9
FC09
0009
0009
0009
0009
0001
0001
ENDCHAR
STARTCHAR 3189
ENCODING 9337
SWIDTH 2400 0
DWIDTH 24 0
BBX 16 20 4 -3
BITMAP
0001
0001
0001
0001
0841
0841
0841
0841
0841
0841
0841
0841
0841
FFFF
8001
0001
0001
0001
0001
0001
ENDCHAR
STARTCHAR 318A
ENCODING 9338
SWIDTH 2400 0
DWIDTH 24 0
BBX 18 20 3 -3
BITMAP
000040
000040
000040
000040
000040
FFFC40
042040
042040
0427C0
042040
042040
042040
0427C0
042040
042040
042040
042040
000040
000040
000040
ENDCHAR
STARTCHAR 318B
ENCODING 9339
SWIDTH 2400 0
DWIDTH 24 0
BBX 18 20 3 -3
BITMAP
000440
000440
000440
000440
000440
002440
FFC440
088440
08BC40
088440
088440
088440
08BC40
088440
088440
088440
000440
000440
000040
000040
ENDCHAR
STARTCHAR 318C
ENCODING 9340
SWIDTH 2400 0
DWIDTH 24 0
BBX 16 20 4 -3
BITMAP
0001
0001
0001
0001
0001
0001
001F
FFE1
0841
0841
0841
0841
0841
0841
0841
0841
0841
0001
0001
0001
ENDCHAR
STARTCHAR 318D
ENCODING 9341
SWIDTH 2400 0
DWIDTH 24 0
BBX 4 4 10 5
BITMAP
F0
F0
F0
F0
ENDCHAR
STARTCHAR 318E
ENCODING 9342
SWIDTH 2400 0
DWIDTH 24 0
BBX 12 20 6 -3
BITMAP
0010
0010
0010
0010
0010
0010
0010
0010
E010
E010
E010
0010
0010
0010
0010
0010
0010
0010
0010
0010
ENDCHAR
STARTCHAR 2170
ENCODING 9505
SWIDTH 2400 0
DWIDTH 24 0
BBX 2 17 11 0
BITMAP
C0
C0
00
00
00
00
00
80
80
80
80
80
80
80
80
80
80
ENDCHAR
STARTCHAR 2171
ENCODING 9506
SWIDTH 2400 0
DWIDTH 24 0
BBX 10 17 7 0
BITMAP
C0C0
C0C0
0000
0000
0000
0000
0000
C080
C080
C080
C080
C080
C080
C080
C080
C080
C080
ENDCHAR
STARTCHAR 2172
ENCODING 9507
SWIDTH 2400 0
DWIDTH 24 0
BBX 14 17 5 0
BITMAP
C30C
C30C
0000
0000
0000
0000
0000
C308
C308
C308
C308
C308
C308
C308
C308
C308
C308
ENDCHAR
STARTCHAR 2173
ENCODING 9508
SWIDTH 2400 0
DWIDTH 24 0
BBX 12 17 6 0
BITMAP
C000
C000
0000
0000
0000
0000
0000
CC10
C410
C430
C620
C220
C340
C140
C140
C080
C080
ENDCHAR
STARTCHAR 2174
ENCODING 9509
SWIDTH 2400 0
DWIDTH 24 0
BBX 10 10 7 1
BITMAP
C0C0
4080
6180
2100
2100
3300
1200
1E00
0C00
0C00
ENDCHAR
STARTCHAR 2175
ENCODING 9510
SWIDTH 2400 0
DWIDTH 24 0
BBX 14 17 5 0
BITMAP
000C
000C
0000
0000
0000
0000
C10C
C30C
420C
620C
660C
240C
240C
1C0C
180C
180C
080C
ENDCHAR
STARTCHAR 2176
ENCODING 9511
SWIDTH 2400 0
DWIDTH 24 0
BBX 16 17 4 0
BITMAP
0033
0033
0000
0000
0000
0000
0000
8631
C431
4431
4C31
4831
2831
2831
3031
1031
1031
ENDCHAR
STARTCHAR 2177
ENCODING 9512
SWIDTH 2400 0
DWIDTH 24 0
BBX 18 17 3 0
BITMAP
0066C0
0066C0
000000
000000
000000
000000
000000
8644C0
8444C0
C444C0
4C44C0
4844C0
6844C0
2844C0
3044C0
3044C0
1044C0
ENDCHAR
STARTCHAR 2178
ENCODING 9513
SWIDTH 2400 0
DWIDTH 24 0
BBX 13 17 5 0
BITMAP
C000
C000
0000
0000
0000
0000
0000
C318
C318
C1B0
C0A0
C0E0
C0E0
C0A0
C130
C318
C208
ENDCHAR
STARTCHAR 2179
ENCODING 9514
SWIDTH 2400 0
DWIDTH 24 0
BBX 8 10 8 0
BITMAP
C1
42
66
3C
18
18
34
66
C3
81
ENDCHAR
STARTCHAR 2160
ENCODING 9520
SWIDTH 2400 0
DWIDTH 24 0
BBX 2 17 11 0
BITMAP
C0
C0
C0
C0
C0
C0
C0
C0
C0
C0
C0
C0
C0
C0
C0
C0
C0
ENDCHAR
STARTCHAR 2161
ENCODING 9521
SWIDTH 2400 0
DWIDTH 24 0
BBX 10 17 7 0
BITMAP
C0C0
C0C0
C0C0
C0C0
C0C0
C0C0
C0C0
C0C0
C0C0
C0C0
C0C0
C0C0
C0C0
C0C0
C0C0
C0C0
C0C0
ENDCHAR
STARTCHAR 2162
ENCODING 9522
SWIDTH 2400 0
DWIDTH 24 0
BBX 14 17 5 0
BITMAP
C30C
C30C
C30C
C30C
C30C
C30C
C30C
C30C
C30C
C30C
C30C
C30C
C30C
C30C
C30C
C30C
C30C
ENDCHAR
STARTCHAR 2163
ENCODING 9523
SWIDTH 2400 0
DWIDTH 24 0
BBX 14 17 5 0
BITMAP
C804
CC0C
CC0C
C408
C408
C618
C210
C210
C310
C130
C120
C120
C1E0
C0C0
C0C0
C0C0
C040
ENDCHAR
STARTCHAR 2164
ENCODING 9524
SWIDTH 2400 0
DWIDTH 24 0
BBX 10 17 7 0
BITMAP
8040
C0C0
4080
4080
6180
6180
2100
2100
3300
1300
1200
1A00
1E00
0C00
0C00
0C00
0400
ENDCHAR
STARTCHAR 2165
ENCODING 9525
SWIDTH 2400 0
DWIDTH 24 0
BBX 14 17 5 0
BITMAP
804C
C0CC
40CC
408C
608C
618C
210C
210C
330C
130C
120C
1A0C
0E0C
0C0C
0C0C
0C0C
040C
ENDCHAR
STARTCHAR 2166
ENCODING 9526
SWIDTH 2400 0
DWIDTH 24 0
BBX 18 17 3 0
BITMAP
C0CCC0
40CCC0
408CC0
608CC0
608CC0
218CC0
210CC0
310CC0
110CC0
130CC0
120CC0
1A0CC0
0A0CC0
0E0CC0
0C0CC0
040CC0
040CC0
ENDCHAR
STARTCHAR 2167
ENCODING 9527
SWIDTH 2400 0
DWIDTH 24 0
BBX 20 17 2 0
BITMAP
C1B330
413330
413330
613330
633330
223330
223330
223330
323330
363330
143330
143330
143330
143330
083330
083330
083330
ENDCHAR
STARTCHAR 2168
ENCODING 9528
SWIDTH 2400 0
DWIDTH 24 0
BBX 14 17 5 0
BITMAP
CC0C
C608
C618
C310
C330
C1A0
C1E0
C0E0
C0C0
C0C0
C0E0
C1A0
C130
C310
C218
C608
C40C
ENDCHAR
STARTCHAR 2169
ENCODING 9529
SWIDTH 2400 0
DWIDTH 24 0
BBX 10 17 7 0
BITMAP
C080
6180
6100
2300
3300
1200
1E00
0C00
0C00
0C00
1E00
1200
3300
2100
6180
4180
C0C0
ENDCHAR
STARTCHAR 0391
ENCODING 9537
SWIDTH 2400 0
DWIDTH 24 0
BBX 15 17 5 0
BITMAP
0018
0028
0068
0048
008C
018C
030C
020C
040C
0C04
1804
1FFC
2006
6006
C006
8006
0006
ENDCHAR
STARTCHAR 0392
ENCODING 9538
SWIDTH 2400 0
DWIDTH 24 0
BBX 14 17 5 0
BITMAP
07F8
0C0C
0C04
0804
1804
1804
1008
3010
3FE0
2030
2018
6018
6018
4010
C030
C060
FF80
ENDCHAR
STARTCHAR 0393
ENCODING 9539
SWIDTH 2400 0
DWIDTH 24 0
BBX 14 17 5 0
BITMAP
07FC
0400
0C00
0C00
0800
1800
1800
1000
1000
3000
2000
2000
6000
6000
4000
C000
C000
ENDCHAR
STARTCHAR 0394
ENCODING 9540
SWIDTH 2400 0
DWIDTH 24 0
BBX 16 17 5 0
BITMAP
000C
001C
002C
004C
004C
008E
010E
020E
020E
040E
0806
0806
1006
2006
4006
4006
FFFF
ENDCHAR
STARTCHAR 0395
ENCODING 9541
SWIDTH 2400 0
DWIDTH 24 0
BBX 14 17 5 0
BITMAP
07FC
0C00
0800
0800
1800
1800
1000
3000
3FF0
2000
2000
6000
4000
4000
C000
C000
FFC0
ENDCHAR
STARTCHAR 0396
ENCODING 9542
SWIDTH 2400 0
DWIDTH 24 0
BBX 16 17 4 0
BITMAP
0FFF
0003
0006
000C
0018
0030
0060
00C0
0180
0300
0600
0C00
1800
3000
6000
C000
FFF8
ENDCHAR
STARTCHAR 0397
ENCODING 9543
SWIDTH 2400 0
DWIDTH 24 0
BBX 18 17 3 0
BITMAP
0600C0
040080
040080
0C0180
0C0100
080100
180300
180300
1FFE00
100600
300600
200400
200400
600C00
400800
400800
C01800
ENDCHAR
STARTCHAR 0398
ENCODING 9544
SWIDTH 2400 0
DWIDTH 24 0
BBX 14 17 5 0
BITMAP
03E0
0E38
1808
300C
2004
6004
4004
C004
CFEC
800C
800C
8008
8018
8030
C020
60C0
3F80
ENDCHAR
STARTCHAR 0399
ENCODING 9545
SWIDTH 2400 0
DWIDTH 24 0
BBX 6 17 9 0
BITMAP
04
0C
0C
08
18
18
10
10
30
20
20
60
40
40
C0
C0
80
ENDCHAR
STARTCHAR 039A
ENCODING 9546
SWIDTH 2400 0
DWIDTH 24 0
BBX 16 17 4 0
BITMAP
0403
040C
0C18
0830
08C0
1980
1B00
1C00
3C00
3600
2300
6180
60C0
4040
4060
C030
8018
ENDCHAR
STARTCHAR 039B
ENCODING 9547
SWIDTH 2400 0
DWIDTH 24 0
BBX 16 17 4 0
BITMAP
0018
0028
0068
004C
00CC
018C
010C
0304
0604
0404
0C06
0806
1806
3006
2002
6002
C003
ENDCHAR
STARTCHAR 039C
ENCODING 9548
SWIDTH 2400 0
DWIDTH 24 0
BBX 23 17 0 0
BITMAP
07801E
07801C
058034
0D802C
0D806C
0980C8
198088
198198
11C310
11C210
30C630
20CC30
20C820
60D820
40F060
40E040
C0E040
ENDCHAR
STARTCHAR 039D
ENCODING 9549
SWIDTH 2400 0
DWIDTH 24 0
BBX 18 17 3 0
BITMAP
060040
0F00C0
0F0080
090080
098180
198100
188100
108300
30C300
30C200
204600
606600
606400
402400
402C00
C03800
C03800
ENDCHAR
STARTCHAR 039E
ENCODING 9550
SWIDTH 2400 0
DWIDTH 24 0
BBX 14 17 5 0
BITMAP
0FFC
0000
0000
0000
0000
0000
0000
0000
1FF0
0000
0000
0000
0000
0000
0000
0000
FFC0
ENDCHAR
STARTCHAR 039F
ENCODING 9551
SWIDTH 2400 0
DWIDTH 24 0
BBX 14 17 5 0
BITMAP
03E0
0C38
1808
300C
2004
6004
4004
C004
C00C
800C
8008
8018
8018
8030
C030
60E0
3F80
ENDCHAR
STARTCHAR 03A0
ENCODING 9552
SWIDTH 2400 0
DWIDTH 24 0
BBX 18 17 3 0
BITMAP
07FFC0
060080
040180
0C0180
0C0100
080300
180300
180200
100200
100600
300400
200400
200C00
600C00
400800
401800
C01800
ENDCHAR
STARTCHAR 03A1
ENCODING 9553
SWIDTH 2400 0
DWIDTH 24 0
BBX 16 17 4 0
BITMAP
07F8
0406
0402
0C03
0C03
0802
1802
1806
100C
1FF0
3000
2000
2000
6000
6000
4000
C000
ENDCHAR
STARTCHAR 03A3
ENCODING 9554
SWIDTH 2400 0
DWIDTH 24 0
BBX 16 17 4 0
BITMAP
07FF
0400
0600
0300
0300
0180
0080
00C0
00C0
0180
0300
0600
0800
1000
6000
4000
FFE0
ENDCHAR
STARTCHAR 03A4
ENCODING 9555
SWIDTH 2400 0
DWIDTH 24 0
BBX 12 17 6 0
BITMAP
FFF0
0600
0400
0400
0C00
0C00
0800
0800
1800
1000
1000
3000
2000
2000
6000
6000
4000
ENDCHAR
STARTCHAR 03A5
ENCODING 9556
SWIDTH 2400 0
DWIDTH 24 0
BBX 14 17 5 0
BITMAP
C00C
C008
4010
6020
6040
20C0
3180
1100
1A00
1C00
0C00
0800
1800
1000
1000
3000
3000
ENDCHAR
STARTCHAR 03A6
ENCODING 9557
SWIDTH 2400 0
DWIDTH 24 0
BBX 16 17 4 0
BITMAP
0020
0060
0FFC
1846
30C3
60C1
C081
C181
8181
8103
8102
8306
C20C
6218
3FF0
0700
0400
ENDCHAR
STARTCHAR 03A7
ENCODING 9558
SWIDTH 2400 0
DWIDTH 24 0
BBX 16 17 4 0
BITMAP
1801
0802
0C04
040C
0618
0230
0360
01C0
0180
0380
06C0
0C40
1860
3030
2030
4018
8018
ENDCHAR
STARTCHAR 03A8
ENCODING 9559
SWIDTH 2400 0
DWIDTH 24 0
BBX 18 17 3 0
BITMAP
6040C0
604180
60C180
408100
408100
C18300
818300
810200
830600
C30400
723800
1FE000
060000
040000
040000
0C0000
0C0000
ENDCHAR
STARTCHAR 03A9
ENCODING 9560
SWIDTH 2400 0
DWIDTH 24 0
BBX 16 17 4 0
BITMAP
00F8
0306
0403
0801
1801
1001
1001
3001
3003
3003
3006
100E
181C
0EF0
04C0
0480
FCFC
ENDCHAR
STARTCHAR 03B1
ENCODING 9569
SWIDTH 2400 0
DWIDTH 24 0
BBX 12 12 6 0
BITMAP
0710
1CB0
3060
6060
4060
C060
C040
80C0
80C0
C180
C280
7C80
ENDCHAR
STARTCHAR 03B2
ENCODING 9570
SWIDTH 2400 0
DWIDTH 24 0
BBX 14 21 5 -4
BITMAP
00F0
0388
0304
0604
0604
0408
0C30
0CC0
0C30
1818
1808
1808
3008
3010
3010
6820
67C0
4000
C000
C000
8000
ENDCHAR
STARTCHAR 03B3
ENCODING 9571
SWIDTH 2400 0
DWIDTH 24 0
BBX 10 16 7 -5
BITMAP
80C0
8080
8180
C100
C200
C600
4400
4C00
5800
5000
7000
6000
6000
E000
C000
C000
ENDCHAR
STARTCHAR 03B4
ENCODING 9572
SWIDTH 2400 0
DWIDTH 24 0
BBX 14 17 5 0
BITMAP
03FC
0300
0100
0180
00C0
07C0
1CE0
3020
6030
6020
4020
C020
C060
C040
C0C0
4180
3E00
ENDCHAR
STARTCHAR 03B5
ENCODING 9573
SWIDTH 2400 0
DWIDTH 24 0
BBX 10 12 7 0
BITMAP
0780
18C0
3000
3000
3000
0F00
3000
C000
C000
C000
C000
7F00
ENDCHAR
STARTCHAR 03B6
ENCODING 9574
SWIDTH 2400 0
DWIDTH 24 0
BBX 12 21 6 -4
BITMAP
0FF0
0020
0040
0080
0100
0200
0400
0800
1000
3000
6000
4000
C000
8000
C000
7800
1E00
0600
0200
0600
3C00
ENDCHAR
STARTCHAR 03B7
ENCODING 9575
SWIDTH 2400 0
DWIDTH 24 0
BBX 12 11 6 0
BITMAP
1BF0
1430
1810
3030
2030
2020
6020
4060
4040
C040
C0C0
ENDCHAR
STARTCHAR 03B8
ENCODING 9576
SWIDTH 2400 0
DWIDTH 24 0
BBX 12 17 6 0
BITMAP
03C0
07E0
0C30
1830
1030
3030
2030
6020
7FE0
4060
C060
C040
C0C0
C080
C180
4300
7E00
ENDCHAR
STARTCHAR 03B9
ENCODING 9577
SWIDTH 2400 0
DWIDTH 24 0
BBX 4 11 10 0
BITMAP
10
10
30
20
20
60
40
40
C0
C0
80
ENDCHAR
STARTCHAR 03BA
ENCODING 9578
SWIDTH 2400 0
DWIDTH 24 0
BBX 12 12 6 0
BITMAP
1830
1040
1180
3300
3600
2C00
7C00
6400
4600
4300
C180
80C0
ENDCHAR
STARTCHAR 03BB
ENCODING 9579
SWIDTH 2400 0
DWIDTH 24 0
BBX 10 17 7 0
BITMAP
0300
0300
0300
0100
0100
0180
0380
0380
0580
0C80
0880
18C0
30C0
20C0
60C0
4040
8040
ENDCHAR
STARTCHAR 03BC
ENCODING 9580
SWIDTH 2400 0
DWIDTH 24 0
BBX 14 15 5 -4
BITMAP
040C
0C0C
0808
0808
1818
1810
1030
3030
3060
2CA0
6720
6000
4000
C000
C000
ENDCHAR
STARTCHAR 03BD
ENCODING 9581
SWIDTH 2400 0
DWIDTH 24 0
BBX 11 11 6 0
BITMAP
C020
4060
40C0
6080
6180
6300
6200
2600
2C00
3800
3800
ENDCHAR
STARTCHAR 03BE
ENCODING 9582
SWIDTH 2400 0
DWIDTH 24 0
BBX 12 21 6 -4
BITMAP
0FF0
0180
0600
0C00
0C00
0C00
0C00
03C0
1F00
7000
C000
C000
8000
8000
8000
C000
7C00
0600
0600
0600
3C00
ENDCHAR
STARTCHAR 03BF
ENCODING 9583
SWIDTH 2400 0
DWIDTH 24 0
BBX 12 12 6 0
BITMAP
0780
1CE0
1820
3030
6030
6030
4020
C060
C040
C0C0
6180
7F00
ENDCHAR
STARTCHAR 03C0
ENCODING 9584
SWIDTH 2400 0
DWIDTH 24 0
BBX 12 11 6 0
BITMAP
1FF0
1030
1020
3020
2060
2040
6040
40C0
40C0
C080
C180
ENDCHAR
STARTCHAR 03C1
ENCODING 9585
SWIDTH 2400 0
DWIDTH 24 0
BBX 13 16 6 -4
BITMAP
03E0
0F70
0C10
1818
1818
1010
3010
3030
3020
7060
68C0
4700
C000
C000
8000
8000
ENDCHAR
STARTCHAR 03C3
ENCODING 9586
SWIDTH 2400 0
DWIDTH 24 0
BBX 12 12 6 -1
BITMAP
1FF0
3040
6040
4060
C060
8040
80C0
80C0
8180
C380
FF00
3800
ENDCHAR
STARTCHAR 03C4
ENCODING 9587
SWIDTH 2400 0
DWIDTH 24 0
BBX 10 11 7 0
BITMAP
FFC0
0C00
0800
1800
1800
1000
3000
3000
2000
6000
6000
ENDCHAR
STARTCHAR 03C5
ENCODING 9588
SWIDTH 2400 0
DWIDTH 24 0
BBX 12 12 6 0
BITMAP
3030
3020
2020
2060
6040
4040
40C0
C0C0
C080
C180
6700
3C00
ENDCHAR
STARTCHAR 03C6
ENCODING 9589
SWIDTH 2400 0
DWIDTH 24 0
BBX 14 16 5 -4
BITMAP
0C78
1CCC
3184
6184
410C
C30C
C30C
8208
8218
C610
6660
3FC0
0C00
0C00
0800
1800
ENDCHAR
STARTCHAR 03C7
ENCODING 9590
SWIDTH 2400 0
DWIDTH 24 0
BBX 12 11 6 0
BITMAP
1830
1860
0CC0
0580
0700
0600
0F00
1900
3180
6080
C0C0
ENDCHAR
STARTCHAR 03C8
ENCODING 9591
SWIDTH 2400 0
DWIDTH 24 0
BBX 15 15 4 -4
BITMAP
2082
2086
6186
4104
410C
C30C
C208
C218
C618
E670
3FC0
0C00
0C00
0800
1800
ENDCHAR
STARTCHAR 03C9
ENCODING 9592
SWIDTH 2400 0
DWIDTH 24 0
BBX 14 12 5 -1
BITMAP
1808
300C
218C
610C
410C
C30C
C20C
8208
8618
C610
6B70
30C0
ENDCHAR
STARTCHAR 2500
ENCODING 9761
SWIDTH 2400 0
DWIDTH 24 0
BBX 24 1 0 7
BITMAP
FFFFFF
ENDCHAR
STARTCHAR 2502
ENCODING 9762
SWIDTH 2400 0
DWIDTH 24 0
BBX 1 24 11 -5
BITMAP
80
80
80
80
80
80
80
80
80
80
80
80
80
80
80
80
80
80
80
80
80
80
80
80
ENDCHAR
STARTCHAR 250C
ENCODING 9763
SWIDTH 2400 0
DWIDTH 24 0
BBX 13 13 6 -5
BITMAP
FFF8
8000
8000
8000
8000
8000
8000
8000
8000
8000
8000
8000
8000
ENDCHAR
STARTCHAR 2510
ENCODING 9764
SWIDTH 2400 0
DWIDTH 24 0
BBX 13 13 5 -5
BITMAP
FFF8
0008
0008
0008
0008
0008
0008
0008
0008
0008
0008
0008
0008
ENDCHAR
STARTCHAR 2518
ENCODING 9765
SWIDTH 2400 0
DWIDTH 24 0
BBX 13 12 5 7
BITMAP
0008
0008
0008
0008
0008
0008
0008
0008
0008
0008
0008
FFF8
ENDCHAR
STARTCHAR 2514
ENCODING 9766
SWIDTH 2400 0
DWIDTH 24 0
BBX 13 12 6 7
BITMAP
8000
8000
8000
8000
8000
8000
8000
8000
8000
8000
8000
FFF8
ENDCHAR
STARTCHAR 251C
ENCODING 9767
SWIDTH 2400 0
DWIDTH 24 0
BBX 13 24 6 -5
BITMAP
8000
8000
8000
8000
8000
8000
8000
8000
8000
8000
8000
FFF8
8000
8000
8000
8000
8000
8000
8000
8000
8000
8000
8000
8000
ENDCHAR
STARTCHAR 252C
ENCODING 9768
SWIDTH 2400 0
DWIDTH 24 0
BBX 25 13 -1 -5
BITMAP
FFFFFF80
00080000
00080000
00080000
00080000
00080000
00080000
00080000
00080000
00080000
00080000
00080000
00080000
ENDCHAR
STARTCHAR 2524
ENCODING 9769
SWIDTH 2400 0
DWIDTH 24 0
BBX 13 24 5 -5
BITMAP
0008
0008
0008
0008
0008
0008
0008
0008
0008
0008
0008
FFF8
0008
0008
0008
0008
0008
0008
0008
0008
0008
0008
0008
0008
ENDCHAR
STARTCHAR 2534
ENCODING 9770
SWIDTH 2400 0
DWIDTH 24 0
BBX 25 12 -1 7
BITMAP
00080000
00080000
00080000
00080000
00080000
00080000
00080000
00080000
00080000
00080000
00080000
FFFFFF80
ENDCHAR
STARTCHAR 253C
ENCODING 9771
SWIDTH 2400 0
DWIDTH 24 0
BBX 25 24 -1 -5
BITMAP
00080000
00080000
00080000
00080000
00080000
00080000
00080000
00080000
00080000
00080000
00080000
FFFFFF80
00080000
00080000
00080000
00080000
00080000
00080000
00080000
00080000
00080000
00080000
00080000
00080000
ENDCHAR
STARTCHAR 2501
ENCODING 9772
SWIDTH 2400 0
DWIDTH 24 0
BBX 24 2 0 6
BITMAP
FFFFFF
FFFFFF
ENDCHAR
STARTCHAR 2503
ENCODING 9773
SWIDTH 2400 0
DWIDTH 24 0
BBX 2 24 11 -5
BITMAP
C0
C0
C0
C0
C0
C0
C0
C0
C0
C0
C0
C0
C0
C0
C0
C0
C0
C0
C0
C0
C0
C0
C0
C0
ENDCHAR
STARTCHAR 250F
ENCODING 9774
SWIDTH 2400 0
DWIDTH 24 0
BBX 13 13 5 -5
BITMAP
FFF8
FFF8
C000
C000
C000
C000
C000
C000
C000
C000
C000
C000
C000
ENDCHAR
STARTCHAR 2513
ENCODING 9775
SWIDTH 2400 0
DWIDTH 24 0
BBX 13 13 6 -5
BITMAP
FFF8
FFF8
0018
0018
0018
0018
0018
0018
0018
0018
0018
0018
0018
ENDCHAR
STARTCHAR 251B
ENCODING 9776
SWIDTH 2400 0
DWIDTH 24 0
BBX 13 13 6 6
BITMAP
0018
0018
0018
0018
0018
0018
0018
0018
0018
0018
0018
FFF8
FFF8
ENDCHAR
STARTCHAR 2517
ENCODING 9777
SWIDTH 2400 0
DWIDTH 24 0
BBX 13 13 5 6
BITMAP
C000
C000
C000
C000
C000
C000
C000
C000
C000
C000
C000
FFF8
FFF8
ENDCHAR
STARTCHAR 2523
ENCODING 9778
SWIDTH 2400 0
DWIDTH 24 0
BBX 13 24 5 -5
BITMAP
C000
C000
C000
C000
C000
C000
C000
C000
C000
C000
C000
FFF8
FFF8
C000
C000
C000
C000
C000
C000
C000
C000
C000
C000
C000
ENDCHAR
STARTCHAR 2533
ENCODING 9779
SWIDTH 2400 0
DWIDTH 24 0
BBX 24 13 0 -5
BITMAP
FFFFFF
FFFFFF
001800
001800
001800
001800
001800
001800
001800
001800
001800
001800
001800
ENDCHAR
STARTCHAR 252B
ENCODING 9780
SWIDTH 2400 0
DWIDTH 24 0
BBX 13 24 6 -5
BITMAP
0018
0018
0018
0018
0018
0018
0018
0018
0018
0018
0018
FFF8
FFF8
0018
0018
0018
0018
0018
0018
0018
0018
0018
0018
0018
ENDCHAR
STARTCHAR 253B
ENCODING 9781
SWIDTH 2400 0
DWIDTH 24 0
BBX 24 13 0 6
BITMAP
001800
001800
001800
001800
001800
001800
001800
001800
001800
001800
001800
FFFFFF
FFFFFF
ENDCHAR
STARTCHAR 254B
ENCODING 9782
SWIDTH 2400 0
DWIDTH 24 0
BBX 24 24 0 -5
BITMAP
001800
001800
001800
001800
001800
001800
001800
001800
001800
001800
001800
FFFFFF
FFFFFF
001800
001800
001800
001800
001800
001800
001800
001800
001800
001800
001800
ENDCHAR
STARTCHAR 2520
ENCODING 9783
SWIDTH 2400 0
DWIDTH 24 0
BBX 13 24 5 -5
BITMAP
C000
C000
C000
C000
C000
C000
C000
C000
C000
C000
C000
FFF8
C000
C000
C000
C000
C000
C000
C000
C000
C000
C000
C000
C000
ENDCHAR
STARTCHAR 252F
ENCODING 9784
SWIDTH 2400 0
DWIDTH 24 0
BBX 25 13 -1 -5
BITMAP
FFFFFF80
FFFFFF80
00080000
00080000
00080000
00080000
00080000
00080000
00080000
00080000
00080000
00080000
00080000
ENDCHAR
STARTCHAR 2528
ENCODING 9785
SWIDTH 2400 0
DWIDTH 24 0
BBX 13 24 6 -5
BITMAP
0018
0018
0018
0018
0018
0018
0018
0018
0018
0018
0018
FFF8
0018
0018
0018
0018
0018
0018
0018
0018
0018
0018
0018
0018
ENDCHAR
STARTCHAR 2537
ENCODING 9786
SWIDTH 2400 0
DWIDTH 24 0
BBX 25 13 -1 6
BITMAP
00080000
00080000
00080000
00080000
00080000
00080000
00080000
00080000
00080000
00080000
00080000
FFFFFF80
FFFFFF80
ENDCHAR
STARTCHAR 253F
ENCODING 9787
SWIDTH 2400 0
DWIDTH 24 0
BBX 25 24 -1 -5
BITMAP
00080000
00080000
00080000
00080000
00080000
00080000
00080000
00080000
00080000
00080000
00080000
FFFFFF80
FFFFFF80
00080000
00080000
00080000
00080000
00080000
00080000
00080000
00080000
00080000
00080000
00080000
ENDCHAR
STARTCHAR 251D
ENCODING 9788
SWIDTH 2400 0
DWIDTH 24 0
BBX 13 24 6 -5
BITMAP
8000
8000
8000
8000
8000
8000
8000
8000
8000
8000
8000
FFF8
FFF8
8000
8000
8000
8000
8000
8000
8000
8000
8000
8000
8000
ENDCHAR
STARTCHAR 2530
ENCODING 9789
SWIDTH 2400 0
DWIDTH 24 0
BBX 24 13 0 -5
BITMAP
FFFFFF
001800
001800
001800
001800
001800
001800
001800
001800
001800
001800
001800
001800
ENDCHAR
STARTCHAR 2525
ENCODING 9790
SWIDTH 2400 0
DWIDTH 24 0
BBX 13 24 5 -5
BITMAP
0008
0008
0008
0008
0008
0008
0008
0008
0008
0008
0008
FFF8
FFF8
0008
0008
0008
0008
0008
0008
0008
0008
0008
0008
0008
ENDCHAR
STARTCHAR 2538
ENCODING 9791
SWIDTH 2400 0
DWIDTH 24 0
BBX 24 12 0 7
BITMAP
001800
001800
001800
001800
001800
001800
001800
001800
001800
001800
001800
FFFFFF
ENDCHAR
STARTCHAR 2542
ENCODING 9792
SWIDTH 2400 0
DWIDTH 24 0
BBX 24 24 0 -5
BITMAP
001800
001800
001800
001800
001800
001800
001800
001800
001800
001800
001800
FFFFFF
001800
001800
001800
001800
001800
001800
001800
001800
001800
001800
001800
001800
ENDCHAR
STARTCHAR 2512
ENCODING 9793
SWIDTH 2400 0
DWIDTH 24 0
BBX 13 13 6 -5
BITMAP
FFF8
0018
0018
0018
0018
0018
0018
0018
0018
0018
0018
0018
0018
ENDCHAR
STARTCHAR 2511
ENCODING 9794
SWIDTH 2400 0
DWIDTH 24 0
BBX 13 13 5 -5
BITMAP
FFF8
FFF8
0008
0008
0008
0008
0008
0008
0008
0008
0008
0008
0008
ENDCHAR
STARTCHAR 251A
ENCODING 9795
SWIDTH 2400 0
DWIDTH 24 0
BBX 13 12 6 7
BITMAP
0018
0018
0018
0018
0018
0018
0018
0018
0018
0018
0018
FFF8
ENDCHAR
STARTCHAR 2519
ENCODING 9796
SWIDTH 2400 0
DWIDTH 24 0
BBX 13 13 5 6
BITMAP
0008
0008
0008
0008
0008
0008
0008
0008
0008
0008
0008
FFF8
FFF8
ENDCHAR
STARTCHAR 2516
ENCODING 9797
SWIDTH 2400 0
DWIDTH 24 0
BBX 13 12 5 7
BITMAP
C000
C000
C000
C000
C000
C000
C000
C000
C000
C000
C000
FFF8
ENDCHAR
STARTCHAR 2515
ENCODING 9798
SWIDTH 2400 0
DWIDTH 24 0
BBX 13 13 6 6
BITMAP
8000
8000
8000
8000
8000
8000
8000
8000
8000
8000
8000
FFF8
FFF8
ENDCHAR
STARTCHAR 250E
ENCODING 9799
SWIDTH 2400 0
DWIDTH 24 0
BBX 13 13 5 -5
BITMAP
FFF8
C000
C000
C000
C000
C000
C000
C000
C000
C000
C000
C000
C000
ENDCHAR
STARTCHAR 250D
ENCODING 9800
SWIDTH 2400 0
DWIDTH 24 0
BBX 13 13 6 -5
BITMAP
FFF8
FFF8
8000
8000
8000
8000
8000
8000
8000
8000
8000
8000
8000
ENDCHAR
STARTCHAR 251E
ENCODING 9801
SWIDTH 2400 0
DWIDTH 24 0
BBX 13 24 5 -5
BITMAP
C000
C000
C000
C000
C000
C000
C000
C000
C000
C000
C000
FFF8
4000
4000
4000
4000
4000
4000
4000
4000
4000
4000
4000
4000
ENDCHAR
STARTCHAR 251F
ENCODING 9802
SWIDTH 2400 0
DWIDTH 24 0
BBX 13 24 5 -5
BITMAP
4000
4000
4000
4000
4000
4000
4000
4000
4000
4000
4000
7FF8
C000
C000
C000
C000
C000
C000
C000
C000
C000
C000
C000
C000
ENDCHAR
STARTCHAR 2521
ENCODING 9803
SWIDTH 2400 0
DWIDTH 24 0
BBX 13 24 5 -5
BITMAP
C000
C000
C000
C000
C000
C000
C000
C000
C000
C000
C000
FFF8
7FF8
4000
4000
4000
4000
4000
4000
4000
4000
4000
4000
4000
ENDCHAR
STARTCHAR 2522
ENCODING 9804
SWIDTH 2400 0
DWIDTH 24 0
BBX 13 24 5 -5
BITMAP
4000
4000
4000
4000
4000
4000
4000
4000
4000
4000
4000
7FF8
FFF8
C000
C000
C000
C000
C000
C000
C000
C000
C000
C000
C000
ENDCHAR
STARTCHAR 2526
ENCODING 9805
SWIDTH 2400 0
DWIDTH 24 0
BBX 13 24 6 -5
BITMAP
0018
0018
0018
0018
0018
0018
0018
0018
0018
0018
0018
FFF8
0010
0010
0010
0010
0010
0010
0010
0010
0010
0010
0010
0010
ENDCHAR
STARTCHAR 2527
ENCODING 9806
SWIDTH 2400 0
DWIDTH 24 0
BBX 13 24 6 -5
BITMAP
0010
0010
0010
0010
0010
0010
0010
0010
0010
0010
0010
FFF0
0018
0018
0018
0018
0018
0018
0018
0018
0018
0018
0018
0018
ENDCHAR
STARTCHAR 2529
ENCODING 9807
SWIDTH 2400 0
DWIDTH 24 0
BBX 13 24 6 -5
BITMAP
0018
0018
0018
0018
0018
0018
0018
0018
0018
0018
0018
FFF8
FFF0
0010
0010
0010
0010
0010
0010
0010
0010
0010
0010
0010
ENDCHAR
STARTCHAR 252A
ENCODING 9808
SWIDTH 2400 0
DWIDTH 24 0
BBX 13 24 6 -5
BITMAP
0010
0010
0010
0010
0010
0010
0010
0010
0010
0010
0010
FFF0
FFF8
0018
0018
0018
0018
0018
0018
0018
0018
0018
0018
0018
ENDCHAR
STARTCHAR 252D
ENCODING 9809
SWIDTH 2400 0
DWIDTH 24 0
BBX 25 13 -1 -5
BITMAP
FFFFFF80
FFF80000
00080000
00080000
00080000
00080000
00080000
00080000
00080000
00080000
00080000
00080000
00080000
ENDCHAR
STARTCHAR 252E
ENCODING 9810
SWIDTH 2400 0
DWIDTH 24 0
BBX 25 13 -1 -5
BITMAP
FFFFFF80
000FFF80
00080000
00080000
00080000
00080000
00080000
00080000
00080000
00080000
00080000
00080000
00080000
ENDCHAR
STARTCHAR 2531
ENCODING 9811
SWIDTH 2400 0
DWIDTH 24 0
BBX 24 13 0 -5
BITMAP
FFFFFF
FFF800
001800
001800
001800
001800
001800
001800
001800
001800
001800
001800
001800
ENDCHAR
STARTCHAR 2532
ENCODING 9812
SWIDTH 2400 0
DWIDTH 24 0
BBX 24 13 0 -5
BITMAP
FFFFFF
001FFF
001800
001800
001800
001800
001800
001800
001800
001800
001800
001800
001800
ENDCHAR
STARTCHAR 2535
ENCODING 9813
SWIDTH 2400 0
DWIDTH 24 0
BBX 25 13 -1 6
BITMAP
00080000
00080000
00080000
00080000
00080000
00080000
00080000
00080000
00080000
00080000
00080000
FFFFFF80
FFF00000
ENDCHAR
STARTCHAR 2536
ENCODING 9814
SWIDTH 2400 0
DWIDTH 24 0
BBX 25 13 -1 6
BITMAP
00080000
00080000
00080000
00080000
00080000
00080000
00080000
00080000
00080000
00080000
00080000
FFFFFF80
0007FF80
ENDCHAR
STARTCHAR 2539
ENCODING 9815
SWIDTH 2400 0
DWIDTH 24 0
BBX 24 13 0 6
BITMAP
001800
001800
001800
001800
001800
001800
001800
001800
001800
001800
001800
FFFFFF
FFF000
ENDCHAR
STARTCHAR 253A
ENCODING 9816
SWIDTH 2400 0
DWIDTH 24 0
BBX 24 13 0 6
BITMAP
001800
001800
001800
001800
001800
001800
001800
001800
001800
001800
001800
FFFFFF
000FFF
ENDCHAR
STARTCHAR 253D
ENCODING 9817
SWIDTH 2400 0
DWIDTH 24 0
BBX 25 24 -1 -5
BITMAP
00080000
00080000
00080000
00080000
00080000
00080000
00080000
00080000
00080000
00080000
00080000
FFFFFF80
FFF80000
00080000
00080000
00080000
00080000
00080000
00080000
00080000
00080000
00080000
00080000
00080000
ENDCHAR
STARTCHAR 253E
ENCODING 9818
SWIDTH 2400 0
DWIDTH 24 0
BBX 25 24 -1 -5
BITMAP
00080000
00080000
00080000
00080000
00080000
00080000
00080000
00080000
00080000
00080000
00080000
FFFFFF80
000FFF80
00080000
00080000
00080000
00080000
00080000
00080000
00080000
00080000
00080000
00080000
00080000
ENDCHAR
STARTCHAR 2540
ENCODING 9819
SWIDTH 2400 0
DWIDTH 24 0
BBX 24 24 0 -5
BITMAP
001800
001800
001800
001800
001800
001800
001800
001800
001800
001800
001800
FFFFFF
001000
001000
001000
001000
001000
001000
001000
001000
001000
001000
001000
001000
ENDCHAR
STARTCHAR 2541
ENCODING 9820
SWIDTH 2400 0
DWIDTH 24 0
BBX 24 24 0 -5
BITMAP
001000
001000
001000
001000
001000
001000
001000
001000
001000
001000
001000
FFFFFF
001800
001800
001800
001800
001800
001800
001800
001800
001800
001800
001800
001800
ENDCHAR
STARTCHAR 2543
ENCODING 9821
SWIDTH 2400 0
DWIDTH 24 0
BBX 24 24 0 -5
BITMAP
001800
001800
001800
001800
001800
001800
001800
001800
001800
001800
001800
FFFFFF
FFF000
001000
001000
001000
001000
001000
001000
001000
001000
001000
001000
001000
ENDCHAR
STARTCHAR 2544
ENCODING 9822
SWIDTH 2400 0
DWIDTH 24 0
BBX 24 24 0 -5
BITMAP
001800
001800
001800
001800
001800
001800
001800
001800
001800
001800
001800
FFFFFF
001FFF
001000
001000
001000
001000
001000
001000
001000
001000
001000
001000
001000
ENDCHAR
STARTCHAR 2545
ENCODING 9823
SWIDTH 2400 0
DWIDTH 24 0
BBX 24 24 0 -5
BITMAP
001000
001000
001000
001000
001000
001000
001000
001000
001000
001000
001000
FFFFFF
FFF800
001800
001800
001800
001800
001800
001800
001800
001800
001800
001800
001800
ENDCHAR
STARTCHAR 2546
ENCODING 9824
SWIDTH 2400 0
DWIDTH 24 0
BBX 24 24 0 -5
BITMAP
001000
001000
001000
001000
001000
001000
001000
001000
001000
001000
001000
FFFFFF
001FFF
001800
001800
001800
001800
001800
001800
001800
001800
001800
001800
001800
ENDCHAR
STARTCHAR 2547
ENCODING 9825
SWIDTH 2400 0
DWIDTH 24 0
BBX 24 24 0 -5
BITMAP
001800
001800
001800
001800
001800
001800
001800
001800
001800
001800
001800
FFFFFF
FFFFFF
001000
001000
001000
001000
001000
001000
001000
001000
001000
001000
001000
ENDCHAR
STARTCHAR 2548
ENCODING 9826
SWIDTH 2400 0
DWIDTH 24 0
BBX 24 24 0 -5
BITMAP
001000
001000
001000
001000
001000
001000
001000
001000
001000
001000
001000
FFFFFF
FFFFFF
001800
001800
001800
001800
001800
001800
001800
001800
001800
001800
001800
ENDCHAR
STARTCHAR 2549
ENCODING 9827
SWIDTH 2400 0
DWIDTH 24 0
BBX 24 24 0 -5
BITMAP
001800
001800
001800
001800
001800
001800
001800
001800
001800
001800
001800
FFFFFF
FFF800
001800
001800
001800
001800
001800
001800
001800
001800
001800
001800
001800
ENDCHAR
STARTCHAR 254A
ENCODING 9828
SWIDTH 2400 0
DWIDTH 24 0
BBX 24 24 0 -5
BITMAP
001800
001800
001800
001800
001800
001800
001800
001800
001800
001800
001800
FFFFFF
001FFF
001800
001800
001800
001800
001800
001800
001800
001800
001800
001800
001800
ENDCHAR
STARTCHAR 3395
ENCODING 10017
SWIDTH 2400 0
DWIDTH 24 0
BBX 22 21 1 -4
BITMAP
000078
0000C8
000088
000188
000108
0C0908
081908
081108
181110
103110
102120
102160
206140
206184
30C384
59448C
464078
400000
800000
800000
800000
ENDCHAR
STARTCHAR 3396
ENCODING 10018
SWIDTH 2400 0
DWIDTH 24 0
BBX 20 17 2 0
BITMAP
0001C0
000220
000220
000420
000420
BB8420
CC4420
884440
884440
8844C0
884480
884500
884700
884610
884C10
885220
8841E0
ENDCHAR
STARTCHAR 3397
ENCODING 10019
SWIDTH 2400 0
DWIDTH 24 0
BBX 20 17 2 0
BITMAP
0041E0
004320
004220
004220
004420
1F4420
21C420
40C460
40C440
80C440
80C480
80C580
80C700
40C610
40CE10
214230
1E41E0
ENDCHAR
STARTCHAR 2113
ENCODING 10020
SWIDTH 2400 0
DWIDTH 24 0
BBX 8 17 8 0
BITMAP
1E
32
23
63
63
43
42
42
46
44
4C
48
58
71
E1
B1
1E
ENDCHAR
STARTCHAR 3398
ENCODING 10021
SWIDTH 2400 0
DWIDTH 24 0
BBX 19 17 2 0
BITMAP
8003C0
800640
800440
800440
800840
810840
820840
840840
980880
B00880
F80980
C80B00
840A00
860C00
831C20
813420
8183C0
ENDCHAR
STARTCHAR 33C4
ENCODING 10022
SWIDTH 2400 0
DWIDTH 24 0
BBX 22 12 1 0
BITMAP
1E03F0
318618
608408
404C08
C00800
800800
800800
800800
404C0C
40C408
608618
3F01E0
ENDCHAR
STARTCHAR 33A3
ENCODING 10023
SWIDTH 2400 0
DWIDTH 24 0
BBX 22 18 1 0
BITMAP
00001C
000004
00000C
000004
00001C
000000
B30B30
DC8DC8
888888
888888
888888
888888
888888
888888
888888
888888
888888
888888
ENDCHAR
STARTCHAR 33A4
ENCODING 10024
SWIDTH 2400 0
DWIDTH 24 0
BBX 24 18 0 0
BITMAP
000007
000001
000002
000009
000007
000000
1F0BB8
208CC4
40C884
404884
C00884
800884
800884
C00884
404884
40C884
218884
1F0884
ENDCHAR
STARTCHAR 33A5
ENCODING 10025
SWIDTH 2400 0
DWIDTH 24 0
BBX 18 18 3 0
BITMAP
0001C0
000040
000080
000040
0001C0
000000
DF3E00
E1C300
C08100
C08100
C08100
C08100
C08100
C08100
C08100
C08100
C08100
C08100
ENDCHAR
STARTCHAR 33A6
ENCODING 10026
SWIDTH 2400 0
DWIDTH 24 0
BBX 22 18 1 0
BITMAP
00001C
800004
80000C
800004
80001C
800000
812EE0
823330
842230
882230
902230
B82230
C82230
842230
862230
822230
812230
81A230
ENDCHAR
STARTCHAR 3399
ENCODING 10027
SWIDTH 2400 0
DWIDTH 24 0
BBX 18 17 3 0
BITMAP
1C0000
200000
200000
200000
200000
FCBB80
20CC40
208840
208840
208840
208840
208840
208840
208840
208840
208840
208840
ENDCHAR
STARTCHAR 339A
ENCODING 10028
SWIDTH 2400 0
DWIDTH 24 0
BBX 20 12 2 0
BITMAP
BC16E0
C21990
821110
821110
821110
821110
821110
821110
821110
821110
821110
821110
ENDCHAR
STARTCHAR 339B
ENCODING 10029
SWIDTH 2400 0
DWIDTH 24 0
BBX 22 16 1 -4
BITMAP
082BB8
082C64
086844
184844
104844
10C844
308844
208844
218844
218844
530844
4C8844
400000
800000
800000
800000
ENDCHAR
STARTCHAR 339C
ENCODING 10030
SWIDTH 2400 0
DWIDTH 24 0
BBX 20 12 2 0
BITMAP
B31660
CC9990
889110
889110
889110
889110
889110
889110
889110
889110
889110
889110
ENDCHAR
STARTCHAR 339D
ENCODING 10031
SWIDTH 2400 0
DWIDTH 24 0
BBX 22 12 1 0
BITMAP
1E0BB8
318CC4
408884
404884
C00884
800884
800884
800884
404884
40C884
218884
1E0884
ENDCHAR
STARTCHAR 339E
ENCODING 10032
SWIDTH 2400 0
DWIDTH 24 0
BBX 20 17 2 0
BITMAP
800000
800000
800000
800000
800000
812EE0
823190
8C2110
982110
B02110
F82110
C82110
842110
862110
832110
812110
81A110
ENDCHAR
STARTCHAR 339F
ENCODING 10033
SWIDTH 2400 0
DWIDTH 24 0
BBX 22 18 1 0
BITMAP
000008
000014
000004
000018
000000
000018
B30B70
CC8CC8
888888
888888
888888
888888
888888
888888
888888
888888
888888
888888
ENDCHAR
STARTCHAR 33A0
ENCODING 10034
SWIDTH 2400 0
DWIDTH 24 0
BBX 24 18 0 0
BITMAP
000006
000009
000002
000004
000008
000006
1F0BB8
318CC4
60C884
404884
400884
C00884
C00884
C00884
404884
40C884
318884
1F0884
ENDCHAR
STARTCHAR 33A1
ENCODING 10035
SWIDTH 2400 0
DWIDTH 24 0
BBX 19 18 3 0
BITMAP
0000C0
000020
000040
000180
0001E0
000000
DF3E00
E1C300
C08100
C08100
C08100
C08100
C08100
C08100
C08100
C08100
C08100
C08100
ENDCHAR
STARTCHAR 33A2
ENCODING 10036
SWIDTH 2400 0
DWIDTH 24 0
BBX 22 18 1 0
BITMAP
00001C
800004
800008
800030
80003C
800000
812EE0
823190
842110
882110
902110
B82110
C82110
842110
862110
822110
812110
81A110
ENDCHAR
STARTCHAR 33CA
ENCODING 10037
SWIDTH 2400 0
DWIDTH 24 0
BBX 20 17 2 0
BITMAP
C00000
C00000
C00000
C00000
C00200
DE0D80
E11840
C11040
C11040
C101C0
C107C0
C11C40
C11040
C11040
C11040
C110A0
C10F30
ENDCHAR
STARTCHAR 338D
ENCODING 10038
SWIDTH 2400 0
DWIDTH 24 0
BBX 21 16 1 -4
BITMAP
0827F8
086420
084820
104830
10C820
108820
308460
208F80
218800
210F00
530CF0
5D8808
401008
C01008
800C10
8007E0
ENDCHAR
STARTCHAR 338E
ENCODING 10039
SWIDTH 2400 0
DWIDTH 24 0
BBX 22 16 1 -4
BITMAP
BB839C
C64470
844820
844830
844830
844820
844460
8447C0
844800
844C00
8447E0
844818
001008
001008
001818
000FF0
ENDCHAR
STARTCHAR 338F
ENCODING 10040
SWIDTH 2400 0
DWIDTH 24 0
BBX 20 21 2 -4
BITMAP
800000
800000
800000
800000
800000
810F70
8610C0
8C20C0
9820C0
B020C0
F820C0
CC1180
841F00
862000
833000
811FC0
81A020
004020
004030
007020
001FC0
ENDCHAR
STARTCHAR 33CF
ENCODING 10041
SWIDTH 2400 0
DWIDTH 24 0
BBX 16 17 4 0
BITMAP
8000
8008
8008
8008
8008
833F
8608
8C08
9808
B008
F808
CC08
8408
8608
8308
8108
8187
ENDCHAR
STARTCHAR 3388
ENCODING 10042
SWIDTH 2400 0
DWIDTH 24 0
BBX 22 18 1 -1
BITMAP
000004
000004
000004
000004
000004
1E0F04
231884
4130C4
C1A044
8000C4
800744
801C44
801044
C1A044
41A0C4
6130C4
3E1F64
080000
ENDCHAR
STARTCHAR 3389
ENCODING 10043
SWIDTH 2400 0
DWIDTH 24 0
BBX 22 17 1 0
BITMAP
800004
800004
800004
800004
800004
8CE1C4
892264
911624
920024
A20064
E201A4
D20324
920624
9A0424
8A1424
892464
8DE3B4
ENDCHAR
STARTCHAR 33C8
ENCODING 10044
SWIDTH 2400 0
DWIDTH 24 0
BBX 22 17 1 0
BITMAP
0047E0
004410
004408
004408
004408
1E4408
21C418
40C470
80C7F0
80C408
80C404
80C404
80C404
80C404
40C40C
214408
1E47F0
ENDCHAR
STARTCHAR 33A7
ENCODING 10045
SWIDTH 2400 0
DWIDTH 24 0
BBX 22 22 1 -4
BITMAP
18C000
E53000
861000
861004
861008
861010
861060
8610C0
861180
000300
000400
000860
0011D8
002104
00C100
018100
0300F0
06000C
080004
100104
20018C
0000F8
ENDCHAR
STARTCHAR 33A8
ENCODING 10046
SWIDTH 2400 0
DWIDTH 24 0
BBX 22 22 1 -4
BITMAP
B9E000
C61000
861000
861004
861008
861010
861060
8610CC
861184
861308
000600
000808
0011E0
002210
00C210
018300
0300C0
060030
080010
100210
200310
0001E0
ENDCHAR
STARTCHAR 33B0
ENCODING 10047
SWIDTH 2400 0
DWIDTH 24 0
BBX 20 16 2 -4
BITMAP
BE07C0
E10820
C19030
809800
808C00
808700
8080E0
808030
809010
C19010
E30830
9E07E0
800000
800000
800000
800000
ENDCHAR
STARTCHAR 33B1
ENCODING 10048
SWIDTH 2400 0
DWIDTH 24 0
BBX 20 13 2 0
BITMAP
000300
DE0FC0
E11060
C11020
C11000
C11C00
C10700
C100E0
C10020
C13030
C11020
C11860
C107C0
ENDCHAR
STARTCHAR 33B2
ENCODING 10049
SWIDTH 2400 0
DWIDTH 24 0
BBX 24 16 0 -4
BITMAP
0408FC
040986
080902
081900
081180
1810F0
10301C
102002
306101
306101
29A182
2620FC
400000
400000
400000
800000
ENDCHAR
STARTCHAR 33B3
ENCODING 10050
SWIDTH 2400 0
DWIDTH 24 0
BBX 20 13 2 0
BITMAP
000180
B307E0
CC8830
888810
888800
888E00
888380
888070
888010
889010
888810
888C30
8883C0
ENDCHAR
STARTCHAR 33B4
ENCODING 10051
SWIDTH 2400 0
DWIDTH 24 0
BBX 20 21 2 -4
BITMAP
004010
006010
002030
002020
003020
BE1020
C31040
C19040
809840
808880
808880
808880
808580
808500
810500
C30700
BC0200
800000
800000
800000
800000
ENDCHAR
STARTCHAR 33B5
ENCODING 10052
SWIDTH 2400 0
DWIDTH 24 0
BBX 20 17 2 0
BITMAP
004030
004020
006020
002020
002040
DE2040
E13040
C110C0
C11080
C11080
C11880
C10900
C10900
C10D00
C10600
C10600
C10600
ENDCHAR
STARTCHAR 33B6
ENCODING 10053
SWIDTH 2400 0
DWIDTH 24 0
BBX 22 21 1 -4
BITMAP
000404
000404
000604
00020C
000208
080A08
081308
081108
101118
103110
102190
302090
206090
2040A0
60C0A0
514060
4E4060
400000
800000
800000
800000
ENDCHAR
STARTCHAR 33B7
ENCODING 10054
SWIDTH 2400 0
DWIDTH 24 0
BBX 22 17 1 0
BITMAP
001004
001008
001808
000808
000818
BB8810
C64C10
844410
844420
844620
844220
844240
844240
844340
844180
844180
844180
ENDCHAR
STARTCHAR 33B8
ENCODING 10055
SWIDTH 2400 0
DWIDTH 24 0
BBX 20 17 2 0
BITMAP
804010
806010
802020
802020
802020
813060
821040
841040
981840
B00880
F80880
C80880
840D00
860500
820500
810700
818200
ENDCHAR
STARTCHAR 33B9
ENCODING 10056
SWIDTH 2400 0
DWIDTH 24 0
BBX 22 17 1 0
BITMAP
C06C04
C06404
C0640C
E06408
A0A608
A0A208
A0A208
B0A210
912310
912110
912110
892120
8A21A0
8A20A0
8A20A0
8620C0
8420C0
ENDCHAR
STARTCHAR 3380
ENCODING 10057
SWIDTH 2400 0
DWIDTH 24 0
BBX 20 21 2 -4
BITMAP
000300
000300
000500
000500
000480
BE0480
E10C80
C18880
808840
808840
80DFC0
809060
809020
809020
C0B020
A12030
9E2010
800000
800000
800000
800000
ENDCHAR
STARTCHAR 3381
ENCODING 10058
SWIDTH 2400 0
DWIDTH 24 0
BBX 20 17 2 0
BITMAP
000300
000300
000700
000500
000480
BE0480
C30C80
C108C0
810840
810840
811FC0
811060
811020
811020
813020
812030
812010
ENDCHAR
STARTCHAR 3382
ENCODING 10059
SWIDTH 2400 0
DWIDTH 24 0
BBX 20 21 2 -4
BITMAP
000300
000300
000280
000280
000280
082480
086440
084440
104440
10C860
108FE0
208820
208820
219030
631010
5F1010
499010
400000
800000
800000
800000
ENDCHAR
STARTCHAR 3383
ENCODING 10060
SWIDTH 2400 0
DWIDTH 24 0
BBX 22 17 1 0
BITMAP
0000C0
0000C0
000140
000140
000120
BB8120
C64320
844220
844210
844210
8447F0
844418
844408
844408
844C08
84480C
844804
ENDCHAR
STARTCHAR 3384
ENCODING 10061
SWIDTH 2400 0
DWIDTH 24 0
BBX 20 18 2 -1
BITMAP
800300
800300
800300
800700
800580
810480
820480
840C80
9808C0
B00840
F80840
C81FE0
841020
861020
821020
813030
81A010
002010
ENDCHAR
STARTCHAR 33BA
ENCODING 10062
SWIDTH 2400 0
DWIDTH 24 0
BBX 22 21 1 -4
BITMAP
002104
002184
002184
002188
002288
BF1288
A11288
C09248
C09248
80D250
805250
804C50
808C50
808C30
C08C30
A10C20
9E0C20
800000
800000
800000
800000
ENDCHAR
STARTCHAR 33BB
ENCODING 10063
SWIDTH 2400 0
DWIDTH 24 0
BBX 20 17 2 0
BITMAP
008210
008210
004610
004610
004510
BC4510
C24520
C34520
832920
812920
8128A0
8128A0
8128E0
8128C0
8110C0
811040
811040
ENDCHAR
STARTCHAR 33BC
ENCODING 10064
SWIDTH 2400 0
DWIDTH 24 0
BBX 23 21 1 -4
BITMAP
003082
001084
001084
0011C4
001144
085144
185144
10C948
108948
108A28
208A28
218A28
210A28
410630
430630
650410
590410
800000
800000
800000
800000
ENDCHAR
STARTCHAR 33BD
ENCODING 10065
SWIDTH 2400 0
DWIDTH 24 0
BBX 22 17 1 0
BITMAP
002184
002184
002184
002184
001188
B31188
CC9248
889248
889248
889A48
888A48
888A30
888A30
888C30
888C30
888430
888410
ENDCHAR
STARTCHAR 33BE
ENCODING 10066
SWIDTH 2400 0
DWIDTH 24 0
BBX 22 17 1 0
BITMAP
802104
802104
802188
802188
802288
812288
821288
841288
881250
B01250
F81450
C81450
840C50
860C50
830C30
810C20
818C20
ENDCHAR
STARTCHAR 33BF
ENCODING 10067
SWIDTH 2400 0
DWIDTH 24 0
BBX 22 17 1 0
BITMAP
C1A184
C1A184
C1A184
C1A184
C19188
A29188
A29248
A29248
A29248
A29248
928A50
948A50
948C50
948C30
948C30
8C8C30
888430
ENDCHAR
STARTCHAR 3390
ENCODING 10068
SWIDTH 2400 0
DWIDTH 24 0
BBX 22 17 1 0
BITMAP
800000
804000
804000
804000
804000
8047FC
804008
804018
FFC030
804060
804040
804080
804180
804300
804600
804400
804FFC
ENDCHAR
STARTCHAR 3391
ENCODING 10069
SWIDTH 2400 0
DWIDTH 24 0
BBX 22 17 1 0
BITMAP
810000
810400
810400
810400
810400
8505FC
89040C
890408
91FC18
A10410
B10420
D10460
910440
8904C0
890480
8D0580
8505FC
ENDCHAR
STARTCHAR 3392
ENCODING 10070
SWIDTH 2400 0
DWIDTH 24 0
BBX 22 17 1 0
BITMAP
C32000
C32200
C32200
C32200
C32200
C3227C
A52204
A52208
A53E08
A52210
A52210
A52230
A92220
992220
992240
992240
9922FC
ENDCHAR
STARTCHAR 3393
ENCODING 10071
SWIDTH 2400 0
DWIDTH 24 0
BBX 22 17 1 -1
BITMAP
3C4200
444200
C24200
824200
8042FC
804204
804208
807E08
8E4210
824210
824220
824220
824240
824240
4642C0
6A42FC
100000
ENDCHAR
STARTCHAR 3394
ENCODING 10072
SWIDTH 2400 0
DWIDTH 24 0
BBX 24 17 0 0
BITMAP
008200
FE8200
108200
108200
108200
10827E
108202
10FE04
10820C
108208
108218
108210
108230
108220
108240
108240
1082FF
ENDCHAR
STARTCHAR 2126
ENCODING 10073
SWIDTH 2400 0
DWIDTH 24 0
BBX 14 17 5 0
BITMAP
0FC0
3030
4008
400C
8004
8004
8004
8004
8004
800C
4018
6030
1CE0
0480
0480
0480
FCFC
ENDCHAR
STARTCHAR 33C0
ENCODING 10074
SWIDTH 2400 0
DWIDTH 24 0
BBX 22 17 1 0
BITMAP
8001E0
800610
800408
800808
800804
810804
820804
840804
980804
B00804
F80808
C80418
840330
860120
820120
810120
819F3C
ENDCHAR
STARTCHAR 33C1
ENCODING 10075
SWIDTH 2400 0
DWIDTH 24 0
BBX 22 17 1 0
BITMAP
C181E0
C18610
C18408
C18808
C18804
A28804
A28804
A28804
A28804
A28804
928808
948418
948330
948120
948120
8C8120
889F3C
ENDCHAR
STARTCHAR 338A
ENCODING 10076
SWIDTH 2400 0
DWIDTH 24 0
BBX 19 21 2 -4
BITMAP
001FE0
001000
001000
001000
001000
BF1000
A19000
C09000
C0DFC0
805000
805000
805000
805000
C09000
C09000
A11000
9E1000
800000
800000
800000
800000
ENDCHAR
STARTCHAR 338B
ENCODING 10077
SWIDTH 2400 0
DWIDTH 24 0
BBX 20 17 2 0
BITMAP
000FF0
000800
000800
000800
000800
BE0800
C30800
C10800
810FE0
810800
810800
810800
810800
810800
810800
810800
810800
ENDCHAR
STARTCHAR 338C
ENCODING 10078
SWIDTH 2400 0
DWIDTH 24 0
BBX 22 21 1 -4
BITMAP
0003FC
000200
000200
000200
000200
080A00
081200
081200
1013F8
103200
102200
302200
206200
204200
60C200
514200
4E4200
400000
800000
800000
800000
ENDCHAR
STARTCHAR 33D6
ENCODING 10079
SWIDTH 2400 0
DWIDTH 24 0
BBX 20 17 2 0
BITMAP
000010
000010
000010
000010
000010
B30710
CC8990
889190
889090
889090
8890D0
8890D0
889090
889090
889190
888990
888710
ENDCHAR
STARTCHAR 33C5
ENCODING 10080
SWIDTH 2400 0
DWIDTH 24 0
BBX 20 17 2 0
BITMAP
000010
000010
000010
000010
000010
3E0FD0
611870
409830
809010
803010
803010
803010
803010
809010
C09030
418850
3E0790
ENDCHAR
STARTCHAR 33AD
ENCODING 10081
SWIDTH 2400 0
DWIDTH 24 0
BBX 20 17 2 0
BITMAP
000010
000010
000010
000010
000010
B9E1D0
E11130
C21210
801210
803210
80D210
819210
821210
821210
821210
823330
81D9D0
ENDCHAR
STARTCHAR 33AE
ENCODING 10082
SWIDTH 2400 0
DWIDTH 24 0
BBX 21 22 1 -4
BITMAP
000400
000400
000400
B31C00
C52400
812400
812400
874400
892400
892410
86BC20
0000C0
000300
000400
001820
0020D8
00C080
030040
040038
180008
200088
000070
ENDCHAR
STARTCHAR 33AF
ENCODING 10083
SWIDTH 2400 0
DWIDTH 24 0
BBX 22 21 1 -3
BITMAP
000800
000800
000800
B73800
C94800
814800
834800
858800
898808
894830
86784C
000184
000208
000C78
001090
006080
008040
010030
060010
080090
300070
ENDCHAR
STARTCHAR 33DB
ENCODING 10084
SWIDTH 2400 0
DWIDTH 24 0
BBX 17 12 4 0
BITMAP
7F0980
410A00
808C00
C00800
600800
3C0800
030800
008800
808800
C08800
618800
3E0800
ENDCHAR
STARTCHAR 33A9
ENCODING 10085
SWIDTH 2400 0
DWIDTH 24 0
BBX 20 17 2 0
BITMAP
FE0000
810000
808000
808000
808000
8087C0
818C60
830820
FE0820
800060
8003A0
800C20
800820
800820
800820
800860
800790
ENDCHAR
STARTCHAR 33AA
ENCODING 10086
SWIDTH 2400 0
DWIDTH 24 0
BBX 22 17 1 0
BITMAP
800000
81F800
810800
810400
810400
8504F0
8D0588
890D08
910808
B1F018
A10068
D10088
910108
890108
890108
8D0118
8500E4
ENDCHAR
STARTCHAR 33AB
ENCODING 10087
SWIDTH 2400 0
DWIDTH 24 0
BBX 22 17 1 0
BITMAP
827800
C64400
C64200
C64200
C64200
C64278
CA4288
CA4484
AA5C04
AA601C
AA4034
AA4044
AA4084
AA4084
B24084
9240CC
924074
ENDCHAR
STARTCHAR 33AC
ENCODING 10088
SWIDTH 2400 0
DWIDTH 24 0
BBX 23 17 1 0
BITMAP
380000
647C00
464400
824200
824200
804278
804288
804288
8E4404
82781C
824038
824048
824088
824088
C64088
4640CC
3A4076
ENDCHAR
STARTCHAR 33DD
ENCODING 10089
SWIDTH 2400 0
DWIDTH 24 0
BBX 23 17 1 0
BITMAP
841400
841400
862400
8A2400
8A2400
8A24F8
4A250C
4A2604
494602
494602
514402
514402
314402
314602
30C604
308508
3084F0
ENDCHAR
STARTCHAR 33D0
ENCODING 10090
SWIDTH 2400 0
DWIDTH 24 0
BBX 14 17 5 0
BITMAP
8000
8000
8000
8000
8000
8BB8
8C64
8844
8844
8844
8844
8844
8844
8844
8844
8844
8844
ENDCHAR
STARTCHAR 33D3
ENCODING 10091
SWIDTH 2400 0
DWIDTH 24 0
BBX 14 17 5 0
BITMAP
8000
8000
8000
8000
8000
8808
8410
8210
8320
8140
80C0
80C0
8160
8220
8610
8408
880C
ENDCHAR
STARTCHAR 33C3
ENCODING 10092
SWIDTH 2400 0
DWIDTH 24 0
BBX 20 21 2 -4
BITMAP
FE0000
810000
818000
808000
818000
818100
8306D0
FE0830
811830
809010
809010
80D010
80D010
80D010
809830
838830
FF0450
000390
000010
000010
000010
ENDCHAR
STARTCHAR 33C9
ENCODING 10093
SWIDTH 2400 0
DWIDTH 24 0
BBX 20 22 2 -5
BITMAP
1E0000
610000
410000
808000
808000
800810
800810
800830
800420
838420
808440
808240
808240
808280
808180
418180
628100
1C0100
000100
000200
000600
000800
ENDCHAR
STARTCHAR 33DC
ENCODING 10094
SWIDTH 2400 0
DWIDTH 24 0
BBX 20 18 2 -1
BITMAP
1E0000
610000
C08000
804000
804000
801010
C01010
600810
1C0820
030820
00C420
004440
004440
004240
804280
804280
408180
3F0000
ENDCHAR
STARTCHAR 33C6
ENCODING 10095
SWIDTH 2400 0
DWIDTH 24 0
BBX 22 24 1 -5
BITMAP
302000
482000
884000
804000
808000
808000
808000
810000
890000
8A4000
524000
244000
044024
044458
084888
085088
107048
1048B0
104480
204078
200184
400104
4000EC
000010
ENDCHAR
STARTCHAR 00C6
ENCODING 10273
SWIDTH 2400 0
DWIDTH 24 0
BBX 22 17 1 0
BITMAP
003FFC
007000
005000
00D000
019000
011000
031000
021000
061FF8
0C1000
0FF000
181000
101000
301000
601000
401000
C01FFC
ENDCHAR
STARTCHAR 00D0
ENCODING 10274
SWIDTH 2400 0
DWIDTH 24 0
BBX 16 17 4 0
BITMAP
1FC0
1FF8
100C
1002
1002
1001
1001
1001
FF01
1001
1001
1001
1003
1002
1006
103C
1FE0
ENDCHAR
STARTCHAR 00AA
ENCODING 10275
SWIDTH 2400 0
DWIDTH 24 0
BBX 12 15 6 0
BITMAP
3F80
60C0
40C0
00C0
01C0
1FC0
70C0
40C0
C0C0
C0C0
6340
3E60
0000
0000
7FF0
ENDCHAR
STARTCHAR 0126
ENCODING 10276
SWIDTH 2400 0
DWIDTH 24 0
BBX 18 17 3 0
BITMAP
100000
100200
100200
FFFFC0
100200
100200
100200
100200
1FFE00
100200
100200
100200
100200
100200
100200
100200
100200
ENDCHAR
STARTCHAR 0132
ENCODING 10278
SWIDTH 2400 0
DWIDTH 24 0
BBX 12 17 6 0
BITMAP
8010
8010
8010
8010
8010
8010
8010
8010
8010
8010
8010
9810
9810
8810
8830
8C60
83C0
ENDCHAR
STARTCHAR 013F
ENCODING 10280
SWIDTH 2400 0
DWIDTH 24 0
BBX 10 17 7 0
BITMAP
8000
8000
8000
8000
8000
8000
8000
8E00
8E00
8E00
8000
8000
8000
8000
8000
8000
FFC0
ENDCHAR
STARTCHAR 0141
ENCODING 10281
SWIDTH 2400 0
DWIDTH 24 0
BBX 13 17 6 0
BITMAP
1000
1000
1100
1300
1600
1400
1800
1800
1000
3000
7000
D000
9000
1000
1000
1000
1FF8
ENDCHAR
STARTCHAR 00D8
ENCODING 10282
SWIDTH 2400 0
DWIDTH 24 0
BBX 16 19 4 -1
BITMAP
01C1
0FF1
181A
300C
600E
601A
4033
C063
C0C3
C183
C103
4203
4402
6802
3806
3004
5818
C7F0
8000
ENDCHAR
STARTCHAR 0152
ENCODING 10283
SWIDTH 2400 0
DWIDTH 24 0
BBX 23 18 1 0
BITMAP
01C000
0FFFFE
181800
300800
600800
600800
400800
400800
C00800
C00FFC
C00800
400800
400800
600800
200800
300800
181800
07FFFE
ENDCHAR
STARTCHAR 00BA
ENCODING 10284
SWIDTH 2400 0
DWIDTH 24 0
BBX 11 15 7 0
BITMAP
1E00
2180
4080
80C0
8040
8040
8040
8040
8040
4080
2100
1E00
0000
0000
FFE0
ENDCHAR
STARTCHAR 00DE
ENCODING 10285
SWIDTH 2400 0
DWIDTH 24 0
BBX 10 17 7 0
BITMAP
8000
8000
8000
8000
FF00
8180
8040
8040
8040
8040
8040
8080
FF00
8000
8000
8000
8000
ENDCHAR
STARTCHAR 0166
ENCODING 10286
SWIDTH 2400 0
DWIDTH 24 0
BBX 12 16 6 0
BITMAP
FFF0
0400
0400
0400
0400
0400
0400
0400
7FC0
0400
0400
0400
0400
0400
0400
0400
ENDCHAR
STARTCHAR 014A
ENCODING 10287
SWIDTH 2400 0
DWIDTH 24 0
BBX 11 17 7 0
BITMAP
8F00
B0C0
C060
8060
8020
8020
8020
8020
8020
8020
8020
8020
8020
8060
8060
8040
8780
ENDCHAR
STARTCHAR 3260
ENCODING 10289
SWIDTH 2400 0
DWIDTH 24 0
BBX 22 22 1 -4
BITMAP
00FE00
070180
080040
100020
200010
400008
800008
8FFF88
800084
800084
800084
800084
800084
800084
800088
400088
400008
200010
100020
080040
060180
01FE00
ENDCHAR
STARTCHAR 3261
ENCODING 10290
SWIDTH 2400 0
DWIDTH 24 0
BBX 22 22 1 -4
BITMAP
00FE00
070180
080040
100020
200010
440008
840008
840008
840004
840004
840004
840004
840004
840004
87FFC8
400008
400008
200010
100020
080040
060180
01FE00
ENDCHAR
STARTCHAR 3262
ENCODING 10291
SWIDTH 2400 0
DWIDTH 24 0
BBX 22 22 1 -4
BITMAP
00FE00
070180
080040
100020
200010
400008
800008
87FF88
840004
840004
840004
840004
840004
840004
87FFC8
400008
400008
200010
100020
080040
060180
01FE00
ENDCHAR
STARTCHAR 3263
ENCODING 10292
SWIDTH 2400 0
DWIDTH 24 0
BBX 22 22 1 -4
BITMAP
01FE00
060180
080040
100020
200010
400008
87FF88
800088
800084
800084
87FF84
840004
840004
840004
840008
47FFC8
400008
200010
100020
080040
060180
01FE00
ENDCHAR
STARTCHAR 3264
ENCODING 10293
SWIDTH 2400 0
DWIDTH 24 0
BBX 22 22 1 -4
BITMAP
01FE00
060180
080040
100020
200010
400008
87FF88
840088
840084
840084
840084
840084
840084
840084
87FF88
440088
400008
200010
100020
080040
060180
01FE00
ENDCHAR
STARTCHAR 3265
ENCODING 10294
SWIDTH 2400 0
DWIDTH 24 0
BBX 22 22 1 -4
BITMAP
01FE00
060180
080040
100020
200010
440088
840088
840088
840084
87FF84
840084
840084
840084
840084
87FF88
440088
400008
200010
100020
080040
060180
01FE00
ENDCHAR
STARTCHAR 3266
ENCODING 10295
SWIDTH 2400 0
DWIDTH 24 0
BBX 22 22 1 -4
BITMAP
01FE00
060180
080040
100020
203010
402008
803008
803008
803004
804804
804804
808404
810204
860184
9C00E8
400008
400008
200010
100020
080040
060180
01FE00
ENDCHAR
STARTCHAR 3267
ENCODING 10296
SWIDTH 2400 0
DWIDTH 24 0
BBX 22 22 1 -4
BITMAP
01FE00
060180
080040
100020
200010
400008
80FC08
830308
820104
840084
840084
840084
840084
820104
830308
40FC08
400008
200010
100020
080040
060180
01FE00
ENDCHAR
STARTCHAR 3268
ENCODING 10297
SWIDTH 2400 0
DWIDTH 24 0
BBX 22 22 1 -4
BITMAP
01FE00
060180
080040
100020
200010
400008
8FFF88
803008
803004
803004
804804
804C04
808604
810304
8600C8
480048
400008
200010
100020
080040
060180
01FE00
ENDCHAR
STARTCHAR 3269
ENCODING 10298
SWIDTH 2400 0
DWIDTH 24 0
BBX 22 22 1 -4
BITMAP
01FE00
060180
080040
100020
200010
40FC08
800008
800008
87FFC4
802004
803004
803004
804C04
818604
830188
4C00C8
400008
200010
100020
080040
060180
01FE00
ENDCHAR
STARTCHAR 326A
ENCODING 10299
SWIDTH 2400 0
DWIDTH 24 0
BBX 22 22 1 -4
BITMAP
01FE00
060180
080040
100020
200010
400008
8FFF88
800088
800084
800084
803C84
8FC084
800084
800084
800108
400108
400008
200010
100020
080040
060180
01FE00
ENDCHAR
STARTCHAR 326B
ENCODING 10300
SWIDTH 2400 0
DWIDTH 24 0
BBX 22 22 1 -4
BITMAP
01FE00
060180
080040
100020
200010
400008
87FF88
840008
840004
840004
87FF84
840004
840004
840004
840008
87FFC8
400008
200010
100020
080040
060180
01FE00
ENDCHAR
STARTCHAR 326C
ENCODING 10301
SWIDTH 2400 0
DWIDTH 24 0
BBX 22 22 1 -4
BITMAP
01FE00
060180
080040
100020
200010
400008
8FFF88
800008
800004
810004
810204
810204
810204
810204
810408
4FFFC8
400008
200010
100020
080040
060180
01FE00
ENDCHAR
STARTCHAR 326D
ENCODING 10302
SWIDTH 2400 0
DWIDTH 24 0
BBX 22 22 1 -4
BITMAP
01FE00
060180
080040
100020
200010
40FC08
800008
8FFFC8
800004
800004
80FC04
818604
820104
820104
820108
410208
40FC08
200010
100020
080040
060180
01FE00
ENDCHAR
STARTCHAR 326E
ENCODING 10303
SWIDTH 2400 0
DWIDTH 24 0
BBX 22 22 1 -4
BITMAP
01FE00
060180
080040
100020
200110
400108
8FE108
802108
802104
806104
804104
8081E4
818104
830104
840108
480108
400108
200110
100020
080040
060180
01FE00
ENDCHAR
STARTCHAR 326F
ENCODING 10304
SWIDTH 2400 0
DWIDTH 24 0
BBX 22 22 1 -4
BITMAP
01FE00
060180
080040
100120
200110
400108
840108
840108
840104
840104
8401E4
840104
840104
87FD04
860108
400108
400108
200110
100020
080040
060180
01FE00
ENDCHAR
STARTCHAR 3270
ENCODING 10305
SWIDTH 2400 0
DWIDTH 24 0
BBX 22 22 1 -4
BITMAP
01FE00
060180
080040
100120
200110
400108
8FF108
880108
880104
880104
8801E4
880104
880104
8FF904
800108
400108
400108
200110
100020
080040
060180
01FE00
ENDCHAR
STARTCHAR 3271
ENCODING 10306
SWIDTH 2400 0
DWIDTH 24 0
BBX 22 22 1 -4
BITMAP
01FE00
060180
080040
100020
200110
400108
8FE108
802108
802104
802104
8FE104
8801E4
880104
880104
880908
4FF108
400108
200110
100120
080040
060180
01FE00
ENDCHAR
STARTCHAR 3272
ENCODING 10307
SWIDTH 2400 0
DWIDTH 24 0
BBX 22 22 1 -4
BITMAP
01FE00
060180
080040
100120
200110
400108
8FF108
881108
881104
881104
8811E4
881104
881104
8FF104
800108
400108
400108
200110
100020
080040
060180
01FE00
ENDCHAR
STARTCHAR 3273
ENCODING 10308
SWIDTH 2400 0
DWIDTH 24 0
BBX 22 22 1 -4
BITMAP
01FE00
060180
080040
100120
200110
482108
882108
882108
882104
8FE104
8821E4
882104
882104
882104
8FE108
400108
400108
200110
100020
080040
060180
01FE00
ENDCHAR
STARTCHAR 3274
ENCODING 10309
SWIDTH 2400 0
DWIDTH 24 0
BBX 22 22 1 -4
BITMAP
01FE00
060180
080040
100120
200110
408108
808108
808108
808104
818104
8141E4
824104
822104
841104
881908
400108
400108
200110
100020
080040
060180
01FE00
ENDCHAR
STARTCHAR 3275
ENCODING 10310
SWIDTH 2400 0
DWIDTH 24 0
BBX 22 22 1 -4
BITMAP
01FE00
060180
080040
100120
200110
43C110
842108
8C3108
881104
881104
8811E4
881104
881104
8C3104
842108
43C108
400110
200110
100020
080040
060180
01FE00
ENDCHAR
STARTCHAR 3276
ENCODING 10311
SWIDTH 2400 0
DWIDTH 24 0
BBX 22 22 1 -4
BITMAP
01FE00
060180
080040
100020
200110
400108
8FF908
808108
808104
808104
814104
8141E4
832104
823104
841908
580908
400108
200110
100120
080040
060180
01FE00
ENDCHAR
STARTCHAR 3277
ENCODING 10312
SWIDTH 2400 0
DWIDTH 24 0
BBX 22 22 1 -4
BITMAP
01FE00
060180
080040
100020
23E110
400108
800108
800108
8FF904
808104
808104
8181E4
814104
822104
863108
4C1908
480108
200110
100120
080040
060180
01FE00
ENDCHAR
STARTCHAR 3278
ENCODING 10313
SWIDTH 2400 0
DWIDTH 24 0
BBX 22 22 1 -4
BITMAP
01FE00
060180
080040
100020
200110
400108
8FF108
801108
801104
807104
8FA104
8061E4
804104
808104
830108
4E0108
400108
200110
100120
080040
060180
01FE00
ENDCHAR
STARTCHAR 3279
ENCODING 10314
SWIDTH 2400 0
DWIDTH 24 0
BBX 22 22 1 -4
BITMAP
01FE00
060180
080040
100120
200110
400108
87F108
840108
840104
840104
87F1E4
840104
840104
840104
841D08
47E108
400108
200110
100020
080040
060180
01FE00
ENDCHAR
STARTCHAR 327A
ENCODING 10315
SWIDTH 2400 0
DWIDTH 24 0
BBX 22 22 1 -4
BITMAP
01FE00
060180
080040
100020
200110
400108
8FF908
800108
821104
821104
822104
8221E4
822104
822104
9FFD08
400108
400108
200110
100120
080040
060180
01FE00
ENDCHAR
STARTCHAR 327B
ENCODING 10316
SWIDTH 2400 0
DWIDTH 24 0
BBX 22 22 1 -4
BITMAP
01FE00
060180
080040
100020
200110
43C108
800108
800108
9FF904
800104
87E104
8C31E4
881104
881104
8C3108
47E108
400108
200110
100120
080040
060180
01FE00
ENDCHAR
STARTCHAR 24D0
ENCODING 10317
SWIDTH 2400 0
DWIDTH 24 0
BBX 22 22 1 -4
BITMAP
01FE00
060180
080040
100020
200010
400008
80F808
818C08
830404
800404
803C04
81C404
820404
820404
830C08
43FE08
40E208
200010
100020
080040
060180
01FE00
ENDCHAR
STARTCHAR 24D1
ENCODING 10318
SWIDTH 2400 0
DWIDTH 24 0
BBX 22 22 1 -4
BITMAP
01FE00
060180
080040
110020
210010
410008
810008
813C08
81C304
818104
810084
810084
810084
810084
810088
418108
414308
213C10
100020
080040
060180
01FE00
ENDCHAR
STARTCHAR 24D2
ENCODING 10319
SWIDTH 2400 0
DWIDTH 24 0
BBX 22 22 1 -4
BITMAP
01FE00
060180
080040
100020
200010
403808
80CE08
818208
810204
810004
810004
810004
810304
810204
808608
407C08
400008
200010
100020
080040
060180
01FE00
ENDCHAR
STARTCHAR 24D3
ENCODING 10320
SWIDTH 2400 0
DWIDTH 24 0
BBX 22 22 1 -4
BITMAP
01FE00
060180
080040
100220
200210
400208
800208
807208
818A04
830604
820204
820204
820204
820204
820208
430608
418E08
20F210
100020
080040
060180
01FE00
ENDCHAR
STARTCHAR 24D4
ENCODING 10321
SWIDTH 2400 0
DWIDTH 24 0
BBX 22 22 1 -4
BITMAP
01FE00
060180
080040
100020
200010
400008
807808
808608
810204
830204
83FE04
830004
830004
810204
818608
40FC08
400008
200010
100020
080040
060180
01FE00
ENDCHAR
STARTCHAR 24D5
ENCODING 10322
SWIDTH 2400 0
DWIDTH 24 0
BBX 22 22 1 -4
BITMAP
01FE00
060180
080040
100020
203810
402008
802008
802008
80F804
802004
802004
802004
802004
802004
802008
402008
402008
202010
100020
080040
060180
01FE00
ENDCHAR
STARTCHAR 24D6
ENCODING 10323
SWIDTH 2400 0
DWIDTH 24 0
BBX 22 21 1 -4
BITMAP
03FE00
0C0180
100060
20FD10
418710
810308
830308
830104
830104
830104
810304
810304
80CD04
803108
410208
410608
20FC10
100020
080040
060180
01FE00
ENDCHAR
STARTCHAR 24D7
ENCODING 10324
SWIDTH 2400 0
DWIDTH 24 0
BBX 22 22 1 -4
BITMAP
01FE00
060180
080040
110020
210010
410008
810008
817808
81C604
818204
810204
810204
810204
810204
810208
410208
410208
210210
100020
080040
060180
01FE00
ENDCHAR
STARTCHAR 24D8
ENCODING 10325
SWIDTH 2400 0
DWIDTH 24 0
BBX 22 22 1 -4
BITMAP
01FE00
060180
080040
102020
202010
400008
800008
802008
802004
802004
802004
802004
802004
802004
802008
402008
402008
202010
100020
080040
060180
01FE00
ENDCHAR
STARTCHAR 24D9
ENCODING 10326
SWIDTH 2400 0
DWIDTH 24 0
BBX 22 22 1 -4
BITMAP
01FE00
060180
081040
100020
200010
400008
801008
801008
801004
801004
801004
801004
801004
801004
801008
401008
401008
201010
103020
086040
060180
01FE00
ENDCHAR
STARTCHAR 24DA
ENCODING 10327
SWIDTH 2400 0
DWIDTH 24 0
BBX 22 22 1 -4
BITMAP
01FE00
060180
080040
108020
208010
408008
808008
808208
808404
808804
809004
80F004
80C804
808C04
808408
408208
408308
208110
100020
080040
060180
01FE00
ENDCHAR
STARTCHAR 24DB
ENCODING 10328
SWIDTH 2400 0
DWIDTH 24 0
BBX 22 22 1 -4
BITMAP
01FE00
060180
080040
102020
202010
402008
802008
802008
802004
802004
802004
802004
802004
802004
802008
402008
402008
202010
100020
080040
060180
01FE00
ENDCHAR
STARTCHAR 24DC
ENCODING 10329
SWIDTH 2400 0
DWIDTH 24 0
BBX 22 22 1 -4
BITMAP
01FE00
060180
080040
100020
200010
41C708
8E28C8
8C1048
8C1044
8C1044
8C1044
8C1044
8C1044
8C1044
8C1048
4C1048
400008
200010
100020
080040
060180
01FE00
ENDCHAR
STARTCHAR 24DD
ENCODING 10330
SWIDTH 2400 0
DWIDTH 24 0
BBX 22 22 1 -4
BITMAP
01FE00
060180
080040
100020
200010
403008
81CC08
818608
810204
810204
810204
810204
810204
810204
810208
410208
400008
200010
100020
080040
060180
01FE00
ENDCHAR
STARTCHAR 24DE
ENCODING 10331
SWIDTH 2400 0
DWIDTH 24 0
BBX 22 22 1 -4
BITMAP
01FE00
060180
080040
100020
200010
407C08
818608
810208
820104
820104
820104
820104
820104
810204
818608
407C08
400008
200010
100020
080040
060180
01FE00
ENDCHAR
STARTCHAR 24DF
ENCODING 10332
SWIDTH 2400 0
DWIDTH 24 0
BBX 22 22 1 -4
BITMAP
01FE00
060180
080040
100020
20BE10
40C308
808188
808188
808084
810084
808184
808184
808104
80E704
809C08
408008
408008
208010
100020
080040
060180
01FE00
ENDCHAR
STARTCHAR 24E0
ENCODING 10333
SWIDTH 2400 0
DWIDTH 24 0
BBX 22 21 1 -4
BITMAP
03FE00
0C0180
100060
20FA10
410610
830208
820208
820204
820204
820204
820204
810604
80FA04
802208
400208
400208
200210
100020
080040
060180
01FE00
ENDCHAR
STARTCHAR 24E1
ENCODING 10334
SWIDTH 2400 0
DWIDTH 24 0
BBX 22 22 1 -4
BITMAP
01FE00
060180
080040
100020
200010
400008
802E08
803808
803004
802004
802004
802004
802004
802004
802008
402008
400008
200010
100020
080040
060180
01FE00
ENDCHAR
STARTCHAR 24E2
ENCODING 10335
SWIDTH 2400 0
DWIDTH 24 0
BBX 22 22 1 -4
BITMAP
01FE00
060180
080040
100020
200010
407808
808408
818208
808004
80C004
803C04
800604
810204
818204
80C608
403808
400008
200010
100020
080040
060180
01FE00
ENDCHAR
STARTCHAR 24E3
ENCODING 10336
SWIDTH 2400 0
DWIDTH 24 0
BBX 22 22 1 -4
BITMAP
01FE00
060180
080040
100020
202010
402008
802008
80F808
802004
802004
802004
802004
802004
802004
802008
402008
403808
200010
100020
080040
060180
01FE00
ENDCHAR
STARTCHAR 24E4
ENCODING 10337
SWIDTH 2400 0
DWIDTH 24 0
BBX 22 22 1 -4
BITMAP
01FE00
060180
080040
100020
200010
400008
810208
810208
810204
810204
810204
810204
810204
810204
810608
40DA08
406008
200010
100020
080040
060180
01FE00
ENDCHAR
STARTCHAR 24E5
ENCODING 10338
SWIDTH 2400 0
DWIDTH 24 0
BBX 22 22 1 -4
BITMAP
01FE00
060180
080040
100020
200010
400008
830308
810208
810204
808404
808404
80C404
804804
804804
802808
403008
403008
200010
100020
080040
060180
01FE00
ENDCHAR
STARTCHAR 24E6
ENCODING 10339
SWIDTH 2400 0
DWIDTH 24 0
BBX 22 22 1 -4
BITMAP
01FE00
060180
080040
100020
200010
400008
800008
843048
843844
842884
824884
824884
824504
824504
818508
418208
418208
200010
100020
080040
060180
01FE00
ENDCHAR
STARTCHAR 24E7
ENCODING 10340
SWIDTH 2400 0
DWIDTH 24 0
BBX 22 22 1 -4
BITMAP
01FE00
060180
080040
100020
200010
400008
818208
808408
804804
803804
803004
803004
804804
804404
808608
410208
400008
200010
100020
080040
060180
01FE00
ENDCHAR
STARTCHAR 24E8
ENCODING 10341
SWIDTH 2400 0
DWIDTH 24 0
BBX 22 22 1 -4
BITMAP
01FE00
060180
080040
100020
210110
418208
808208
808208
804404
804404
806404
802804
802804
801004
801008
401008
402008
20E010
100020
080040
060180
01FE00
ENDCHAR
STARTCHAR 24E9
ENCODING 10342
SWIDTH 2400 0
DWIDTH 24 0
BBX 22 22 1 -4
BITMAP
01FE00
060180
080040
100020
200010
400008
81FE08
800608
800C04
801804
801004
802004
804004
808004
818008
41FE08
400008
200010
100020
080040
060180
01FE00
ENDCHAR
STARTCHAR 2460
ENCODING 10343
SWIDTH 2400 0
DWIDTH 24 0
BBX 22 22 1 -4
BITMAP
01FE00
060180
080040
101020
201010
403008
80F008
801008
801004
801004
801004
801004
801004
801004
801008
401008
401008
201010
100020
080040
060180
01FE00
ENDCHAR
STARTCHAR 2461
ENCODING 10344
SWIDTH 2400 0
DWIDTH 24 0
BBX 22 21 1 -4
BITMAP
03FE00
0C0180
107860
20C610
418210
810308
810308
800204
800204
800404
801804
807004
80C004
818008
410008
410008
23FF10
100020
080040
060180
01FE00
ENDCHAR
STARTCHAR 2462
ENCODING 10345
SWIDTH 2400 0
DWIDTH 24 0
BBX 22 21 1 -4
BITMAP
03FE00
0C0180
107860
20CC10
410610
810208
810208
800604
800C04
803804
800604
800204
800304
820308
430208
410608
20FC10
100020
080040
060180
01FE00
ENDCHAR
STARTCHAR 2463
ENCODING 10346
SWIDTH 2400 0
DWIDTH 24 0
BBX 22 22 1 -4
BITMAP
01FE00
060180
080040
100820
201810
403808
802808
806808
80C804
808804
818804
830804
820804
83FE04
800808
400808
400808
200810
100020
080040
060180
01FE00
ENDCHAR
STARTCHAR 2464
ENCODING 10347
SWIDTH 2400 0
DWIDTH 24 0
BBX 22 21 1 -4
BITMAP
03FE00
0C0180
100040
20FE20
408010
818008
818008
810004
817804
818604
810204
800304
800304
800308
410208
410608
20FC10
103020
080040
060180
01FE00
ENDCHAR
STARTCHAR 2465
ENCODING 10348
SWIDTH 2400 0
DWIDTH 24 0
BBX 22 21 1 -4
BITMAP
03FE00
0C0180
103860
206E10
408210
818308
810008
810004
817C04
81C204
818104
810104
810104
810108
418108
40C208
207C10
100020
080040
060180
01FE00
ENDCHAR
STARTCHAR 2466
ENCODING 10349
SWIDTH 2400 0
DWIDTH 24 0
BBX 22 22 1 -4
BITMAP
01FE00
060180
080040
100020
21FF10
400208
800408
800C08
800804
801804
801004
803004
802004
802004
806008
404008
404008
204010
100020
080040
060180
01FE00
ENDCHAR
STARTCHAR 2467
ENCODING 10350
SWIDTH 2400 0
DWIDTH 24 0
BBX 22 21 1 -4
BITMAP
03FE00
0C0180
107860
20DC10
418210
810208
810208
810204
80C404
80F804
818604
830104
830104
830108
430108
418208
20FC10
100020
080040
060180
01FE00
ENDCHAR
STARTCHAR 2468
ENCODING 10351
SWIDTH 2400 0
DWIDTH 24 0
BBX 22 22 1 -4
BITMAP
01FE00
060180
080040
107820
208410
410208
810208
810308
810304
810304
818704
80FD04
807104
800104
810208
410208
418608
20FC10
100020
080040
060180
01FE00
ENDCHAR
STARTCHAR 2469
ENCODING 10352
SWIDTH 2400 0
DWIDTH 24 0
BBX 22 22 0 -4
BITMAP
00FE00
070180
0C0040
180020
300010
6107C8
410448
4F0824
C10824
C10824
C10824
C10824
C10824
C10824
410864
610448
210388
300010
180020
0C0040
070080
00FF00
ENDCHAR
STARTCHAR 246A
ENCODING 10353
SWIDTH 2400 0
DWIDTH 24 0
BBX 22 22 1 -4
BITMAP
01FE00
060180
080040
100020
200010
410108
830308
8F0F08
810104
810104
810104
810104
810104
810104
810108
410108
410108
200010
100020
080040
060180
01FE00
ENDCHAR
STARTCHAR 246B
ENCODING 10354
SWIDTH 2400 0
DWIDTH 24 0
BBX 22 22 1 -4
BITMAP
01FE00
060180
080040
100020
200010
420788
8218C8
9E1048
821044
820044
820084
820104
820604
820804
821808
421008
421FC8
200010
100020
080040
060180
01FE00
ENDCHAR
STARTCHAR 246C
ENCODING 10355
SWIDTH 2400 0
DWIDTH 24 0
BBX 22 22 0 -4
BITMAP
00FE00
070180
0C0040
180020
300010
6107C8
410848
4F0864
C10044
C10044
C10384
C10044
C10024
C11024
411824
610848
210788
300010
180020
0C0040
070080
00FF00
ENDCHAR
STARTCHAR 246D
ENCODING 10356
SWIDTH 2400 0
DWIDTH 24 0
BBX 22 22 1 -4
BITMAP
01FE00
060180
080040
100020
200010
410088
810188
8F0288
810284
810484
810484
810884
811084
811FE4
810088
410088
410088
200010
100020
080040
060180
01FE00
ENDCHAR
STARTCHAR 246E
ENCODING 10357
SWIDTH 2400 0
DWIDTH 24 0
BBX 22 22 1 -4
BITMAP
00FE00
070180
080040
100020
200010
420F88
820808
9E0804
821804
821704
821884
820044
820044
820044
821044
421888
420F08
200010
100020
080040
060180
01FE00
ENDCHAR
STARTCHAR 00BD
ENCODING 10358
SWIDTH 2400 0
DWIDTH 24 0
BBX 16 16 4 -1
BITMAP
2010
E030
2020
2040
2040
2080
219E
2121
2221
0201
0402
040C
0818
1820
1020
207F
ENDCHAR
STARTCHAR 2153
ENCODING 10359
SWIDTH 2400 0
DWIDTH 24 0
BBX 16 17 4 -1
BITMAP
2000
6010
E020
2020
2040
20C0
2080
211E
2123
2221
0201
040E
0406
0801
1841
1041
203E
ENDCHAR
STARTCHAR 2154
ENCODING 10360
SWIDTH 2400 0
DWIDTH 24 0
BBX 18 16 3 -1
BITMAP
780400
840400
840800
041800
0C1000
182000
602700
8048C0
805040
FC8040
008180
010180
030040
021040
041040
040F80
ENDCHAR
STARTCHAR 00BC
ENCODING 10361
SWIDTH 2400 0
DWIDTH 24 0
BBX 14 16 5 -1
BITMAP
2030
6020
E060
2040
2080
2080
2108
2118
2218
2628
0448
08C8
0888
11FC
1008
2008
ENDCHAR
STARTCHAR 00BE
ENCODING 10362
SWIDTH 2400 0
DWIDTH 24 0
BBX 17 18 3 -2
BITMAP
000200
3C0200
420400
420800
060800
1C1000
021000
022100
C22300
424300
3CC500
008900
010900
011100
021F80
020100
040100
000100
ENDCHAR
STARTCHAR 215B
ENCODING 10363
SWIDTH 2400 0
DWIDTH 24 0
BBX 16 17 4 -1
BITMAP
2000
6010
E020
2020
2040
20C0
2080
211E
2121
2221
0221
041E
0423
0841
1841
1023
201E
ENDCHAR
STARTCHAR 215C
ENCODING 10364
SWIDTH 2400 0
DWIDTH 24 0
BBX 19 17 2 -1
BITMAP
3C0000
460200
420400
020400
1C0800
0C1800
021000
8223C0
822420
7C4420
004420
0083C0
008460
010820
010820
020460
0403C0
ENDCHAR
STARTCHAR 215D
ENCODING 10365
SWIDTH 2400 0
DWIDTH 24 0
BBX 18 18 3 -2
BITMAP
FC0000
800400
800800
800800
FC1000
041000
042000
846780
844840
F88840
008840
010780
0108C0
021040
021040
0408C0
0C0780
080000
ENDCHAR
STARTCHAR 215E
ENCODING 10366
SWIDTH 2400 0
DWIDTH 24 0
BBX 16 17 4 -1
BITMAP
0010
FC20
0C20
0840
10C0
1080
2100
211E
6221
4221
4421
041E
0821
1841
1041
2021
201E
ENDCHAR
STARTCHAR 00E6
ENCODING 10529
SWIDTH 2400 0
DWIDTH 24 0
BBX 18 12 3 0
BITMAP
3E1E00
61E180
C0C080
C08040
018040
3FFFC0
F08000
C08000
808040
81C0C0
C37380
7C1E00
ENDCHAR
STARTCHAR 0111
ENCODING 10530
SWIDTH 2400 0
DWIDTH 24 0
BBX 13 17 5 0
BITMAP
0020
0020
03F8
0020
0020
1F20
30E0
6060
4020
4020
C020
C020
4020
4020
6060
30E0
1F20
ENDCHAR
STARTCHAR 00F0
ENCODING 10531
SWIDTH 2400 0
DWIDTH 24 0
BBX 10 17 7 0
BITMAP
2100
3F00
0C00
3E00
6200
0100
0180
1E80
6180
40C0
C040
C040
C040
C040
C040
6080
3F00
ENDCHAR
STARTCHAR 0127
ENCODING 10532
SWIDTH 2400 0
DWIDTH 24 0
BBX 12 17 6 0
BITMAP
1000
1000
FF80
1000
1000
17E0
1830
1810
1010
1010
1010
1010
1010
1010
1010
1010
1010
ENDCHAR
STARTCHAR 0131
ENCODING 10533
SWIDTH 2400 0
DWIDTH 24 0
BBX 1 12 11 0
BITMAP
80
80
80
80
80
80
80
80
80
80
80
80
ENDCHAR
STARTCHAR 0133
ENCODING 10534
SWIDTH 2400 0
DWIDTH 24 0
BBX 8 21 8 -4
BITMAP
81
81
00
00
00
81
81
81
81
81
81
81
81
81
81
81
81
01
01
03
0E
ENDCHAR
STARTCHAR 0138
ENCODING 10535
SWIDTH 2400 0
DWIDTH 24 0
BBX 9 12 7 0
BITMAP
8300
8600
8C00
9800
B000
F800
CC00
8400
8600
8300
8100
8180
ENDCHAR
STARTCHAR 0140
ENCODING 10536
SWIDTH 2400 0
DWIDTH 24 0
BBX 7 17 9 0
BITMAP
80
80
80
80
80
80
80
8E
8E
8E
80
80
80
80
80
80
80
ENDCHAR
STARTCHAR 0142
ENCODING 10537
SWIDTH 2400 0
DWIDTH 24 0
BBX 9 17 8 0
BITMAP
0800
0800
0800
0980
0900
0A00
0C00
0C00
0800
1800
3800
2800
4800
8800
0800
0800
0800
ENDCHAR
STARTCHAR 00F8
ENCODING 10538
SWIDTH 2400 0
DWIDTH 24 0
BBX 12 13 6 0
BITMAP
0210
1FF0
38E0
20E0
61B0
4330
4630
4C30
5830
7020
6060
90C0
0F00
ENDCHAR
STARTCHAR 0153
ENCODING 10539
SWIDTH 2400 0
DWIDTH 24 0
BBX 20 12 2 0
BITMAP
1F0F80
219860
40F020
C06030
806030
807FF0
806000
806000
806030
40F020
219CE0
1F0780
ENDCHAR
STARTCHAR 00DF
ENCODING 10540
SWIDTH 2400 0
DWIDTH 24 0
BBX 10 17 7 0
BITMAP
3E00
6100
4080
C080
C080
C080
C100
CE00
C300
C080
C040
C040
C040
C040
C040
C080
CF80
ENDCHAR
STARTCHAR 00FE
ENCODING 10541
SWIDTH 2400 0
DWIDTH 24 0
BBX 11 20 6 -3
BITMAP
8000
8000
8000
8000
8000
8F00
B080
E040
C020
C020
C020
C020
C020
C020
E040
B0C0
9F80
8600
8000
8000
ENDCHAR
STARTCHAR 0167
ENCODING 10542
SWIDTH 2400 0
DWIDTH 24 0
BBX 5 15 9 0
BITMAP
20
20
20
20
F8
20
F8
20
20
20
20
20
20
20
38
ENDCHAR
STARTCHAR 014B
ENCODING 10543
SWIDTH 2400 0
DWIDTH 24 0
BBX 10 17 7 -4
BITMAP
0600
DB80
E0C0
C0C0
C0C0
C0C0
C0C0
C0C0
C0C0
C0C0
C0C0
C0C0
C0C0
00C0
00C0
0080
0780
ENDCHAR
STARTCHAR 0149
ENCODING 10544
SWIDTH 2400 0
DWIDTH 24 0
BBX 14 15 5 0
BITMAP
3000
6000
6000
45F0
8708
0604
0404
0404
0404
0404
0404
0404
0404
0404
0404
ENDCHAR
STARTCHAR 3200
ENCODING 10545
SWIDTH 2400 0
DWIDTH 24 0
BBX 22 20 1 -3
BITMAP
080000
100040
200020
400010
400010
4FFF88
800088
800084
800084
800084
800084
800084
800084
800088
400088
400008
200010
200020
100020
000040
ENDCHAR
STARTCHAR 3201
ENCODING 10546
SWIDTH 2400 0
DWIDTH 24 0
BBX 22 20 1 -3
BITMAP
080000
100040
200020
400010
400010
440008
840008
840004
840004
840004
840004
840004
840004
840008
47FFC8
400008
200010
200020
100020
000040
ENDCHAR
STARTCHAR 3202
ENCODING 10547
SWIDTH 2400 0
DWIDTH 24 0
BBX 22 20 1 -3
BITMAP
080000
100040
200020
400010
400010
47FF88
840008
840004
840004
840004
840004
840004
840004
840008
47FFC8
400008
200010
200020
100020
000040
ENDCHAR
STARTCHAR 3203
ENCODING 10548
SWIDTH 2400 0
DWIDTH 24 0
BBX 22 20 1 -3
BITMAP
080000
100040
200020
400010
400010
47FF88
800088
800084
800084
87FF84
840004
840004
840004
840008
47FFC8
400008
200010
200020
100020
000040
ENDCHAR
STARTCHAR 3204
ENCODING 10549
SWIDTH 2400 0
DWIDTH 24 0
BBX 22 20 1 -3
BITMAP
080000
100040
200020
400010
400010
47FF88
840088
840084
840084
840084
840084
840084
840084
87FF88
440088
400008
200010
200020
100020
000040
ENDCHAR
STARTCHAR 3205
ENCODING 10550
SWIDTH 2400 0
DWIDTH 24 0
BBX 22 20 1 -3
BITMAP
080000
100040
200020
400010
400010
440088
840088
840084
87FF84
840084
840084
840084
840084
87FF88
440088
400008
200010
200020
100020
000040
ENDCHAR
STARTCHAR 3206
ENCODING 10551
SWIDTH 2400 0
DWIDTH 24 0
BBX 22 20 1 -3
BITMAP
080000
100040
200020
400010
403010
403008
803008
803004
803004
804804
804C04
808604
830304
860188
480048
400008
200010
200020
100020
000040
ENDCHAR
STARTCHAR 3207
ENCODING 10552
SWIDTH 2400 0
DWIDTH 24 0
BBX 22 20 1 -3
BITMAP
080000
100040
200020
400010
400010
40FC08
830308
820104
840084
840084
840084
840084
860104
830308
40FC08
400008
200010
200020
100020
000040
ENDCHAR
STARTCHAR 3208
ENCODING 10553
SWIDTH 2400 0
DWIDTH 24 0
BBX 22 20 1 -3
BITMAP
080040
100020
200010
400010
400008
4FFF88
802004
803004
803004
804804
804804
808404
810304
8601C8
480048
400008
200010
200020
100020
000040
ENDCHAR
STARTCHAR 3209
ENCODING 10554
SWIDTH 2400 0
DWIDTH 24 0
BBX 22 20 1 -3
BITMAP
080000
100040
200020
400010
40FC10
400008
800008
8FFFC4
802004
803004
803004
804804
808404
830308
4C00C8
400008
200010
200020
100020
000040
ENDCHAR
STARTCHAR 320A
ENCODING 10555
SWIDTH 2400 0
DWIDTH 24 0
BBX 22 20 1 -3
BITMAP
080000
100040
200020
400010
400010
4FFF88
800088
800084
800084
8FFC84
880084
800084
800184
800108
400108
400108
200010
200020
100020
000040
ENDCHAR
STARTCHAR 320B
ENCODING 10556
SWIDTH 2400 0
DWIDTH 24 0
BBX 22 20 1 -3
BITMAP
080000
100040
200020
400010
400010
47FF88
840008
840004
840004
87FF84
840004
840004
840004
840008
47FFC8
400008
200010
200020
100020
000040
ENDCHAR
STARTCHAR 320C
ENCODING 10557
SWIDTH 2400 0
DWIDTH 24 0
BBX 22 20 1 -3
BITMAP
080000
100040
200020
400010
400010
4FFF88
800008
800004
810204
810204
810204
810204
810204
810408
4FFFC8
400008
200010
200020
100020
000040
ENDCHAR
STARTCHAR 320D
ENCODING 10558
SWIDTH 2400 0
DWIDTH 24 0
BBX 22 20 1 -3
BITMAP
080000
100040
200020
400010
40FC10
400008
800008
8FFFC4
800004
800004
80FC04
810204
820104
820108
420108
410208
20FC10
200020
100020
000040
ENDCHAR
STARTCHAR 320E
ENCODING 10559
SWIDTH 2400 0
DWIDTH 24 0
BBX 22 20 1 -3
BITMAP
080000
100040
200120
400110
400110
4FE108
802108
802104
804104
804104
8081E4
808104
810104
820108
4C0108
400108
200110
200120
100020
000040
ENDCHAR
STARTCHAR 320F
ENCODING 10560
SWIDTH 2400 0
DWIDTH 24 0
BBX 22 20 1 -3
BITMAP
080040
100120
200110
400110
400108
480108
880104
880104
880104
8801E4
880104
880104
8FF904
8E0108
400108
400110
200110
200120
100020
000040
ENDCHAR
STARTCHAR 3210
ENCODING 10561
SWIDTH 2400 0
DWIDTH 24 0
BBX 22 20 1 -3
BITMAP
080040
100120
200110
400110
400108
4FF108
880104
880104
880104
8801E4
880104
880104
883904
8FC108
400108
400108
200110
200120
100020
000040
ENDCHAR
STARTCHAR 3211
ENCODING 10562
SWIDTH 2400 0
DWIDTH 24 0
BBX 22 20 1 -3
BITMAP
080000
100040
200120
400110
400110
4FE108
802108
802104
802104
8FE104
8801E4
880104
880104
880108
4FF108
400108
200110
200120
100020
000040
ENDCHAR
STARTCHAR 3212
ENCODING 10563
SWIDTH 2400 0
DWIDTH 24 0
BBX 22 20 1 -3
BITMAP
080040
100120
200110
400110
400108
4FE108
882104
882104
882104
8821E4
882104
882104
8FE104
800108
400108
400110
200110
200120
100020
000040
ENDCHAR
STARTCHAR 3213
ENCODING 10564
SWIDTH 2400 0
DWIDTH 24 0
BBX 22 20 1 -3
BITMAP
080000
100140
200120
400110
482110
482108
882108
882104
8FE104
8821E4
882104
882104
882104
8FE108
400108
400108
200110
200120
100020
000040
ENDCHAR
STARTCHAR 3214
ENCODING 10565
SWIDTH 2400 0
DWIDTH 24 0
BBX 22 20 1 -3
BITMAP
080000
100040
200120
400110
408110
418108
818108
818104
818104
824104
8241E4
842104
8C3104
981908
400108
400108
200110
200120
100020
000040
ENDCHAR
STARTCHAR 3215
ENCODING 10566
SWIDTH 2400 0
DWIDTH 24 0
BBX 22 20 1 -3
BITMAP
080000
100140
200120
400110
478110
484108
986108
902104
902104
9021E4
902104
902104
986104
884108
478108
400108
200110
200120
100020
000040
ENDCHAR
STARTCHAR 3216
ENCODING 10567
SWIDTH 2400 0
DWIDTH 24 0
BBX 22 20 1 -3
BITMAP
080000
100040
200120
600110
400110
4FF908
808108
808104
808104
814104
8141E4
822104
823104
841108
580908
400108
200110
200120
100020
000040
ENDCHAR
STARTCHAR 3217
ENCODING 10568
SWIDTH 2400 0
DWIDTH 24 0
BBX 22 20 1 -3
BITMAP
080000
100140
200120
43C110
400110
400108
800108
8FF904
808104
8081E4
808104
814104
826104
823108
4C1908
480108
200110
200120
100020
000040
ENDCHAR
STARTCHAR 3218
ENCODING 10569
SWIDTH 2400 0
DWIDTH 24 0
BBX 22 20 1 -3
BITMAP
080000
100040
200120
400110
400110
4FF108
801108
802104
802104
8FE104
8041E4
80C104
808104
830108
4E0108
480108
200110
200120
100120
000040
ENDCHAR
STARTCHAR 3219
ENCODING 10570
SWIDTH 2400 0
DWIDTH 24 0
BBX 22 20 1 -3
BITMAP
080000
100040
200120
400110
400110
47F108
840108
840104
840104
87F1E4
840104
840104
840104
841D08
47E108
400108
200110
200120
100020
000040
ENDCHAR
STARTCHAR 321A
ENCODING 10571
SWIDTH 2400 0
DWIDTH 24 0
BBX 22 20 1 -3
BITMAP
080000
100040
200120
400110
4FF110
400108
800108
820104
821104
822104
8221E4
822104
822104
9FFD08
400108
400108
200110
200120
100120
000040
ENDCHAR
STARTCHAR 321B
ENCODING 10572
SWIDTH 2400 0
DWIDTH 24 0
BBX 22 20 1 -3
BITMAP
080000
100140
200120
200110
43C110
400108
800108
9FF904
800104
83C1E4
843104
881104
881104
881108
443108
43C108
400110
200120
100020
080040
ENDCHAR
STARTCHAR 249C
ENCODING 10573
SWIDTH 2400 0
DWIDTH 24 0
BBX 22 20 1 -3
BITMAP
080000
100040
200020
400010
400010
40F808
818408
810404
800404
801C04
80E404
810404
820404
830C08
41FA08
40E208
200010
200020
100020
000040
ENDCHAR
STARTCHAR 249D
ENCODING 10574
SWIDTH 2400 0
DWIDTH 24 0
BBX 22 20 1 -3
BITMAP
080000
100040
230020
430010
430010
430008
833808
83C604
838204
830104
830104
830104
830104
830108
430208
438608
237810
200020
100020
000040
ENDCHAR
STARTCHAR 249E
ENCODING 10575
SWIDTH 2400 0
DWIDTH 24 0
BBX 22 20 1 -3
BITMAP
080000
100040
200020
400010
403810
40CC08
810208
810204
830004
830004
830004
810204
810204
808608
407C08
400008
200010
200020
100020
000040
ENDCHAR
STARTCHAR 249F
ENCODING 10576
SWIDTH 2400 0
DWIDTH 24 0
BBX 22 20 1 -3
BITMAP
080000
100040
200220
400210
400210
400208
80F208
818A04
810604
820204
820204
820204
820204
820208
410608
418A08
207210
200020
100020
000040
ENDCHAR
STARTCHAR 24A0
ENCODING 10577
SWIDTH 2400 0
DWIDTH 24 0
BBX 22 20 1 -3
BITMAP
080000
100040
200020
400010
403010
40CC08
810608
810204
830204
83FE04
820004
830004
810204
818608
40FC08
400008
200010
200020
100020
000040
ENDCHAR
STARTCHAR 24A1
ENCODING 10578
SWIDTH 2400 0
DWIDTH 24 0
BBX 22 20 1 -3
BITMAP
080000
100040
200020
403810
402010
402008
802008
80F804
802004
802004
802004
802004
802004
802008
402008
402008
202010
200020
100020
000040
ENDCHAR
STARTCHAR 24A2
ENCODING 10579
SWIDTH 2400 0
DWIDTH 24 0
BBX 22 20 1 -3
BITMAP
080000
100040
200020
407D10
408710
410308
810108
810104
810104
810104
810104
818304
80ED04
801108
410108
418208
20FC10
200020
100020
000040
ENDCHAR
STARTCHAR 24A3
ENCODING 10580
SWIDTH 2400 0
DWIDTH 24 0
BBX 22 20 1 -3
BITMAP
080000
100040
218020
418010
418010
418008
81BC08
81C604
818204
818204
818204
818204
818204
818208
418208
418208
218210
200020
100020
000040
ENDCHAR
STARTCHAR 24A4
ENCODING 10581
SWIDTH 2400 0
DWIDTH 24 0
BBX 22 20 1 -3
BITMAP
080000
100040
202020
402010
400010
400008
802008
802004
802004
802004
802004
802004
802004
802008
402008
402008
202010
200020
100020
000040
ENDCHAR
STARTCHAR 24A5
ENCODING 10582
SWIDTH 2400 0
DWIDTH 24 0
BBX 22 20 1 -3
BITMAP
080000
101040
200020
400010
400010
401008
801008
801004
801004
801004
801004
801004
801004
801008
401008
401008
201010
203020
106020
000040
ENDCHAR
STARTCHAR 24A6
ENCODING 10583
SWIDTH 2400 0
DWIDTH 24 0
BBX 22 20 1 -3
BITMAP
080000
100040
210020
410010
410010
410008
810608
810C04
811004
812004
816004
81B004
811004
810808
410C08
410408
210210
200020
100020
000040
ENDCHAR
STARTCHAR 24A7
ENCODING 10584
SWIDTH 2400 0
DWIDTH 24 0
BBX 22 20 1 -3
BITMAP
080000
100040
202020
402010
402010
402008
802008
802004
802004
802004
802004
802004
802004
802008
402008
402008
202010
200020
100020
000040
ENDCHAR
STARTCHAR 24A8
ENCODING 10585
SWIDTH 2400 0
DWIDTH 24 0
BBX 22 20 1 -3
BITMAP
080000
100040
200020
400010
49C790
4A28C8
8C1048
8C1044
881044
881044
881044
881044
881044
881048
481048
400008
200010
200020
100020
000040
ENDCHAR
STARTCHAR 24A9
ENCODING 10586
SWIDTH 2400 0
DWIDTH 24 0
BBX 22 20 1 -3
BITMAP
080000
100040
200020
400010
401810
416408
818208
810204
810204
810204
810204
810204
810204
810208
410208
400008
200010
200020
100020
000040
ENDCHAR
STARTCHAR 24AA
ENCODING 10587
SWIDTH 2400 0
DWIDTH 24 0
BBX 22 20 1 -3
BITMAP
080000
100040
200020
400010
407C10
418608
810208
820104
820104
820104
820104
820104
810204
418608
40FC08
400008
200010
100020
000020
000040
ENDCHAR
STARTCHAR 24AB
ENCODING 10588
SWIDTH 2400 0
DWIDTH 24 0
BBX 22 20 1 -3
BITMAP
080000
100040
200020
40BE10
40C310
408188
808188
810184
810084
808184
808184
808104
80E704
809C08
408008
408008
208010
200020
100020
000040
ENDCHAR
STARTCHAR 24AC
ENCODING 10589
SWIDTH 2400 0
DWIDTH 24 0
BBX 22 20 1 -3
BITMAP
080000
100040
200020
40F210
418A10
430608
820208
820204
820204
820204
820204
830604
818A04
807208
400208
400208
200210
200020
100020
000040
ENDCHAR
STARTCHAR 24AD
ENCODING 10590
SWIDTH 2400 0
DWIDTH 24 0
BBX 22 20 1 -3
BITMAP
080000
100040
200020
400010
400010
405C08
806008
804004
804004
804004
804004
804004
804004
804008
404008
400008
200010
200020
100020
000040
ENDCHAR
STARTCHAR 24AE
ENCODING 10591
SWIDTH 2400 0
DWIDTH 24 0
BBX 22 20 1 -3
BITMAP
080000
100040
200020
400010
407810
408408
810608
818004
80C004
803804
800604
810204
810204
80C408
407808
400008
200010
200020
100020
000040
ENDCHAR
STARTCHAR 24AF
ENCODING 10592
SWIDTH 2400 0
DWIDTH 24 0
BBX 22 20 1 -3
BITMAP
080000
100040
200020
402010
402010
402008
80F808
802004
802004
802004
802004
802004
802004
802008
402008
403808
200010
200020
100020
000040
ENDCHAR
STARTCHAR 24B0
ENCODING 10593
SWIDTH 2400 0
DWIDTH 24 0
BBX 22 20 1 -3
BITMAP
080000
100040
200020
400010
400010
410208
810208
810204
810204
810204
810204
810204
810204
810608
40DA08
402008
200010
200020
100020
000040
ENDCHAR
STARTCHAR 24B1
ENCODING 10594
SWIDTH 2400 0
DWIDTH 24 0
BBX 22 20 1 -3
BITMAP
080000
100040
200020
400010
400010
420308
810208
810204
808404
808404
808404
804804
804804
803008
403008
403008
200010
200020
100020
000040
ENDCHAR
STARTCHAR 24B2
ENCODING 10595
SWIDTH 2400 0
DWIDTH 24 0
BBX 22 20 1 -3
BITMAP
080000
100040
200020
400010
400010
481048
843048
843084
842884
864884
824884
824504
828504
818508
418208
418208
200010
200020
100020
000040
ENDCHAR
STARTCHAR 24B3
ENCODING 10596
SWIDTH 2400 0
DWIDTH 24 0
BBX 22 20 1 -3
BITMAP
080000
100040
200020
400010
400010
418608
808408
804804
803004
803004
803004
804804
80C404
818608
410208
400008
200010
200020
100020
000040
ENDCHAR
STARTCHAR 24B4
ENCODING 10597
SWIDTH 2400 0
DWIDTH 24 0
BBX 22 20 1 -3
BITMAP
080000
100040
200020
400010
410210
418208
808208
808404
804404
804404
806804
802804
803804
801008
401008
402008
202010
20C020
100020
000040
ENDCHAR
STARTCHAR 24B5
ENCODING 10598
SWIDTH 2400 0
DWIDTH 24 0
BBX 22 20 1 -3
BITMAP
080000
100040
200020
400010
400010
41FE08
800408
800C04
801804
803004
802004
804004
808004
818008
41FE08
400008
200010
200020
100020
000040
ENDCHAR
STARTCHAR 2474
ENCODING 10599
SWIDTH 2400 0
DWIDTH 24 0
BBX 22 20 1 -3
BITMAP
080000
100040
201020
401010
403010
40F008
801008
801004
801004
801004
801004
801004
801004
801008
401008
401008
201010
200020
100020
000040
ENDCHAR
STARTCHAR 2475
ENCODING 10600
SWIDTH 2400 0
DWIDTH 24 0
BBX 22 20 1 -3
BITMAP
080000
100040
207C20
40C610
418210
410308
810308
800204
800204
800404
801804
807004
80C004
818008
410008
410008
23FF10
200020
100020
000040
ENDCHAR
STARTCHAR 2476
ENCODING 10601
SWIDTH 2400 0
DWIDTH 24 0
BBX 22 20 1 -3
BITMAP
080000
100040
207820
40CC10
410610
410208
830208
800604
800C04
803804
800604
800204
800204
820308
430208
410608
20FC10
203020
100020
000040
ENDCHAR
STARTCHAR 2477
ENCODING 10602
SWIDTH 2400 0
DWIDTH 24 0
BBX 22 20 1 -3
BITMAP
080000
100040
200020
400810
401810
403808
802808
806804
804804
808804
818804
810804
820804
83FE08
400808
400808
200810
200820
100020
000040
ENDCHAR
STARTCHAR 2478
ENCODING 10603
SWIDTH 2400 0
DWIDTH 24 0
BBX 22 20 1 -3
BITMAP
080000
100040
200020
40FE10
408010
408008
808008
808004
80FC04
81C604
810304
800104
800104
800108
418108
418208
20EE10
201820
100020
000040
ENDCHAR
STARTCHAR 2479
ENCODING 10604
SWIDTH 2400 0
DWIDTH 24 0
BBX 22 20 1 -3
BITMAP
080000
100040
203820
40EE10
408210
410208
810008
810004
837C04
83C604
838304
830104
830104
810108
418108
408208
207C10
200020
100020
000040
ENDCHAR
STARTCHAR 247A
ENCODING 10605
SWIDTH 2400 0
DWIDTH 24 0
BBX 22 20 1 -3
BITMAP
080000
100040
200020
41FF10
400210
400408
800C08
800804
801804
801004
803004
802004
802004
806008
404008
404008
204010
200020
100020
000040
ENDCHAR
STARTCHAR 247B
ENCODING 10606
SWIDTH 2400 0
DWIDTH 24 0
BBX 22 20 1 -3
BITMAP
080000
100040
207C20
408610
410210
410308
810208
810204
808404
80FC04
818204
810104
810104
810108
410108
418208
207C10
200020
100020
000040
ENDCHAR
STARTCHAR 247C
ENCODING 10607
SWIDTH 2400 0
DWIDTH 24 0
BBX 22 20 1 -3
BITMAP
080000
100040
207020
41DC10
410610
420208
820308
820304
820304
810704
808D04
807104
800304
800308
410208
418608
20FC10
202020
100020
000040
ENDCHAR
STARTCHAR 247D
ENCODING 10608
SWIDTH 2400 0
DWIDTH 24 0
BBX 22 20 1 -3
BITMAP
080000
100040
220720
420490
4E0890
420848
820848
820844
820844
820844
820844
820844
820844
820848
420848
420448
220490
2203A0
100020
000040
ENDCHAR
STARTCHAR 247E
ENCODING 10609
SWIDTH 2400 0
DWIDTH 24 0
BBX 22 20 1 -3
BITMAP
080000
100040
210120
410110
470710
410108
810108
810104
810104
810104
810104
810104
810104
810108
410108
410108
210110
210120
100020
000040
ENDCHAR
STARTCHAR 247F
ENCODING 10610
SWIDTH 2400 0
DWIDTH 24 0
BBX 22 20 1 -3
BITMAP
080000
100040
2207A0
420890
4E18D0
421048
8200C8
820084
820184
820304
820604
820404
820804
820808
421808
421008
221010
201FA0
100020
000040
ENDCHAR
STARTCHAR 2480
ENCODING 10611
SWIDTH 2400 0
DWIDTH 24 0
BBX 22 20 1 -3
BITMAP
080000
100040
2207A0
420C90
4E0850
420048
820048
820084
820304
820384
820044
820044
820044
820848
420848
420848
220490
2207A0
100020
000040
ENDCHAR
STARTCHAR 2481
ENCODING 10612
SWIDTH 2400 0
DWIDTH 24 0
BBX 22 20 1 -3
BITMAP
080000
100040
220120
420310
4E0310
420308
820508
820504
820904
820904
820904
821104
821104
821F88
420108
420108
220110
200120
100020
000040
ENDCHAR
STARTCHAR 2482
ENCODING 10613
SWIDTH 2400 0
DWIDTH 24 0
BBX 22 20 1 -3
BITMAP
080000
100040
220FA0
420810
4E0810
420808
820808
820B84
820C84
820844
820844
820044
820044
820048
420848
420848
220C90
220320
100020
000040
ENDCHAR
STARTCHAR 00B9
ENCODING 10614
SWIDTH 2400 0
DWIDTH 24 0
BBX 3 10 11 8
BITMAP
20
60
E0
20
20
20
20
20
20
20
ENDCHAR
STARTCHAR 00B2
ENCODING 10615
SWIDTH 2400 0
DWIDTH 24 0
BBX 6 10 9 8
BITMAP
78
C4
84
04
04
18
60
C0
80
FC
ENDCHAR
STARTCHAR 00B3
ENCODING 10616
SWIDTH 2400 0
DWIDTH 24 0
BBX 7 10 8 8
BITMAP
3C
46
82
06
18
06
02
82
C6
3C
ENDCHAR
STARTCHAR 2074
ENCODING 10617
SWIDTH 2400 0
DWIDTH 24 0
BBX 6 10 9 8
BITMAP
08
18
28
48
48
88
FC
08
08
08
ENDCHAR
STARTCHAR 207F
ENCODING 10618
SWIDTH 2400 0
DWIDTH 24 0
BBX 6 8 9 8
BITMAP
FC
84
84
84
84
84
84
84
ENDCHAR
STARTCHAR 2081
ENCODING 10619
SWIDTH 2400 0
DWIDTH 24 0
BBX 3 10 11 -4
BITMAP
20
60
E0
20
20
20
20
20
20
20
ENDCHAR
STARTCHAR 2082
ENCODING 10620
SWIDTH 2400 0
DWIDTH 24 0
BBX 6 10 9 -4
BITMAP
78
84
84
04
0C
18
60
80
80
FC
ENDCHAR
STARTCHAR 2083
ENCODING 10621
SWIDTH 2400 0
DWIDTH 24 0
BBX 7 10 8 -4
BITMAP
3C
46
42
02
0C
0C
02
82
82
7C
ENDCHAR
STARTCHAR 2084
ENCODING 10622
SWIDTH 2400 0
DWIDTH 24 0
BBX 6 10 9 -4
BITMAP
08
18
28
48
48
88
FC
08
08
08
ENDCHAR
STARTCHAR 3041
ENCODING 10785
SWIDTH 2400 0
DWIDTH 24 0
BBX 12 14 6 -3
BITMAP
0C00
0800
0F80
7800
0800
0900
0FE0
3B10
4A10
8C10
8C10
BC30
E060
0080
ENDCHAR
STARTCHAR 3042
ENCODING 10786
SWIDTH 2400 0
DWIDTH 24 0
BBX 18 20 3 -3
BITMAP
010000
010000
030000
037800
3FC000
020000
021000
021000
03FE00
063300
0A2080
3260C0
224040
42C040
C38040
8300C0
C70080
FD8100
700600
000C00
ENDCHAR
STARTCHAR 3043
ENCODING 10787
SWIDTH 2400 0
DWIDTH 24 0
BBX 12 9 6 -2
BITMAP
8000
8040
8040
8020
8020
8010
4010
6800
3000
ENDCHAR
STARTCHAR 3044
ENCODING 10788
SWIDTH 2400 0
DWIDTH 24 0
BBX 18 14 3 0
BITMAP
C00000
800000
800600
800200
800300
800100
C00180
C00080
4000C0
400080
600000
230000
360000
1C0000
ENDCHAR
STARTCHAR 3045
ENCODING 10789
SWIDTH 2400 0
DWIDTH 24 0
BBX 8 15 8 -3
BITMAP
10
0E
00
00
00
1E
73
81
01
01
01
02
02
04
08
ENDCHAR
STARTCHAR 3046
ENCODING 10790
SWIDTH 2400 0
DWIDTH 24 0
BBX 11 20 7 -3
BITMAP
0800
0E00
0380
0000
0000
0300
1FC0
E040
8060
0060
0060
0060
0060
0040
0040
00C0
0180
0300
0600
0400
ENDCHAR
STARTCHAR 3047
ENCODING 10791
SWIDTH 2400 0
DWIDTH 24 0
BBX 12 13 6 -3
BITMAP
0600
0300
0000
0000
1F00
2200
0400
0800
1E00
1100
2100
4100
80F0
ENDCHAR
STARTCHAR 3048
ENCODING 10792
SWIDTH 2400 0
DWIDTH 24 0
BBX 16 19 4 -2
BITMAP
0200
01C0
0060
0000
0000
0040
0FF0
3840
0080
0180
0300
0600
07C0
0C40
1040
3060
6060
C033
001F
ENDCHAR
STARTCHAR 3049
ENCODING 10793
SWIDTH 2400 0
DWIDTH 24 0
BBX 12 13 6 -3
BITMAP
1000
1000
1460
7810
1000
1000
17E0
3820
5010
9030
9020
D0C0
2000
ENDCHAR
STARTCHAR 304A
ENCODING 10794
SWIDTH 2400 0
DWIDTH 24 0
BBX 17 19 4 -2
BITMAP
080000
080000
080000
080400
0B8700
7C0180
080000
080000
080000
09FC00
0E0600
180300
680300
C80100
880300
880200
880400
783800
100000
ENDCHAR
STARTCHAR 304B
ENCODING 10795
SWIDTH 2400 0
DWIDTH 24 0
BBX 20 18 2 -2
BITMAP
030000
020000
020000
060100
064180
3FF0C0
741060
0C1820
081830
081800
181000
101000
301000
203000
602000
C06000
03C000
010000
ENDCHAR
STARTCHAR 304C
ENCODING 10796
SWIDTH 2400 0
DWIDTH 24 0
BBX 20 19 2 -1
BITMAP
000020
000010
030080
020040
020000
060100
04C180
3FF0C0
641040
0C1060
081030
181000
101000
301000
203000
603000
402000
C06000
03C000
ENDCHAR
STARTCHAR 304D
ENCODING 10797
SWIDTH 2400 0
DWIDTH 24 0
BBX 14 19 5 -2
BITMAP
0600
0600
0230
03E0
3F00
0188
00BC
01E0
7F40
0060
0030
0010
3FF8
4018
C000
C000
6000
3800
0FC0
ENDCHAR
STARTCHAR 304E
ENCODING 10798
SWIDTH 2400 0
DWIDTH 24 0
BBX 17 19 3 -2
BITMAP
060100
060480
023600
03E200
3F0000
018000
00BC00
01E000
7F4000
002000
003000
001000
3FF800
401800
C00000
400000
600000
380000
0FC000
ENDCHAR
STARTCHAR 304F
ENCODING 10799
SWIDTH 2400 0
DWIDTH 24 0
BBX 8 19 8 -2
BITMAP
02
06
04
0C
18
30
20
40
80
C0
60
20
10
18
0C
06
06
03
01
ENDCHAR
STARTCHAR 3050
ENCODING 10800
SWIDTH 2400 0
DWIDTH 24 0
BBX 14 19 5 -2
BITMAP
0200
0300
0600
0C00
0808
1024
2030
4000
C000
C000
6000
3000
1800
0800
0C00
0600
0300
0300
0100
ENDCHAR
STARTCHAR 3051
ENCODING 10801
SWIDTH 2400 0
DWIDTH 24 0
BBX 18 19 3 -2
BITMAP
600C00
600C00
400400
400400
4005C0
41FF00
C00400
C00400
800400
800400
800400
C00400
400400
600C00
600800
600800
601800
003000
002000
ENDCHAR
STARTCHAR 3052
ENCODING 10802
SWIDTH 2400 0
DWIDTH 24 0
BBX 20 21 2 -2
BITMAP
000060
000030
400D80
600CC0
400400
400400
4005C0
C1FF00
800400
800400
800400
800400
800400
800400
800C00
E00C00
E00800
601800
601000
603000
006000
ENDCHAR
STARTCHAR 3053
ENCODING 10803
SWIDTH 2400 0
DWIDTH 24 0
BBX 14 15 5 0
BITMAP
1810
0FF0
0000
0000
0000
0000
0000
0000
0000
C000
8000
8000
C000
7004
1FFC
ENDCHAR
STARTCHAR 3054
ENCODING 10804
SWIDTH 2400 0
DWIDTH 24 0
BBX 19 15 2 0
BITMAP
1C1800
0FF840
000020
000180
0000C0
000000
000000
000000
000000
400000
C00000
C00000
400000
380600
0FFE00
ENDCHAR
STARTCHAR 3055
ENCODING 10805
SWIDTH 2400 0
DWIDTH 24 0
BBX 13 18 5 -2
BITMAP
0300
0100
0118
00F0
7F80
0040
0060
0020
0010
0F18
70F8
4008
8000
8000
C000
6000
3FC0
07C0
ENDCHAR
STARTCHAR 3056
ENCODING 10806
SWIDTH 2400 0
DWIDTH 24 0
BBX 18 20 3 -2
BITMAP
000180
0000C0
020200
030100
011800
01F000
7F8000
00C000
004000
002000
003000
1F1000
70F800
C00800
800000
800000
C00000
600000
3FC000
07C000
ENDCHAR
STARTCHAR 3057
ENCODING 10807
SWIDTH 2400 0
DWIDTH 24 0
BBX 13 18 5 -1
BITMAP
6000
4000
4000
4000
4000
4000
4000
4000
C000
C000
C000
C000
C008
4008
4018
4030
30C0
1F00
ENDCHAR
STARTCHAR 3058
ENCODING 10808
SWIDTH 2400 0
DWIDTH 24 0
BBX 13 19 5 -2
BITMAP
4000
4000
4030
4090
4040
4000
4000
4000
4000
C000
C000
C000
C000
C008
4018
4030
6060
3FC0
0400
ENDCHAR
STARTCHAR 3059
ENCODING 10809
SWIDTH 2400 0
DWIDTH 24 0
BBX 19 20 3 -3
BITMAP
003000
002000
002000
002000
FFFFE0
E02000
002000
01A000
066000
046000
082000
086000
046000
07E000
002000
002000
004000
00C000
018000
030000
ENDCHAR
STARTCHAR 305A
ENCODING 10810
SWIDTH 2400 0
DWIDTH 24 0
BBX 19 22 3 -3
BITMAP
000080
000060
000300
003080
002000
002000
3FFFE0
E02000
002000
01A000
066000
042000
082000
086000
046000
07E000
002000
002000
004000
00C000
018000
030000
ENDCHAR
STARTCHAR 305B
ENCODING 10811
SWIDTH 2400 0
DWIDTH 24 0
BBX 19 17 3 -1
BITMAP
000400
0C0400
0C0400
0C0400
0C0400
0C7FE0
FF8400
CC0400
0C0400
0C0400
0C0800
0C3800
040000
040000
040000
060000
03FF00
ENDCHAR
STARTCHAR 305C
ENCODING 10812
SWIDTH 2400 0
DWIDTH 24 0
BBX 20 18 2 -1
BITMAP
000020
000610
060640
040420
040400
040400
04FFE0
FF8400
840400
040400
040400
040400
043C00
041000
040000
040000
020100
01FF00
ENDCHAR
STARTCHAR 305D
ENCODING 10813
SWIDTH 2400 0
DWIDTH 24 0
BBX 17 19 3 -2
BITMAP
000400
080C00
041800
061000
002000
004000
00CF80
03FE00
FC1000
406000
004000
008000
008000
010000
018000
008000
00C000
007C00
001C00
ENDCHAR
STARTCHAR 305E
ENCODING 10814
SWIDTH 2400 0
DWIDTH 24 0
BBX 20 19 2 -2
BITMAP
000800
001820
081090
0C3040
006000
004000
008F80
03FC00
FC3000
C04000
008000
018000
010000
010000
010000
018000
00C000
007800
001800
ENDCHAR
STARTCHAR 305F
ENCODING 10815
SWIDTH 2400 0
DWIDTH 24 0
BBX 18 18 3 -1
BITMAP
060000
060000
040000
040000
058000
FE0000
0C0000
083F80
080000
080000
180000
100000
100000
304000
308000
208000
607000
401FC0
ENDCHAR
STARTCHAR 3060
ENCODING 10816
SWIDTH 2400 0
DWIDTH 24 0
BBX 20 18 2 -1
BITMAP
060000
060060
040030
040080
058040
FE0000
0C0000
083F80
080000
080000
180000
100000
100000
304000
208000
208000
607000
401F80
ENDCHAR
STARTCHAR 3061
ENCODING 10817
SWIDTH 2400 0
DWIDTH 24 0
BBX 16 17 4 -1
BITMAP
0800
0800
0800
0BE0
FE00
0800
1800
1800
10FC
1386
1E03
1801
0001
0003
0002
000C
01F0
ENDCHAR
STARTCHAR 3062
ENCODING 10818
SWIDTH 2400 0
DWIDTH 24 0
BBX 18 17 3 -1
BITMAP
080080
080040
080300
0BE180
FC0000
180000
180000
100000
10FC00
138600
1E0300
180100
000100
000300
000600
000C00
01F000
ENDCHAR
STARTCHAR 3063
ENCODING 10819
SWIDTH 2400 0
DWIDTH 24 0
BBX 12 9 6 -3
BITMAP
0FE0
F030
0010
0010
0010
0010
0020
00C0
0300
ENDCHAR
STARTCHAR 3064
ENCODING 10820
SWIDTH 2400 0
DWIDTH 24 0
BBX 18 13 3 0
BITMAP
07FF00
7C0180
E000C0
000040
000040
000040
000040
0000C0
000080
000300
000600
007C00
006000
ENDCHAR
STARTCHAR 3065
ENCODING 10821
SWIDTH 2400 0
DWIDTH 24 0
BBX 20 17 2 0
BITMAP
000020
000090
0000C0
000060
07FF00
7C0180
C00080
000040
000040
000040
000040
000080
000180
000300
000600
007800
006000
ENDCHAR
STARTCHAR 3066
ENCODING 10822
SWIDTH 2400 0
DWIDTH 24 0
BBX 17 17 4 -1
BITMAP
000F00
0FFF80
F83000
006000
00C000
008000
018000
010000
010000
010000
010000
010000
018000
008000
006000
003E00
000C00
ENDCHAR
STARTCHAR 3067
ENCODING 10823
SWIDTH 2400 0
DWIDTH 24 0
BBX 20 17 2 -1
BITMAP
000780
07FF80
F81800
802000
004020
00C030
008080
018040
010000
010000
010000
018000
008000
00C000
006000
003E00
000600
ENDCHAR
STARTCHAR 3068
ENCODING 10824
SWIDTH 2400 0
DWIDTH 24 0
BBX 12 17 6 -1
BITMAP
3000
3000
1000
1830
18E0
0980
0F00
1C00
3000
6000
C000
8000
8000
8000
8000
6030
3FF0
ENDCHAR
STARTCHAR 3069
ENCODING 10825
SWIDTH 2400 0
DWIDTH 24 0
BBX 17 18 3 -1
BITMAP
000100
100080
180200
180100
081800
0C7000
05C000
070000
0E0000
180000
200000
400000
C00000
C00000
C00000
400000
701800
1FF800
ENDCHAR
STARTCHAR 306A
ENCODING 10826
SWIDTH 2400 0
DWIDTH 24 0
BBX 18 19 3 -2
BITMAP
060000
040000
040000
0D8200
FF0180
0800C0
080040
181000
101000
301000
201000
601000
C01000
001000
03F000
061E00
061300
061000
03E000
ENDCHAR
STARTCHAR 306B
ENCODING 10827
SWIDTH 2400 0
DWIDTH 24 0
BBX 16 17 4 -1
BITMAP
4000
4000
C1FF
8100
8000
8000
8000
8000
8000
8000
8000
8180
A100
A100
C0FF
C01F
4000
ENDCHAR
STARTCHAR 306C
ENCODING 10828
SWIDTH 2400 0
DWIDTH 24 0
BBX 19 17 2 -1
BITMAP
006000
004000
004000
204000
21FE00
364180
18C080
1880C0
288040
4C8040
450040
430040
C30040
C79FC0
4C21C0
783360
001E20
ENDCHAR
STARTCHAR 306D
ENCODING 10829
SWIDTH 2400 0
DWIDTH 24 0
BBX 20 19 2 -2
BITMAP
040000
040000
040000
040000
0E0F00
3E3980
4CC080
0980C0
0A0040
0C0040
180040
380040
280040
681FC0
C831C0
0821F0
083710
081E00
080000
ENDCHAR
STARTCHAR 306E
ENCODING 10830
SWIDTH 2400 0
DWIDTH 24 0
BBX 20 15 2 -1
BITMAP
01FE00
062180
1820C0
102060
206020
404020
40C030
40C030
C08020
C18020
410060
630040
3600C0
1C0380
000200
ENDCHAR
STARTCHAR 306F
ENCODING 10831
SWIDTH 2400 0
DWIDTH 24 0
BBX 18 18 3 -2
BITMAP
200C00
600C00
400C00
400C00
41FF80
C0FC00
C00C00
C00400
800400
800400
800400
800400
803C00
F18700
E105C0
610400
61F800
607000
ENDCHAR
STARTCHAR 3070
ENCODING 10832
SWIDTH 2400 0
DWIDTH 24 0
BBX 20 20 2 -2
BITMAP
000060
000030
000880
600840
400800
400880
41FF80
C0F800
C00800
800800
800800
800800
800800
800800
807800
E1CE00
E30B80
630880
419800
60E000
ENDCHAR
STARTCHAR 3071
ENCODING 10833
SWIDTH 2400 0
DWIDTH 24 0
BBX 20 19 2 -2
BITMAP
0000F0
200890
600890
6008F0
400800
419F80
41F800
400800
C00800
C00800
800800
800800
C00800
C03800
D1FE00
610B80
630880
619800
60F000
ENDCHAR
STARTCHAR 3072
ENCODING 10834
SWIDTH 2400 0
DWIDTH 24 0
BBX 18 17 3 -1
BITMAP
000C00
0C0C00
FC0C00
080E00
100700
300580
2004C0
600440
400400
400400
400C00
400800
400800
401800
603000
306000
1FC000
ENDCHAR
STARTCHAR 3073
ENCODING 10835
SWIDTH 2400 0
DWIDTH 24 0
BBX 20 18 2 -1
BITMAP
000060
000C30
0C0C90
FC0C40
880600
100700
300580
2004C0
200440
400400
400400
400400
400C00
400800
401800
601000
306000
1FC000
ENDCHAR
STARTCHAR 3074
ENCODING 10836
SWIDTH 2400 0
DWIDTH 24 0
BBX 20 18 2 -1
BITMAP
0000F0
000490
0C0C90
FC0CF0
880600
100700
100580
2004C0
200440
400400
400400
400400
400C00
400800
400800
601000
302000
1FC000
ENDCHAR
STARTCHAR 3075
ENCODING 10837
SWIDTH 2400 0
DWIDTH 24 0
BBX 20 17 2 -1
BITMAP
00C000
007000
001000
002000
000000
000000
018000
018000
008000
00C000
006080
0030C0
C01060
401830
680800
30F800
006000
ENDCHAR
STARTCHAR 3076
ENCODING 10838
SWIDTH 2400 0
DWIDTH 24 0
BBX 20 17 2 -1
BITMAP
00C000
007000
001040
002020
000180
0000C0
018000
018000
008000
00C000
006080
0030C0
C01060
401830
680800
30F800
006000
ENDCHAR
STARTCHAR 3077
ENCODING 10839
SWIDTH 2400 0
DWIDTH 24 0
BBX 20 17 2 -1
BITMAP
00C000
007000
0011E0
002120
000120
000120
0180C0
018000
008000
00C000
006080
0030C0
C01060
401830
680800
30F800
006000
ENDCHAR
STARTCHAR 3078
ENCODING 10840
SWIDTH 2400 0
DWIDTH 24 0
BBX 20 9 2 2
BITMAP
078000
0CC000
186000
301800
600C00
C00700
0001C0
000070
000030
ENDCHAR
STARTCHAR 3079
ENCODING 10841
SWIDTH 2400 0
DWIDTH 24 0
BBX 20 12 2 2
BITMAP
000080
000040
000200
078100
0CC000
186000
301800
600C00
C00700
0001C0
000070
000030
ENDCHAR
STARTCHAR 307A
ENCODING 10842
SWIDTH 2400 0
DWIDTH 24 0
BBX 20 12 2 2
BITMAP
0001C0
000220
000220
078240
0CC180
186000
301800
600C00
C00700
0001C0
000070
000030
ENDCHAR
STARTCHAR 307B
ENCODING 10843
SWIDTH 2400 0
DWIDTH 24 0
BBX 18 18 3 -2
BITMAP
200180
61FF00
600400
400400
400400
400480
C1FF00
C00400
800400
800400
800400
800400
800400
A1FE00
A20780
C204C0
419C00
40F000
ENDCHAR
STARTCHAR 307C
ENCODING 10844
SWIDTH 2400 0
DWIDTH 24 0
BBX 20 18 2 -2
BITMAP
200300
63FE20
600810
400880
400840
400900
C3FE00
C00800
800800
800800
800800
800800
800800
A3FC00
A20F00
C20980
433800
41E000
ENDCHAR
STARTCHAR 307D
ENCODING 10845
SWIDTH 2400 0
DWIDTH 24 0
BBX 20 18 2 -2
BITMAP
000300
63FEE0
600910
400890
4008F0
C00900
C3FF00
800800
800800
800800
800800
800800
800800
A3FC00
C20F00
C20980
C3B800
41E000
ENDCHAR
STARTCHAR 307E
ENCODING 10846
SWIDTH 2400 0
DWIDTH 24 0
BBX 12 19 6 -2
BITMAP
0100
0100
0100
0130
7FC0
0100
0100
0110
7FE0
0100
0100
0100
0100
1F00
67C0
8170
8310
4700
3800
ENDCHAR
STARTCHAR 307F
ENCODING 10847
SWIDTH 2400 0
DWIDTH 24 0
BBX 19 17 3 -2
BITMAP
01E000
0E2000
004000
004000
008100
008100
018100
010100
1FF300
620E00
460380
840660
8C0400
880C00
F81800
703000
002000
ENDCHAR
STARTCHAR 3080
ENCODING 10848
SWIDTH 2400 0
DWIDTH 24 0
BBX 18 19 3 -2
BITMAP
040000
040000
040000
040100
7F8180
0400C0
040040
040000
7C0000
840000
840000
840000
840000
CC0000
780100
080100
080100
0C0300
07FC00
ENDCHAR
STARTCHAR 3081
ENCODING 10849
SWIDTH 2400 0
DWIDTH 24 0
BBX 18 17 3 -1
BITMAP
001000
003000
203000
202000
13FE00
146300
184080
2840C0
6CC040
448040
878040
830040
8300C0
858080
D80100
200600
001800
ENDCHAR
STARTCHAR 3082
ENCODING 10850
SWIDTH 2400 0
DWIDTH 24 0
BBX 14 19 5 -2
BITMAP
0C00
0800
0800
0800
5800
7F00
1000
1000
1000
1030
FF18
300C
200C
2004
3004
100C
1008
0C38
07E0
ENDCHAR
STARTCHAR 3083
ENCODING 10851
SWIDTH 2400 0
DWIDTH 24 0
BBX 13 13 6 -3
BITMAP
0400
0200
4000
41F0
2E18
3008
D018
1170
0880
0800
0400
0400
0600
ENDCHAR
STARTCHAR 3084
ENCODING 10852
SWIDTH 2400 0
DWIDTH 24 0
BBX 18 19 3 -2
BITMAP
008000
00C000
006000
300000
301F80
10E040
1B0040
0C0040
3C0040
E400C0
862180
023F00
030000
010000
018000
018000
00C000
00C000
004000
ENDCHAR
STARTCHAR 3085
ENCODING 10853
SWIDTH 2400 0
DWIDTH 24 0
BBX 13 13 5 -3
BITMAP
0080
4080
41E0
4690
4888
9088
A088
A088
4510
43F0
41C0
0200
0600
ENDCHAR
STARTCHAR 3086
ENCODING 10854
SWIDTH 2400 0
DWIDTH 24 0
BBX 17 18 4 -2
BITMAP
006000
602000
C02000
C0FC00
832300
862100
882080
902080
B02080
A02080
C02080
C02100
C32300
81FE00
807C00
C04000
008000
010000
ENDCHAR
STARTCHAR 3087
ENCODING 10855
SWIDTH 2400 0
DWIDTH 24 0
BBX 10 13 7 -3
BITMAP
0400
0400
0400
0780
0400
0400
0400
0400
0400
7E00
8580
CC40
7800
ENDCHAR
STARTCHAR 3088
ENCODING 10856
SWIDTH 2400 0
DWIDTH 24 0
BBX 14 19 5 -2
BITMAP
0100
0100
0100
0100
010C
01F8
0100
0100
0100
0100
0100
0100
0100
3F00
41E0
8338
830C
6700
3E00
ENDCHAR
STARTCHAR 3089
ENCODING 10857
SWIDTH 2400 0
DWIDTH 24 0
BBX 13 18 6 -1
BITMAP
3000
1C00
0400
0000
C000
C000
C000
C000
C080
C7F0
9818
A008
C008
0008
0008
0018
0070
07C0
ENDCHAR
STARTCHAR 308A
ENCODING 10858
SWIDTH 2400 0
DWIDTH 24 0
BBX 10 19 7 -2
BITMAP
4040
C040
8040
8040
8040
8040
8040
8040
A040
C040
C040
C0C0
C0C0
0080
0180
0180
0300
0200
0400
ENDCHAR
STARTCHAR 308B
ENCODING 10859
SWIDTH 2400 0
DWIDTH 24 0
BBX 16 17 4 -1
BITMAP
01E0
3F60
00C0
0180
0300
0600
0CF0
1F0C
3802
6003
C001
0003
0783
08C2
0846
0C7C
07F0
ENDCHAR
STARTCHAR 308C
ENCODING 10860
SWIDTH 2400 0
DWIDTH 24 0
BBX 18 19 3 -2
BITMAP
0C0000
080000
080000
100000
087800
3C8C00
EF0400
160400
080C00
100C00
100800
300800
300800
500800
D01840
9018C0
100F80
100F00
100000
ENDCHAR
STARTCHAR 308D
ENCODING 10861
SWIDTH 2400 0
DWIDTH 24 0
BBX 15 18 5 -2
BITMAP
00C0
3FE0
0080
0100
0200
0600
0C00
18E0
1F38
3804
6006
C002
8002
0006
000C
0018
01F0
01C0
ENDCHAR
STARTCHAR 308E
ENCODING 10862
SWIDTH 2400 0
DWIDTH 24 0
BBX 13 13 6 -3
BITMAP
1000
1000
1000
3800
D3F0
1C10
3008
3008
5008
D018
9030
10C0
1000
ENDCHAR
STARTCHAR 308F
ENCODING 10863
SWIDTH 2400 0
DWIDTH 24 0
BBX 19 18 3 -1
BITMAP
040000
040000
040000
040000
060000
3E0E00
447380
0580C0
060040
080060
180060
380060
280040
6800C0
C80180
080300
080E00
080000
ENDCHAR
STARTCHAR 3090
ENCODING 10864
SWIDTH 2400 0
DWIDTH 24 0
BBX 18 18 3 -2
BITMAP
006000
1FA000
006000
004000
00C000
008000
01FE00
078300
190180
330080
620040
460040
C40040
84F080
899880
C98D00
70CE00
003800
ENDCHAR
STARTCHAR 3091
ENCODING 10865
SWIDTH 2400 0
DWIDTH 24 0
BBX 18 18 3 -1
BITMAP
001000
0FF800
003000
004000
008000
017800
038600
060200
180300
11C300
024300
018600
037800
0C0000
101E00
3E6180
4140C0
C08080
ENDCHAR
STARTCHAR 3092
ENCODING 10866
SWIDTH 2400 0
DWIDTH 24 0
BBX 16 19 4 -2
BITMAP
0300
0200
0600
7FC0
0C00
0800
1800
1780
38C3
605E
4070
C1E0
0660
0C60
0860
0800
0800
0F18
01F8
ENDCHAR
STARTCHAR 3093
ENCODING 10867
SWIDTH 2400 0
DWIDTH 24 0
BBX 18 17 3 -1
BITMAP
008000
00C000
018000
010000
030000
020000
060000
040000
080000
0BC000
1C4000
302000
302040
6030C0
401080
C01900
000E00
ENDCHAR
STARTCHAR 30A1
ENCODING 11041
SWIDTH 2400 0
DWIDTH 24 0
BBX 12 12 6 -3
BITMAP
FFF0
0020
0040
0C80
0D00
0C00
0800
0800
0800
1000
3000
6000
ENDCHAR
STARTCHAR 30A2
ENCODING 11042
SWIDTH 2400 0
DWIDTH 24 0
BBX 17 16 3 -1
BITMAP
FFFF80
000180
000300
000600
018C00
019800
010000
010000
010000
010000
030000
020000
060000
0C0000
180000
300000
ENDCHAR
STARTCHAR 30A3
ENCODING 11043
SWIDTH 2400 0
DWIDTH 24 0
BBX 10 13 8 -3
BITMAP
0080
00C0
0100
0600
0C00
3400
C400
0400
0400
0400
0400
0400
0400
ENDCHAR
STARTCHAR 30A4
ENCODING 11044
SWIDTH 2400 0
DWIDTH 24 0
BBX 14 18 5 -1
BITMAP
0004
000C
0018
0030
0040
0180
0380
0E80
3880
E080
0080
0080
0080
0080
0080
0080
0080
0080
ENDCHAR
STARTCHAR 30A5
ENCODING 11045
SWIDTH 2400 0
DWIDTH 24 0
BBX 10 13 7 -3
BITMAP
0C00
0800
FFC0
8040
8040
8040
00C0
0080
0180
0300
0600
0C00
1800
ENDCHAR
STARTCHAR 30A6
ENCODING 11046
SWIDTH 2400 0
DWIDTH 24 0
BBX 14 19 5 -2
BITMAP
0200
0200
0200
0200
FFFC
800C
800C
800C
800C
8008
0018
0018
0030
0030
0060
00C0
0180
0700
0400
ENDCHAR
STARTCHAR 30A7
ENCODING 11047
SWIDTH 2400 0
DWIDTH 24 0
BBX 13 8 5 -3
BITMAP
3FF0
0200
0200
0200
0200
0200
0200
FFF8
ENDCHAR
STARTCHAR 30A8
ENCODING 11048
SWIDTH 2400 0
DWIDTH 24 0
BBX 17 11 3 2
BITMAP
3FFF00
008000
008000
008000
008000
008000
008000
008000
008000
008000
FFFF80
ENDCHAR
STARTCHAR 30A9
ENCODING 11049
SWIDTH 2400 0
DWIDTH 24 0
BBX 12 12 6 -3
BITMAP
0100
0100
7FF0
1FF0
0300
0700
0D00
1900
3100
C100
0100
0700
ENDCHAR
STARTCHAR 30AA
ENCODING 11050
SWIDTH 2400 0
DWIDTH 24 0
BBX 16 17 4 -1
BITMAP
0020
0020
0020
0020
FFFF
0060
00E0
01A0
0320
0620
0C20
1820
3020
E020
0020
0060
03C0
ENDCHAR
STARTCHAR 30AB
ENCODING 11051
SWIDTH 2400 0
DWIDTH 24 0
BBX 14 17 5 -1
BITMAP
0200
0200
0200
0200
0200
FFFC
0204
0204
0204
0404
0404
0C0C
080C
100C
6008
C038
80E0
ENDCHAR
STARTCHAR 30AC
ENCODING 11052
SWIDTH 2400 0
DWIDTH 24 0
BBX 17 18 4 -1
BITMAP
000100
000080
020600
020300
020000
020000
FFFC00
020400
020400
020400
040400
040400
0C0C00
080C00
100C00
600800
C03800
80E000
ENDCHAR
STARTCHAR 30AD
ENCODING 11053
SWIDTH 2400 0
DWIDTH 24 0
BBX 16 18 4 -2
BITMAP
0300
0300
0300
030C
1FF8
7900
0100
0100
0180
01FF
FF80
8080
0080
0080
00C0
00C0
00C0
0040
ENDCHAR
STARTCHAR 30AE
ENCODING 11054
SWIDTH 2400 0
DWIDTH 24 0
BBX 18 20 3 -2
BITMAP
000080
000240
020300
020100
030000
030C00
1FF800
790000
010000
010000
010000
01FF00
FF8000
818000
008000
008000
008000
008000
00C000
00C000
ENDCHAR
STARTCHAR 30AF
ENCODING 11055
SWIDTH 2400 0
DWIDTH 24 0
BBX 14 18 5 -1
BITMAP
0100
0300
0300
0600
0FFC
180C
300C
6018
C010
0030
0060
00C0
0180
0300
0600
1C00
7000
C000
ENDCHAR
STARTCHAR 30B0
ENCODING 11056
SWIDTH 2400 0
DWIDTH 24 0
BBX 19 19 2 -2
BITMAP
000060
01C120
018080
030040
07FE00
0C0600
180400
300C00
E00800
001800
003000
007000
006000
00C000
038000
070000
0C0000
780000
600000
ENDCHAR
STARTCHAR 30B1
ENCODING 11057
SWIDTH 2400 0
DWIDTH 24 0
BBX 18 18 3 -2
BITMAP
020000
030000
060000
060000
0C0000
0FFFC0
181800
301000
601000
C01000
003000
002000
006000
006000
00C000
018000
030000
020000
ENDCHAR
STARTCHAR 30B2
ENCODING 11058
SWIDTH 2400 0
DWIDTH 24 0
BBX 20 20 2 -2
BITMAP
000020
000010
000080
030040
060000
040000
0C0000
0FFFC0
181000
301000
601000
C03000
802000
002000
006000
004000
00C000
018000
070000
060000
ENDCHAR
STARTCHAR 30B3
ENCODING 11059
SWIDTH 2400 0
DWIDTH 24 0
BBX 13 13 6 0
BITMAP
FFF8
0008
0008
0008
0008
0008
0008
0008
0008
0008
FFF8
0008
0008
ENDCHAR
STARTCHAR 30B4
ENCODING 11060
SWIDTH 2400 0
DWIDTH 24 0
BBX 18 18 3 0
BITMAP
000080
0002C0
000140
000100
000000
FFF800
000800
000800
000800
000800
000800
000800
000800
000800
000800
FFF800
000800
000800
ENDCHAR
STARTCHAR 30B5
ENCODING 11061
SWIDTH 2400 0
DWIDTH 24 0
BBX 18 19 3 -2
BITMAP
040000
040800
040800
040800
040800
040800
FFFFC0
040800
040800
040800
041800
041000
041000
003000
002000
006000
00C000
018000
010000
ENDCHAR
STARTCHAR 30B6
ENCODING 11062
SWIDTH 2400 0
DWIDTH 24 0
BBX 20 20 2 -2
BITMAP
000060
000030
040480
040440
040400
040400
040400
FFFFE0
040C00
040C00
040C00
040800
040800
040800
001800
001000
002000
006000
01C000
010000
ENDCHAR
STARTCHAR 30B7
ENCODING 11063
SWIDTH 2400 0
DWIDTH 24 0
BBX 16 16 4 -1
BITMAP
1000
1C00
0600
0000
8000
C001
7003
1006
000C
0018
0030
00C0
0380
0E00
7800
2000
ENDCHAR
STARTCHAR 30B8
ENCODING 11064
SWIDTH 2400 0
DWIDTH 24 0
BBX 16 17 4 -1
BITMAP
0004
1812
0C08
0404
0000
8000
C001
7003
0006
000C
0018
0030
00C0
0380
0E00
3800
2000
ENDCHAR
STARTCHAR 30B9
ENCODING 11065
SWIDTH 2400 0
DWIDTH 24 0
BBX 16 14 4 0
BITMAP
7FF8
000C
0018
0010
0030
0060
0040
00E0
01B0
0308
0C04
1802
7003
C000
ENDCHAR
STARTCHAR 30BA
ENCODING 11066
SWIDTH 2400 0
DWIDTH 24 0
BBX 18 18 3 0
BITMAP
000080
000240
000100
000080
7FF800
001800
001000
003000
002000
006000
00C000
01E000
033000
061800
0C0C00
380600
E00300
800000
ENDCHAR
STARTCHAR 30BB
ENCODING 11067
SWIDTH 2400 0
DWIDTH 24 0
BBX 17 17 4 -1
BITMAP
040000
040000
040000
040000
041F80
07F980
3F0300
F40600
040400
040C00
041800
040000
040000
040000
040000
07FF00
00FC00
ENDCHAR
STARTCHAR 30BC
ENCODING 11068
SWIDTH 2400 0
DWIDTH 24 0
BBX 20 18 2 0
BITMAP
000060
000030
040080
0400C0
040000
040000
041F80
07F100
7E0300
E40600
040400
040800
041000
040000
040000
040000
040000
07FF00
ENDCHAR
STARTCHAR 30BD
ENCODING 11069
SWIDTH 2400 0
DWIDTH 24 0
BBX 14 16 5 -1
BITMAP
8004
800C
C00C
600C
6008
0018
0010
0030
0060
0040
00C0
0180
0300
0E00
1C00
1000
ENDCHAR
STARTCHAR 30BE
ENCODING 11070
SWIDTH 2400 0
DWIDTH 24 0
BBX 18 20 3 -1
BITMAP
000080
000040
000300
000180
800600
800400
C00C00
600C00
600800
201800
001000
003000
006000
004000
00C000
018000
030000
060000
1C0000
100000
ENDCHAR
STARTCHAR 30BF
ENCODING 11071
SWIDTH 2400 0
DWIDTH 24 0
BBX 15 19 5 -2
BITMAP
0300
0200
0600
0FFC
1806
300C
6008
C418
8710
01B0
00E0
0040
00C0
0180
0300
0C00
1800
7000
C000
ENDCHAR
STARTCHAR 30C0
ENCODING 11072
SWIDTH 2400 0
DWIDTH 24 0
BBX 18 20 3 -2
BITMAP
000080
030240
020100
060080
0FFC00
180600
300C00
600800
C41800
871000
01B000
00E000
004000
00C000
018000
030000
0C0000
180000
700000
C00000
ENDCHAR
STARTCHAR 30C1
ENCODING 11073
SWIDTH 2400 0
DWIDTH 24 0
BBX 18 18 3 -2
BITMAP
000C00
007800
3FE000
006000
006000
006000
006000
FFFFC0
004000
004000
004000
00C000
008000
018000
030000
060000
1C0000
100000
ENDCHAR
STARTCHAR 30C2
ENCODING 11074
SWIDTH 2400 0
DWIDTH 24 0
BBX 20 18 2 -2
BITMAP
000C20
00F810
3FC0D0
004040
004000
004000
004000
FFFFC0
004000
004000
00C000
008000
018000
010000
030000
060000
1C0000
100000
ENDCHAR
STARTCHAR 30C3
ENCODING 11075
SWIDTH 2400 0
DWIDTH 24 0
BBX 12 12 6 -3
BITMAP
0800
8410
C430
4020
4020
0040
0040
0080
0100
0300
0400
1800
ENDCHAR
STARTCHAR 30C4
ENCODING 11076
SWIDTH 2400 0
DWIDTH 24 0
BBX 18 16 3 -1
BITMAP
030000
4100C0
C18080
608180
608100
300300
000300
000600
000400
000C00
001800
003000
006000
00C000
038000
020000
ENDCHAR
STARTCHAR 30C5
ENCODING 11077
SWIDTH 2400 0
DWIDTH 24 0
BBX 20 20 2 -1
BITMAP
000020
000010
0000D0
000060
020000
030080
C10180
418100
618300
200300
000200
000600
000C00
001800
001000
003000
006000
018000
030000
060000
ENDCHAR
STARTCHAR 30C6
ENCODING 11078
SWIDTH 2400 0
DWIDTH 24 0
BBX 18 16 3 -1
BITMAP
1FFE00
000000
000000
000000
000000
FFFFC0
006000
004000
004000
00C000
00C000
018000
018000
070000
0C0000
180000
ENDCHAR
STARTCHAR 30C7
ENCODING 11079
SWIDTH 2400 0
DWIDTH 24 0
BBX 20 17 2 -1
BITMAP
000020
1FFC90
0000D0
000040
000000
000000
FFFFC0
004000
004000
00C000
00C000
008000
018000
030000
060000
1C0000
100000
ENDCHAR
STARTCHAR 30C8
ENCODING 11080
SWIDTH 2400 0
DWIDTH 24 0
BBX 7 18 8 -2
BITMAP
C0
C0
C0
C0
C0
C0
E0
F0
DC
C6
C2
C0
C0
C0
C0
C0
C0
C0
ENDCHAR
STARTCHAR 30C9
ENCODING 11081
SWIDTH 2400 0
DWIDTH 24 0
BBX 10 19 7 -2
BITMAP
0080
8040
8200
8100
8000
8000
8000
C000
B000
9C00
8600
8200
8000
8000
8000
8000
8000
8000
8000
ENDCHAR
STARTCHAR 30CA
ENCODING 11082
SWIDTH 2400 0
DWIDTH 24 0
BBX 18 19 3 -2
BITMAP
006000
004000
004000
004000
004000
004000
FFFFC0
004000
004000
00C000
00C000
008000
008000
018000
010000
030000
060000
0C0000
180000
ENDCHAR
STARTCHAR 30CB
ENCODING 11083
SWIDTH 2400 0
DWIDTH 24 0
BBX 18 12 3 2
BITMAP
1FFE00
000000
000000
000000
000000
000000
000000
000000
000000
000000
000000
FFFFC0
ENDCHAR
STARTCHAR 30CC
ENCODING 11084
SWIDTH 2400 0
DWIDTH 24 0
BBX 14 17 5 -2
BITMAP
7FFC
0004
000C
0008
0808
0C18
0710
01B0
00E0
0070
00B8
018C
0600
0C00
3800
E000
C000
ENDCHAR
STARTCHAR 30CD
ENCODING 11085
SWIDTH 2400 0
DWIDTH 24 0
BBX 17 19 4 -2
BITMAP
008000
008000
008000
008000
3FFC00
000C00
000800
001000
002000
00C800
018C00
068600
3C8180
E08000
008000
008000
008000
008000
008000
ENDCHAR
STARTCHAR 30CE
ENCODING 11086
SWIDTH 2400 0
DWIDTH 24 0
BBX 14 17 5 -1
BITMAP
0008
000C
0008
0018
0010
0030
0020
0060
00C0
0080
0180
0300
0600
0C00
1800
6000
C000
ENDCHAR
STARTCHAR 30CF
ENCODING 11087
SWIDTH 2400 0
DWIDTH 24 0
BBX 19 12 3 1
BITMAP
000C00
060400
040600
040200
0C0300
080180
180180
1000C0
3000C0
600060
C00060
800000
ENDCHAR
STARTCHAR 30D0
ENCODING 11088
SWIDTH 2400 0
DWIDTH 24 0
BBX 20 16 2 1
BITMAP
000020
000010
000080
000040
000C00
060400
060600
040300
040100
0C0180
080080
1800C0
300040
600060
C00060
800000
ENDCHAR
STARTCHAR 30D1
ENCODING 11089
SWIDTH 2400 0
DWIDTH 24 0
BBX 20 15 2 1
BITMAP
0000F0
000090
000090
0008F0
020400
060600
060200
040300
0C0180
080180
1800C0
3000C0
600060
C00060
800000
ENDCHAR
STARTCHAR 30D2
ENCODING 11090
SWIDTH 2400 0
DWIDTH 24 0
BBX 14 16 5 0
BITMAP
C000
C000
C000
C018
C070
C380
CE00
F000
C000
C000
C000
C000
C000
C000
401C
3FF8
ENDCHAR
STARTCHAR 30D3
ENCODING 11091
SWIDTH 2400 0
DWIDTH 24 0
BBX 16 18 4 0
BITMAP
0002
0009
800C
8006
8000
8030
80E0
8380
9C00
F000
8000
8000
8000
8000
8000
8000
8038
7FF0
ENDCHAR
STARTCHAR 30D4
ENCODING 11092
SWIDTH 2400 0
DWIDTH 24 0
BBX 16 18 4 0
BITMAP
000E
0009
8009
800F
8000
8030
80E0
8380
9C00
F000
8000
8000
8000
8000
8000
8000
C038
7FF0
ENDCHAR
STARTCHAR 30D5
ENCODING 11093
SWIDTH 2400 0
DWIDTH 24 0
BBX 16 16 4 -2
BITMAP
FFFF
0003
0002
0006
0006
000C
000C
0018
0010
0030
0060
00C0
0180
0700
1C00
1800
ENDCHAR
STARTCHAR 30D6
ENCODING 11094
SWIDTH 2400 0
DWIDTH 24 0
BBX 19 21 2 -2
BITMAP
000040
000020
000180
0000C0
000000
FFFF00
000100
000300
000300
000200
000600
000400
000C00
001800
003000
006000
00E000
01C000
030000
0E0000
080000
ENDCHAR
STARTCHAR 30D7
ENCODING 11095
SWIDTH 2400 0
DWIDTH 24 0
BBX 19 21 2 -2
BITMAP
0001E0
000120
000120
000120
0000C0
FFFF00
000100
000300
000300
000200
000600
000C00
000C00
001800
003000
006000
00C000
018000
030000
0E0000
080000
ENDCHAR
STARTCHAR 30D8
ENCODING 11096
SWIDTH 2400 0
DWIDTH 24 0
BBX 19 10 2 3
BITMAP
010000
078000
0C6000
183000
301800
600C00
C00700
0001C0
0000E0
000020
ENDCHAR
STARTCHAR 30D9
ENCODING 11097
SWIDTH 2400 0
DWIDTH 24 0
BBX 19 13 2 3
BITMAP
000300
000180
000600
010200
078000
0C6000
183000
301800
600C00
C00700
0001C0
0000E0
000020
ENDCHAR
STARTCHAR 30DA
ENCODING 11098
SWIDTH 2400 0
DWIDTH 24 0
BBX 19 13 2 3
BITMAP
000F00
000900
000900
010900
078600
0C4000
183000
301800
600C00
C00700
000180
0000E0
000020
ENDCHAR
STARTCHAR 30DB
ENCODING 11099
SWIDTH 2400 0
DWIDTH 24 0
BBX 18 18 3 -2
BITMAP
004000
004000
004000
004000
004000
7FFFC0
004000
004000
004000
184200
304300
204180
604080
C040C0
804040
004000
07C000
020000
ENDCHAR
STARTCHAR 30DC
ENCODING 11100
SWIDTH 2400 0
DWIDTH 24 0
BBX 18 19 3 -2
BITMAP
000080
000240
004100
004000
004000
004000
7FFFC0
004000
004000
004000
184200
304300
204180
604080
C040C0
804040
004000
07C000
020000
ENDCHAR
STARTCHAR 30DD
ENCODING 11101
SWIDTH 2400 0
DWIDTH 24 0
BBX 18 19 3 -2
BITMAP
000380
000240
004240
004240
004180
004000
7FFFC0
004000
004000
004000
184200
304300
304180
6040C0
C040C0
804040
004000
07C000
020000
ENDCHAR
STARTCHAR 30DE
ENCODING 11102
SWIDTH 2400 0
DWIDTH 24 0
BBX 17 13 3 0
BITMAP
FFFF80
000180
000100
000300
000600
000C00
0C1800
063000
036000
01C000
00C000
006000
002000
ENDCHAR
STARTCHAR 30DF
ENCODING 11103
SWIDTH 2400 0
DWIDTH 24 0
BBX 10 16 7 -1
BITMAP
3000
1E00
0380
0000
0000
6000
3C00
0700
0000
0000
0000
C000
F800
0E00
03C0
00C0
ENDCHAR
STARTCHAR 30E0
ENCODING 11104
SWIDTH 2400 0
DWIDTH 24 0
BBX 18 16 3 0
BITMAP
00C000
00C000
008000
018000
010000
030000
030000
020000
060000
040400
0C0600
080300
180100
101F80
FFE0C0
000040
ENDCHAR
STARTCHAR 30E1
ENCODING 11105
SWIDTH 2400 0
DWIDTH 24 0
BBX 14 16 5 -1
BITMAP
0004
000C
0008
0018
0410
0630
0320
00E0
00E0
00B0
0118
0200
0C00
1800
E000
C000
ENDCHAR
STARTCHAR 30E2
ENCODING 11106
SWIDTH 2400 0
DWIDTH 24 0
BBX 17 14 3 0
BITMAP
3FFE00
010000
010000
010000
010000
010000
FFFF80
010000
010000
010000
010000
010000
010080
00FF00
ENDCHAR
STARTCHAR 30E3
ENCODING 11107
SWIDTH 2400 0
DWIDTH 24 0
BBX 12 12 6 -3
BITMAP
1000
1000
1870
1F90
E820
0840
0880
0400
0400
0400
0400
0600
ENDCHAR
STARTCHAR 30E4
ENCODING 11108
SWIDTH 2400 0
DWIDTH 24 0
BBX 18 17 3 -1
BITMAP
060000
060000
060000
020080
027FC0
1FE080
FB0100
030300
010600
010C00
010000
018000
018000
008000
008000
008000
00C000
ENDCHAR
STARTCHAR 30E5
ENCODING 11109
SWIDTH 2400 0
DWIDTH 24 0
BBX 12 9 6 -2
BITMAP
3F80
0080
0080
0080
0080
0080
0080
0080
FFF0
ENDCHAR
STARTCHAR 30E6
ENCODING 11110
SWIDTH 2400 0
DWIDTH 24 0
BBX 18 12 3 2
BITMAP
3FF800
000800
000800
000800
000800
000800
001800
001800
001800
001800
001800
FFFFC0
ENDCHAR
STARTCHAR 30E7
ENCODING 11111
SWIDTH 2400 0
DWIDTH 24 0
BBX 9 11 8 -3
BITMAP
FF80
0080
0080
0080
0080
FF80
0080
0080
0080
FF80
0080
ENDCHAR
STARTCHAR 30E8
ENCODING 11112
SWIDTH 2400 0
DWIDTH 24 0
BBX 13 14 6 0
BITMAP
FFF8
0008
0008
0008
0008
0008
FFF8
0008
0008
0008
0008
0008
FFF8
0008
ENDCHAR
STARTCHAR 30E9
ENCODING 11113
SWIDTH 2400 0
DWIDTH 24 0
BBX 15 16 4 -1
BITMAP
1FF8
0000
0000
0000
0000
FFFE
0006
0004
000C
0018
0010
0020
00C0
0180
0700
0C00
ENDCHAR
STARTCHAR 30EA
ENCODING 11114
SWIDTH 2400 0
DWIDTH 24 0
BBX 10 18 7 -1
BITMAP
0040
8040
8040
8040
8040
8040
80C0
80C0
8080
8080
8080
0180
0180
0100
0300
0600
0C00
0800
ENDCHAR
STARTCHAR 30EB
ENCODING 11115
SWIDTH 2400 0
DWIDTH 24 0
BBX 20 15 2 0
BITMAP
082000
0C2000
0C2000
0C2000
0C2000
0C2000
0C2000
0C2030
082060
0820C0
182180
102300
202E00
603800
C03000
ENDCHAR
STARTCHAR 30EC
ENCODING 11116
SWIDTH 2400 0
DWIDTH 24 0
BBX 15 16 5 -1
BITMAP
8000
8000
8000
8000
8000
8000
8006
800C
8018
8030
80E0
8180
8600
9C00
E000
8000
ENDCHAR
STARTCHAR 30ED
ENCODING 11117
SWIDTH 2400 0
DWIDTH 24 0
BBX 12 13 6 0
BITMAP
FFF0
8010
8010
8010
8010
8010
8010
8010
8010
8010
FFF0
8010
0010
ENDCHAR
STARTCHAR 30EE
ENCODING 11118
SWIDTH 2400 0
DWIDTH 24 0
BBX 11 12 7 -3
BITMAP
FFE0
8060
8060
8040
8040
0040
00C0
0080
0100
0300
0600
0C00
ENDCHAR
STARTCHAR 30EF
ENCODING 11119
SWIDTH 2400 0
DWIDTH 24 0
BBX 15 17 5 -2
BITMAP
FFFE
8006
8006
8006
8006
8006
8004
0004
000C
000C
0008
0018
0030
0060
00C0
0180
0100
ENDCHAR
STARTCHAR 30F0
ENCODING 11120
SWIDTH 2400 0
DWIDTH 24 0
BBX 18 19 3 -2
BITMAP
001000
001000
001000
001000
001000
7FFF80
081000
081000
081000
081000
081000
081000
FFFFC0
001000
001000
001000
001000
001000
001000
ENDCHAR
STARTCHAR 30F1
ENCODING 11121
SWIDTH 2400 0
DWIDTH 24 0
BBX 18 13 3 1
BITMAP
3FFF80
000300
000600
000C00
009800
008000
008000
008000
008000
008000
008000
008000
FFFFC0
ENDCHAR
STARTCHAR 30F2
ENCODING 11122
SWIDTH 2400 0
DWIDTH 24 0
BBX 15 16 4 -1
BITMAP
FFFE
0002
0006
0006
0004
0004
FFFC
0008
0010
0030
0020
00C0
0180
0300
0E00
1800
ENDCHAR
STARTCHAR 30F3
ENCODING 11123
SWIDTH 2400 0
DWIDTH 24 0
BBX 16 15 4 0
BITMAP
C000
6000
3000
1800
0001
0001
0006
000C
0018
0070
00C0
0380
0E00
7800
E000
ENDCHAR
STARTCHAR 30F4
ENCODING 11124
SWIDTH 2400 0
DWIDTH 24 0
BBX 18 20 3 -2
BITMAP
000080
0000C0
000340
010180
010000
010000
FFFE00
800600
800600
800600
800400
800400
000C00
000800
001800
003000
006000
00C000
038000
020000
ENDCHAR
STARTCHAR 30F5
ENCODING 11125
SWIDTH 2400 0
DWIDTH 24 0
BBX 12 12 6 -3
BITMAP
0200
0200
0600
7FF0
0430
0420
0C20
0820
1820
3020
E020
01C0
ENDCHAR
STARTCHAR 30F6
ENCODING 11126
SWIDTH 2400 0
DWIDTH 24 0
BBX 13 13 6 -3
BITMAP
0800
0800
1800
1000
3FF8
6180
4180
8100
0100
0300
0200
0C00
1800
ENDCHAR
STARTCHAR 0410
ENCODING 11297
SWIDTH 2400 0
DWIDTH 24 0
BBX 14 17 5 0
BITMAP
0300
0380
0780
0680
04C0
0CC0
0C40
0860
1860
1020
3030
3FF0
2010
6018
4008
400C
C00C
ENDCHAR
STARTCHAR 0411
ENCODING 11298
SWIDTH 2400 0
DWIDTH 24 0
BBX 11 16 6 0
BITMAP
FFC0
8000
8000
8000
8000
8000
8000
FF80
80C0
8060
8020
8020
8020
8060
81C0
FF80
ENDCHAR
STARTCHAR 0412
ENCODING 11299
SWIDTH 2400 0
DWIDTH 24 0
BBX 13 17 6 0
BITMAP
FF80
FFE0
8070
8070
8030
8030
8070
80E0
FFE0
8070
8018
8018
8018
8018
8038
8070
FFC0
ENDCHAR
STARTCHAR 0413
ENCODING 11300
SWIDTH 2400 0
DWIDTH 24 0
BBX 9 17 7 0
BITMAP
FF80
8000
8000
8000
8000
8000
8000
8000
8000
8000
8000
8000
8000
8000
8000
8000
8000
ENDCHAR
STARTCHAR 0414
ENCODING 11301
SWIDTH 2400 0
DWIDTH 24 0
BBX 16 21 4 -4
BITMAP
1FFC
1004
1004
1004
1004
1004
1004
1004
1004
1004
1004
1004
1004
1004
1004
2004
FFFF
8001
8001
8001
8001
ENDCHAR
STARTCHAR 0415
ENCODING 11302
SWIDTH 2400 0
DWIDTH 24 0
BBX 11 17 7 0
BITMAP
FFE0
8000
8000
8000
8000
8000
8000
8000
FFC0
8000
8000
8000
8000
8000
8000
8000
FFE0
ENDCHAR
STARTCHAR 0401
ENCODING 11303
SWIDTH 2400 0
DWIDTH 24 0
BBX 11 18 6 0
BITMAP
3180
3180
0000
FFE0
8000
8000
8000
8000
8000
8000
FFC0
8000
8000
8000
8000
8000
8000
FFE0
ENDCHAR
STARTCHAR 0416
ENCODING 11304
SWIDTH 2400 0
DWIDTH 24 0
BBX 17 17 3 0
BITMAP
C08180
E08380
308600
108400
108400
188C00
188C00
0EB800
3FFE00
608300
408100
408100
C08180
C08180
C08180
C08180
808080
ENDCHAR
STARTCHAR 0417
ENCODING 11305
SWIDTH 2400 0
DWIDTH 24 0
BBX 14 17 5 0
BITMAP
0FC0
3830
6018
4018
C018
0018
0030
03E0
03E0
0018
000C
C00C
400C
600C
3018
1C78
07C0
ENDCHAR
STARTCHAR 0418
ENCODING 11306
SWIDTH 2400 0
DWIDTH 24 0
BBX 12 17 6 0
BITMAP
8030
8070
8050
80D0
8090
8190
8310
8210
8610
8410
8C10
9810
9010
B010
A010
E010
C010
ENDCHAR
STARTCHAR 0419
ENCODING 11307
SWIDTH 2400 0
DWIDTH 24 0
BBX 12 19 6 0
BITMAP
3040
1080
1F80
0000
8030
8070
8050
80D0
8190
8110
8310
8610
8C10
8C10
9810
B010
A010
E010
C010
ENDCHAR
STARTCHAR 041A
ENCODING 11308
SWIDTH 2400 0
DWIDTH 24 0
BBX 11 17 7 0
BITMAP
8000
80E0
8180
8300
8300
8300
8200
8600
FF00
8080
80C0
8040
8040
8040
8040
8040
8040
ENDCHAR
STARTCHAR 041B
ENCODING 11309
SWIDTH 2400 0
DWIDTH 24 0
BBX 14 17 5 0
BITMAP
1FFC
1004
1004
1004
1004
1004
1004
1004
1004
1004
1004
1004
1004
1004
1004
2004
C004
ENDCHAR
STARTCHAR 041C
ENCODING 11310
SWIDTH 2400 0
DWIDTH 24 0
BBX 16 17 4 0
BITMAP
E003
E007
E005
B00D
B00D
9009
9819
9819
8811
8C31
8421
8621
8661
8241
83C1
8181
8181
ENDCHAR
STARTCHAR 041D
ENCODING 11311
SWIDTH 2400 0
DWIDTH 24 0
BBX 12 17 6 0
BITMAP
8000
8010
8010
8010
8010
8010
8010
8010
FFF0
8010
8010
8010
8010
8010
8010
8010
8010
ENDCHAR
STARTCHAR 041E
ENCODING 11312
SWIDTH 2400 0
DWIDTH 24 0
BBX 16 17 4 0
BITMAP
07E0
1818
300C
6006
6006
C003
C003
C003
C003
C003
C003
C003
6006
6006
300C
1818
07E0
ENDCHAR
STARTCHAR 041F
ENCODING 11313
SWIDTH 2400 0
DWIDTH 24 0
BBX 12 17 6 0
BITMAP
FFF0
8010
8010
8010
8010
8010
8010
8010
8010
8010
8010
8010
8010
8010
8010
8010
0010
ENDCHAR
STARTCHAR 0420
ENCODING 11314
SWIDTH 2400 0
DWIDTH 24 0
BBX 12 17 6 0
BITMAP
FFC0
80E0
8070
8030
8030
8030
8070
81E0
FFC0
FE00
8000
8000
8000
8000
8000
8000
8000
ENDCHAR
STARTCHAR 0421
ENCODING 11315
SWIDTH 2400 0
DWIDTH 24 0
BBX 14 17 5 0
BITMAP
1FE0
3030
6018
4008
C00C
8000
8000
8000
8000
8000
8000
C004
C004
600C
3018
3CF0
0FC0
ENDCHAR
STARTCHAR 0422
ENCODING 11316
SWIDTH 2400 0
DWIDTH 24 0
BBX 13 17 6 0
BITMAP
FFF8
0200
0200
0200
0200
0200
0200
0200
0200
0200
0200
0200
0200
0200
0200
0200
0200
ENDCHAR
STARTCHAR 0423
ENCODING 11317
SWIDTH 2400 0
DWIDTH 24 0
BBX 13 17 5 0
BITMAP
C008
6018
6010
2030
3030
1020
1860
0840
0CC0
0480
0780
0300
0300
0200
0600
0600
1C00
ENDCHAR
STARTCHAR 0424
ENCODING 11318
SWIDTH 2400 0
DWIDTH 24 0
BBX 18 17 3 0
BITMAP
008000
008000
07F800
188600
708100
608080
C080C0
C08040
C08040
C08040
C08040
608080
708180
388600
0FF800
008000
008000
ENDCHAR
STARTCHAR 0425
ENCODING 11319
SWIDTH 2400 0
DWIDTH 24 0
BBX 12 17 6 0
BITMAP
C030
4020
6060
30C0
1080
1980
0F00
0600
0600
0F00
0900
1980
30C0
2040
6060
C030
8010
ENDCHAR
STARTCHAR 0426
ENCODING 11320
SWIDTH 2400 0
DWIDTH 24 0
BBX 14 21 5 -4
BITMAP
8000
8010
8010
8010
8010
8010
8010
8010
8010
8010
8010
8010
8010
8010
8010
8010
FFFC
0004
0004
0004
0004
ENDCHAR
STARTCHAR 0427
ENCODING 11321
SWIDTH 2400 0
DWIDTH 24 0
BBX 10 17 7 0
BITMAP
8040
8040
8040
8040
8040
8040
8040
8040
C0C0
61C0
3F40
0040
0040
0040
0040
0040
0040
ENDCHAR
STARTCHAR 0428
ENCODING 11322
SWIDTH 2400 0
DWIDTH 24 0
BBX 16 17 4 0
BITMAP
8000
8101
8101
8101
8101
8101
8101
8101
8101
8101
8101
8101
8101
8101
8101
8101
FFFF
ENDCHAR
STARTCHAR 0429
ENCODING 11323
SWIDTH 2400 0
DWIDTH 24 0
BBX 18 21 3 -4
BITMAP
800000
808100
808100
808100
808100
808100
808100
808100
808100
808100
808100
808100
808100
808100
808100
808100
FFFFC0
000040
000040
000040
000040
ENDCHAR
STARTCHAR 042A
ENCODING 11324
SWIDTH 2400 0
DWIDTH 24 0
BBX 15 17 4 0
BITMAP
F800
0800
0800
0800
0800
0800
0800
0FE0
0FFC
0806
0806
0802
0802
0802
0806
080C
0FF8
ENDCHAR
STARTCHAR 042B
ENCODING 11325
SWIDTH 2400 0
DWIDTH 24 0
BBX 14 17 5 0
BITMAP
8004
8004
8004
8004
8004
8004
8004
8004
FE04
8384
81C4
80C4
80C4
80C4
80C4
8384
FF04
ENDCHAR
STARTCHAR 042C
ENCODING 11326
SWIDTH 2400 0
DWIDTH 24 0
BBX 11 17 6 0
BITMAP
8000
8000
8000
8000
8000
8000
8000
8000
FF80
80C0
8060
8060
8020
8060
8060
80C0
FF80
ENDCHAR
STARTCHAR 042D
ENCODING 11327
SWIDTH 2400 0
DWIDTH 24 0
BBX 16 17 4 0
BITMAP
07E0
1C38
300C
6006
4006
C002
0003
0003
01FF
0003
0003
C002
4006
6006
300C
1C78
07E0
ENDCHAR
STARTCHAR 042E
ENCODING 11328
SWIDTH 2400 0
DWIDTH 24 0
BBX 20 18 2 -1
BITMAP
007E00
80C380
8300C0
820060
860060
840030
8C0030
8C0030
FC0030
8C0030
8C0030
840030
840060
860060
8300C0
8181C0
80FF80
003C00
ENDCHAR
STARTCHAR 042F
ENCODING 11329
SWIDTH 2400 0
DWIDTH 24 0
BBX 12 17 6 0
BITMAP
1FF0
7810
4010
C010
C010
C010
C010
6010
1FF0
3010
6010
4010
4010
4010
4010
C010
C010
ENDCHAR
STARTCHAR 0430
ENCODING 11345
SWIDTH 2400 0
DWIDTH 24 0
BBX 11 13 7 0
BITMAP
1F00
6180
4080
4080
0080
0180
3F80
7080
8080
8080
8180
42C0
3C60
ENDCHAR
STARTCHAR 0431
ENCODING 11346
SWIDTH 2400 0
DWIDTH 24 0
BBX 11 17 6 0
BITMAP
3FC0
6000
4000
C000
8000
8600
9F80
F0C0
E060
C020
C020
C020
C020
C020
6040
3080
1F00
ENDCHAR
STARTCHAR 0432
ENCODING 11347
SWIDTH 2400 0
DWIDTH 24 0
BBX 9 12 8 0
BITMAP
FE00
8300
8100
8100
8300
FE00
8300
8180
8180
8180
8300
FE00
ENDCHAR
STARTCHAR 0433
ENCODING 11348
SWIDTH 2400 0
DWIDTH 24 0
BBX 7 12 8 0
BITMAP
FE
80
80
80
80
80
80
80
80
80
80
80
ENDCHAR
STARTCHAR 0434
ENCODING 11349
SWIDTH 2400 0
DWIDTH 24 0
BBX 12 17 6 -5
BITMAP
3FE0
3020
3020
3020
3020
3020
3020
3020
3020
2020
6020
FFF0
8010
8010
8010
8010
8000
ENDCHAR
STARTCHAR 0435
ENCODING 11350
SWIDTH 2400 0
DWIDTH 24 0
BBX 11 13 6 0
BITMAP
1F00
3F80
7040
6040
C020
C020
FFE0
C000
C000
4060
6040
30C0
1F00
ENDCHAR
STARTCHAR 0451
ENCODING 11351
SWIDTH 2400 0
DWIDTH 24 0
BBX 11 16 6 0
BITMAP
1980
1980
0000
0600
3F80
7040
6040
C020
C020
FFE0
C000
C000
4060
6040
30C0
1F00
ENDCHAR
STARTCHAR 0436
ENCODING 11352
SWIDTH 2400 0
DWIDTH 24 0
BBX 13 12 5 0
BITMAP
C218
6230
2220
3220
1240
1FC0
7270
4210
4210
C218
C218
C218
ENDCHAR
STARTCHAR 0437
ENCODING 11353
SWIDTH 2400 0
DWIDTH 24 0
BBX 10 13 7 0
BITMAP
3F00
6180
C080
0080
0080
0300
0F80
00C0
0040
C040
40C0
3B80
0E00
ENDCHAR
STARTCHAR 0438
ENCODING 11354
SWIDTH 2400 0
DWIDTH 24 0
BBX 10 12 7 0
BITMAP
80C0
81C0
81C0
8340
8640
8C40
8C40
9840
B040
E040
E040
C040
ENDCHAR
STARTCHAR 0439
ENCODING 11355
SWIDTH 2400 0
DWIDTH 24 0
BBX 10 16 7 0
BITMAP
6180
3100
1E00
0000
80C0
81C0
81C0
8340
8640
8C40
8C40
9840
B040
E040
E040
C040
ENDCHAR
STARTCHAR 043A
ENCODING 11356
SWIDTH 2400 0
DWIDTH 24 0
BBX 8 12 8 0
BITMAP
83
86
8C
8C
98
F8
86
82
82
82
83
83
ENDCHAR
STARTCHAR 043B
ENCODING 11357
SWIDTH 2400 0
DWIDTH 24 0
BBX 10 12 7 0
BITMAP
3FC0
2040
2040
2040
2040
2040
2040
2040
2040
2040
6040
C040
ENDCHAR
STARTCHAR 043C
ENCODING 11358
SWIDTH 2400 0
DWIDTH 24 0
BBX 12 12 6 0
BITMAP
C030
E070
E070
A050
B0D0
9090
9890
8990
8D10
8F10
8610
8610
ENDCHAR
STARTCHAR 043D
ENCODING 11359
SWIDTH 2400 0
DWIDTH 24 0
BBX 10 12 7 0
BITMAP
8040
8040
8040
8040
8040
FFC0
8040
8040
8040
8040
8040
8040
ENDCHAR
STARTCHAR 043E
ENCODING 11360
SWIDTH 2400 0
DWIDTH 24 0
BBX 10 13 7 0
BITMAP
1C00
3F00
4080
C0C0
8040
8040
8040
8040
8040
C040
4080
6180
1E00
ENDCHAR
STARTCHAR 043F
ENCODING 11361
SWIDTH 2400 0
DWIDTH 24 0
BBX 8 12 8 0
BITMAP
FF
81
81
81
81
81
81
81
81
81
81
81
ENDCHAR
STARTCHAR 0440
ENCODING 11362
SWIDTH 2400 0
DWIDTH 24 0
BBX 11 17 6 -4
BITMAP
8F00
B080
E040
C020
C020
C020
C020
C020
C020
C040
E0C0
B980
8E00
8000
8000
8000
8000
ENDCHAR
STARTCHAR 0441
ENCODING 11363
SWIDTH 2400 0
DWIDTH 24 0
BBX 10 13 7 0
BITMAP
1F00
7180
40C0
C040
8000
8000
8000
8000
8040
C040
40C0
7180
1E00
ENDCHAR
STARTCHAR 0442
ENCODING 11364
SWIDTH 2400 0
DWIDTH 24 0
BBX 9 12 7 0
BITMAP
FF80
0800
0800
0800
0800
0800
0800
0800
0800
0800
0800
0800
ENDCHAR
STARTCHAR 0443
ENCODING 11365
SWIDTH 2400 0
DWIDTH 24 0
BBX 10 17 7 -5
BITMAP
8040
8040
C0C0
4080
6180
2100
2100
3300
1200
1A00
0E00
0C00
0C00
0800
0800
1800
7000
ENDCHAR
STARTCHAR 0444
ENCODING 11366
SWIDTH 2400 0
DWIDTH 24 0
BBX 18 21 3 -4
BITMAP
004000
004000
004000
004000
0E4E00
1F5F00
21E180
40C0C0
40C040
40C040
80C040
80C040
40C040
40C040
40E080
21E180
1F5E00
004000
004000
004000
004000
ENDCHAR
STARTCHAR 0445
ENCODING 11367
SWIDTH 2400 0
DWIDTH 24 0
BBX 10 12 7 0
BITMAP
C0C0
4180
2100
3200
1E00
0C00
0C00
1600
3300
2100
4080
80C0
ENDCHAR
STARTCHAR 0446
ENCODING 11368
SWIDTH 2400 0
DWIDTH 24 0
BBX 10 16 7 -4
BITMAP
8080
8080
8080
8080
8080
8080
8080
8080
8080
8080
8080
FFC0
0040
0040
0040
0040
ENDCHAR
STARTCHAR 0447
ENCODING 11369
SWIDTH 2400 0
DWIDTH 24 0
BBX 8 12 8 0
BITMAP
C1
C1
C1
C1
C1
C3
75
19
01
01
01
01
ENDCHAR
STARTCHAR 0448
ENCODING 11370
SWIDTH 2400 0
DWIDTH 24 0
BBX 12 12 6 0
BITMAP
8210
8210
8210
8210
8210
8210
8210
8210
8210
8210
8210
FFF0
ENDCHAR
STARTCHAR 0449
ENCODING 11371
SWIDTH 2400 0
DWIDTH 24 0
BBX 14 16 5 -4
BITMAP
8210
8210
8210
8210
8210
8210
8210
8210
8210
8210
8210
FFFC
0004
0004
0004
0004
ENDCHAR
STARTCHAR 044A
ENCODING 11372
SWIDTH 2400 0
DWIDTH 24 0
BBX 12 12 6 0
BITMAP
F800
0800
0800
0800
0800
0FE0
0830
0810
0810
0810
0830
0FE0
ENDCHAR
STARTCHAR 044B
ENCODING 11373
SWIDTH 2400 0
DWIDTH 24 0
BBX 12 12 6 0
BITMAP
8010
8010
8010
8010
8010
FC10
8610
8210
8210
8210
8610
FC10
ENDCHAR
STARTCHAR 044C
ENCODING 11374
SWIDTH 2400 0
DWIDTH 24 0
BBX 8 12 8 0
BITMAP
80
80
80
80
80
FC
82
81
81
81
82
FC
ENDCHAR
STARTCHAR 044D
ENCODING 11375
SWIDTH 2400 0
DWIDTH 24 0
BBX 11 13 7 0
BITMAP
1E00
6180
C0C0
8040
0060
0060
1FE0
0060
0060
8040
C0C0
6180
1E00
ENDCHAR
STARTCHAR 044E
ENCODING 11376
SWIDTH 2400 0
DWIDTH 24 0
BBX 14 13 5 0
BITMAP
01E0
87F0
8C18
880C
8804
9804
F804
9804
9804
8808
8C08
8610
83E0
ENDCHAR
STARTCHAR 044F
ENCODING 11377
SWIDTH 2400 0
DWIDTH 24 0
BBX 8 12 8 0
BITMAP
3F
41
C1
C1
C1
7F
3F
41
C1
C1
C1
81
ENDCHAR
STARTCHAR AC00
ENCODING 12321
SWIDTH 2400 0
DWIDTH 24 0
BBX 22 22 1 -4
BITMAP
000040
000040
7FE040
002040
002040
006040
006040
004040
004040
00C040
00807C
018040
030040
060040
0C0040
180040
700040
C00040
000040
000040
000040
000040
ENDCHAR
STARTCHAR AC01
ENCODING 12322
SWIDTH 2400 0
DWIDTH 24 0
BBX 21 22 2 -4
BITMAP
000080
000080
FFC080
004080
00C080
00C080
008080
0100F8
030080
0C0080
380080
E00080
000080
000000
3FFF80
000080
000080
000080
000080
000080
000080
000080
ENDCHAR
STARTCHAR AC04
ENCODING 12323
SWIDTH 2400 0
DWIDTH 24 0
BBX 22 21 1 -3
BITMAP
000040
7FE040
002040
006040
006040
004040
00C040
018040
030040
06007C
1C0040
700040
C00040
000040
000040
100040
100040
100000
100000
100000
1FFFC0
ENDCHAR
STARTCHAR AC07
ENCODING 12324
SWIDTH 2400 0
DWIDTH 24 0
BBX 22 21 1 -3
BITMAP
000040
000040
7FE040
002040
006040
006040
00C040
00807C
018040
060040
1C0040
F00040
400040
000000
1FFFC0
100000
100000
100000
100000
100000
1FFFC0
ENDCHAR
STARTCHAR AC08
ENCODING 12325
SWIDTH 2400 0
DWIDTH 24 0
BBX 22 21 1 -3
BITMAP
000040
7FE040
006040
006040
004040
00C040
018040
03007C
060040
1C0040
F00040
000040
000000
1FFFC0
000040
000040
000040
1FFFC0
100000
100000
1FFFC0
ENDCHAR
STARTCHAR AC09
ENCODING 12326
SWIDTH 2400 0
DWIDTH 24 0
BBX 21 22 2 -4
BITMAP
000080
FFC080
004080
00C080
008080
018080
0300F8
060080
1C0080
700080
C00080
000000
000000
3FBF80
008080
008080
008080
3F8080
200080
200080
200080
3FC080
ENDCHAR
STARTCHAR AC0A
ENCODING 12327
SWIDTH 2400 0
DWIDTH 24 0
BBX 22 22 1 -4
BITMAP
000040
000040
FFC040
004040
004040
00C040
01807C
010040
020040
0C0040
380040
E00000
000000
1F9FC0
009040
009040
009040
1F9040
101040
101040
11DFC0
1F9040
ENDCHAR
STARTCHAR AC10
ENCODING 12328
SWIDTH 2400 0
DWIDTH 24 0
BBX 22 22 1 -4
BITMAP
000040
7FE040
002040
006040
006040
00C040
008040
01807C
060040
1C0040
F00040
400040
000040
000000
000000
1FFFC0
100040
100040
100040
100040
1FFFC0
100040
ENDCHAR
STARTCHAR AC11
ENCODING 12329
SWIDTH 2400 0
DWIDTH 24 0
BBX 22 22 1 -4
BITMAP
000040
7FE040
002040
006040
006040
00C040
008040
01807C
070040
1C0040
F80040
400040
000000
100040
100040
100040
1FFFC0
100040
100040
100040
1FFFC0
100040
ENDCHAR
STARTCHAR AC12
ENCODING 12330
SWIDTH 2400 0
DWIDTH 24 0
BBX 22 22 1 -4
BITMAP
000040
000040
7FE040
002040
006040
004040
00C040
01807C
030040
060040
3C0040
F00000
000000
104080
104080
104180
1FC180
104140
104260
104620
1FCC30
104800
ENDCHAR
STARTCHAR AC13
ENCODING 12331
SWIDTH 2400 0
DWIDTH 24 0
BBX 21 22 2 -4
BITMAP
000080
FFC080
004080
004080
00C080
008080
018080
010080
0300F8
060080
180080
700080
C00080
003080
003080
003000
007800
00CC00
018600
070380
1C00F0
180020
ENDCHAR
STARTCHAR AC14
ENCODING 12332
SWIDTH 2400 0
DWIDTH 24 0
BBX 22 22 1 -4
BITMAP
000040
7FE040
002040
002040
006040
004040
00C040
01807C
030040
060040
1C0040
F00040
000000
0180C0
010080
0100C0
0381C0
028140
04C360
0C6630
380C1C
201808
ENDCHAR
STARTCHAR AC15
ENCODING 12333
SWIDTH 2400 0
DWIDTH 24 0
BBX 22 22 1 -4
BITMAP
000040
7FE040
002040
002040
006040
004040
00C040
01807C
030040
060040
1C0040
F00040
000000
000000
03FE00
0E0380
1800C0
100040
100040
1800C0
0E0180
03FE00
ENDCHAR
STARTCHAR AC16
ENCODING 12334
SWIDTH 2400 0
DWIDTH 24 0
BBX 22 22 1 -4
BITMAP
000040
000040
7FE040
002040
006040
006040
00C040
008040
01807C
060040
1C0040
F00040
000040
000000
1FFFC0
002000
002000
007000
00D800
038600
1E03C0
3800E0
ENDCHAR
STARTCHAR AC17
ENCODING 12335
SWIDTH 2400 0
DWIDTH 24 0
BBX 21 22 2 -4
BITMAP
0000C0
FFC080
00C080
008080
018080
010080
030080
0600F8
1C0080
700080
C00080
03F800
000000
000000
1FFF80
006000
006000
00F000
019800
070E00
1C0380
3000C0
ENDCHAR
STARTCHAR AC19
ENCODING 12336
SWIDTH 2400 0
DWIDTH 24 0
BBX 22 21 1 -3
BITMAP
000040
000040
7FE040
002040
002040
006040
004040
00C07C
018040
060040
1C0040
F00040
000000
000000
1FFFC0
100000
100000
1FFF80
100000
100000
1FFFC0
ENDCHAR
STARTCHAR AC1A
ENCODING 12337
SWIDTH 2400 0
DWIDTH 24 0
BBX 22 21 1 -3
BITMAP
000040
000040
7FF040
002040
002040
006040
004040
00C07C
018040
070040
1C0040
F00040
000000
000000
1FFFC0
010400
010400
010400
010400
010400
3FFFE0
ENDCHAR
STARTCHAR AC1B
ENCODING 12338
SWIDTH 2400 0
DWIDTH 24 0
BBX 22 22 1 -4
BITMAP
000040
000040
7FE040
006040
006040
004040
00C040
01807C
030040
060040
1C0040
F00040
40FC00
000000
1FFFE0
000000
00FC00
078780
080040
080040
0C00C0
03FF00
ENDCHAR
STARTCHAR AC1C
ENCODING 12339
SWIDTH 2400 0
DWIDTH 24 0
BBX 19 22 2 -4
BITMAP
000420
000420
7FC420
00C420
008420
008420
008420
008420
018420
010420
0307E0
030420
060420
0C0420
180420
300420
E00420
400420
000420
000420
000420
000020
ENDCHAR
STARTCHAR AC1D
ENCODING 12340
SWIDTH 2400 0
DWIDTH 24 0
BBX 19 22 2 -4
BITMAP
000420
000420
7F8420
008420
008420
018420
018420
0107E0
030420
060420
0C0420
380420
E00020
000000
1FFFE0
000020
000020
000020
000020
000020
000020
000020
ENDCHAR
STARTCHAR AC20
ENCODING 12341
SWIDTH 2400 0
DWIDTH 24 0
BBX 20 21 2 -3
BITMAP
000420
7FC420
00C420
00C420
008420
008420
018420
030420
020420
0607E0
0C0420
380420
E00420
000420
000420
080420
080020
080000
080000
080000
0FFFF0
ENDCHAR
STARTCHAR AC24
ENCODING 12342
SWIDTH 2400 0
DWIDTH 24 0
BBX 19 22 3 -4
BITMAP
000040
000840
FF8840
018840
018840
010840
030840
060FC0
040840
180840
300840
E00840
800000
000000
1FFFC0
000040
000040
1FFFC0
100000
100000
100000
1FFFE0
ENDCHAR
STARTCHAR AC2C
ENCODING 12343
SWIDTH 2400 0
DWIDTH 24 0
BBX 18 22 3 -4
BITMAP
000040
000840
FF8840
010840
010840
010840
030840
020840
060FC0
0C0840
180840
300840
C00840
800040
000000
3FFFC0
200040
200040
200040
200040
3FFFC0
200040
ENDCHAR
STARTCHAR AC2D
ENCODING 12344
SWIDTH 2400 0
DWIDTH 24 0
BBX 18 22 3 -4
BITMAP
000840
000840
FF8840
018840
010840
010840
030840
020FC0
040840
0C0840
300840
E00840
800000
100040
100040
100040
1FFFC0
100040
100040
100040
1FFFC0
100040
ENDCHAR
STARTCHAR AC2F
ENCODING 12345
SWIDTH 2400 0
DWIDTH 24 0
BBX 20 22 2 -4
BITMAP
000020
7F8820
018820
018820
018820
010820
010820
030820
020FE0
060820
0C0820
180820
700820
C00020
001020
003800
003800
006C00
00C600
038380
0E00F0
180000
ENDCHAR
STARTCHAR AC30
ENCODING 12346
SWIDTH 2400 0
DWIDTH 24 0
BBX 20 22 2 -4
BITMAP
000020
FF8420
018420
018420
010420
010420
030420
060420
0407E0
180420
300420
E00420
800020
018080
030080
030180
030180
078180
04C240
184460
301830
601010
ENDCHAR
STARTCHAR AC31
ENCODING 12347
SWIDTH 2400 0
DWIDTH 24 0
BBX 19 22 3 -4
BITMAP
000840
FF0840
010840
010840
030840
020840
060840
040FC0
0C0840
180840
300840
E00840
800040
000000
03FE00
1C01C0
300060
200020
200020
300060
1C01C0
07FF00
ENDCHAR
STARTCHAR AC38
ENCODING 12348
SWIDTH 2400 0
DWIDTH 24 0
BBX 22 22 1 -4
BITMAP
000040
000040
7FE040
002040
002040
002040
002040
006040
00407C
00C040
008040
018040
030040
060040
0C007C
180040
700040
C00040
000040
000040
000040
000040
ENDCHAR
STARTCHAR AC39
ENCODING 12349
SWIDTH 2400 0
DWIDTH 24 0
BBX 21 22 2 -4
BITMAP
0000C0
000080
FFC080
004080
00C080
0080F8
018080
010080
030080
0E0080
1800F8
F00080
800080
000080
000000
3FFF80
000080
000080
000080
000080
000080
000080
ENDCHAR
STARTCHAR AC3C
ENCODING 12350
SWIDTH 2400 0
DWIDTH 24 0
BBX 22 21 1 -3
BITMAP
000040
000040
7FE040
002040
006040
00607C
004040
00C040
018040
030040
060040
1C007C
700040
E00040
000040
100040
100040
100000
100000
100000
1FFFC0
ENDCHAR
STARTCHAR AC40
ENCODING 12351
SWIDTH 2400 0
DWIDTH 24 0
BBX 21 21 2 -3
BITMAP
000080
000080
FFC080
004080
00C0F8
008080
018080
030080
060080
1C00F8
700080
C00080
000000
3FFF80
000080
000080
000080
3FFF80
200000
200000
3FFF80
ENDCHAR
STARTCHAR AC4B
ENCODING 12352
SWIDTH 2400 0
DWIDTH 24 0
BBX 22 22 1 -4
BITMAP
000040
000040
7FF040
003040
003040
00207C
006040
004040
008040
018040
03007C
0C0040
380040
E00840
001840
001800
003C00
002600
00C300
0181C0
070078
0C0010
ENDCHAR
STARTCHAR AC4D
ENCODING 12353
SWIDTH 2400 0
DWIDTH 24 0
BBX 22 22 1 -4
BITMAP
000040
000040
FFE040
006040
006040
00407C
00C040
018040
010040
030040
0E007C
180040
F00040
C00040
03FE00
0E0180
1800C0
100040
100040
1800C0
0C0180
03FE00
ENDCHAR
STARTCHAR AC54
ENCODING 12354
SWIDTH 2400 0
DWIDTH 24 0
BBX 20 22 2 -4
BITMAP
000410
000410
7FC410
008410
008410
008410
008410
0187F0
018410
010410
030410
020410
060410
0C07F0
180410
700410
C00410
000410
000410
000410
000410
000010
ENDCHAR
STARTCHAR AC58
ENCODING 12355
SWIDTH 2400 0
DWIDTH 24 0
BBX 20 21 2 -3
BITMAP
000020
000420
7FC420
00C420
008420
008420
0187E0
010420
030420
020420
0607E0
0C0420
380420
E00420
000420
080420
080000
080000
080000
080000
0FFFF0
ENDCHAR
STARTCHAR AC5C
ENCODING 12356
SWIDTH 2400 0
DWIDTH 24 0
BBX 19 22 3 -4
BITMAP
000040
000840
FF8840
018840
010FC0
010840
030840
020840
040840
0C0FC0
380840
600840
800000
000000
1FFFC0
000040
000040
1FFFC0
100000
100000
100000
1FFFE0
ENDCHAR
STARTCHAR AC70
ENCODING 12357
SWIDTH 2400 0
DWIDTH 24 0
BBX 18 22 3 -4
BITMAP
000040
000040
7FE040
006040
004040
004040
004040
00C040
00C040
008040
019FC0
010040
030040
060040
0C0040
180040
700040
C00040
800040
000040
000040
000040
ENDCHAR
STARTCHAR AC71
ENCODING 12358
SWIDTH 2400 0
DWIDTH 24 0
BBX 18 22 3 -4
BITMAP
000040
000040
FFE040
006040
004040
004040
00C040
018FC0
030040
060040
1C0040
700040
C00040
000040
3FFFC0
000040
000040
000040
000040
000040
000040
000040
ENDCHAR
STARTCHAR AC74
ENCODING 12359
SWIDTH 2400 0
DWIDTH 24 0
BBX 19 21 3 -3
BITMAP
000040
FFE040
004040
004040
00C040
00C040
018040
010FC0
030040
0C0040
380040
E00040
800040
000040
000040
100040
100040
100000
100000
100000
1FFFE0
ENDCHAR
STARTCHAR AC77
ENCODING 12360
SWIDTH 2400 0
DWIDTH 24 0
BBX 19 21 3 -3
BITMAP
000040
FFC040
00C040
00C040
008040
018040
010FC0
030040
060040
1C0040
F00040
C00040
000040
000000
000000
1FFFC0
100000
100000
100000
100000
1FFFE0
ENDCHAR
STARTCHAR AC78
ENCODING 12361
SWIDTH 2400 0
DWIDTH 24 0
BBX 19 21 3 -3
BITMAP
000040
FFE040
004040
004040
00C040
008040
018FC0
030040
0E0040
380040
E00040
000040
000000
1FFFC0
000040
000040
000040
1FFFC0
100000
100000
1FFFE0
ENDCHAR
STARTCHAR AC7A
ENCODING 12362
SWIDTH 2400 0
DWIDTH 24 0
BBX 18 22 3 -4
BITMAP
000040
000040
FFC040
004040
00C040
008040
018FC0
010040
020040
0C0040
380040
E00040
800000
000000
3F9FC0
009040
009040
3F9040
201040
201040
3FDFC0
3C1040
ENDCHAR
STARTCHAR AC80
ENCODING 12363
SWIDTH 2400 0
DWIDTH 24 0
BBX 18 22 3 -4
BITMAP
000040
000040
FFC040
004040
004040
00C040
008040
018FC0
030040
060040
0C0040
380040
E00040
000000
1FFFC0
100040
100040
100040
100040
100040
1FFFC0
100040
ENDCHAR
STARTCHAR AC81
ENCODING 12364
SWIDTH 2400 0
DWIDTH 24 0
BBX 18 22 3 -4
BITMAP
000040
000040
FFE040
004040
004040
004040
00C040
018FC0
030040
060040
0C0040
700040
C00000
100040
100040
100040
1FFFC0
100040
100040
100040
1FFFC0
100040
ENDCHAR
STARTCHAR AC83
ENCODING 12365
SWIDTH 2400 0
DWIDTH 24 0
BBX 20 22 2 -4
BITMAP
000020
000020
7FE020
006020
006020
004020
00C020
0087E0
018020
030020
060020
1C0020
F00020
401820
001020
003800
002800
006400
00C300
0181C0
0E00F0
0C0000
ENDCHAR
STARTCHAR AC84
ENCODING 12366
SWIDTH 2400 0
DWIDTH 24 0
BBX 20 22 2 -4
BITMAP
000040
000040
7FC040
004040
004040
00C040
008FC0
018040
010040
020040
0C0040
180040
700000
C30180
020180
030180
070180
0503C0
0C8240
18C460
704C30
601810
ENDCHAR
STARTCHAR AC85
ENCODING 12367
SWIDTH 2400 0
DWIDTH 24 0
BBX 19 22 2 -4
BITMAP
000020
7FF020
002020
002020
006020
004020
00C020
0187E0
030020
060020
1C0020
F00020
000020
01FE00
0E01C0
180040
100020
100020
100020
080060
0E01C0
01FF00
ENDCHAR
STARTCHAR AC86
ENCODING 12368
SWIDTH 2400 0
DWIDTH 24 0
BBX 19 22 2 -4
BITMAP
000020
000020
7FE020
002020
006020
006020
00C020
0087E0
018020
060020
1C0020
F00020
000020
000000
1FFFE0
003000
003000
007800
00CC00
038700
1E01E0
380020
ENDCHAR
STARTCHAR AC89
ENCODING 12369
SWIDTH 2400 0
DWIDTH 24 0
BBX 20 21 2 -3
BITMAP
000020
7FE020
002020
002020
006020
0047E0
00C020
018020
030020
0E0020
F80020
400000
000000
0FFFE0
080000
080000
0FFFE0
080000
080000
080000
0FFFF0
ENDCHAR
STARTCHAR AC8A
ENCODING 12370
SWIDTH 2400 0
DWIDTH 24 0
BBX 20 21 2 -3
BITMAP
000020
000020
7FE020
002020
006020
004020
00C020
0187E0
030020
060020
3C0020
E00020
000020
1FFFE0
000000
010600
010600
010600
010600
010600
3FFFF0
ENDCHAR
STARTCHAR AC8B
ENCODING 12371
SWIDTH 2400 0
DWIDTH 24 0
BBX 20 22 2 -4
BITMAP
000020
000020
7FE020
006020
006020
004020
00C7E0
008020
018020
030020
0E0020
380020
E0FE00
000000
1FFFF0
000000
000000
07FFC0
0C0060
080020
0C0060
03FF80
ENDCHAR
STARTCHAR AC8C
ENCODING 12372
SWIDTH 2400 0
DWIDTH 24 0
BBX 20 22 2 -3
BITMAP
000010
000210
000210
7F8210
018210
018210
018210
018210
010210
010210
037E10
030210
020210
060210
0C0210
180210
300210
600210
C00210
000210
000210
000010
ENDCHAR
STARTCHAR AC90
ENCODING 12373
SWIDTH 2400 0
DWIDTH 24 0
BBX 19 21 3 -3
BITMAP
000040
000840
FF8840
018840
018840
010840
030840
030840
060840
04F840
180840
300840
E00840
800840
000840
100840
100840
100000
100000
100000
1FFFE0
ENDCHAR
STARTCHAR AC94
ENCODING 12374
SWIDTH 2400 0
DWIDTH 24 0
BBX 20 21 2 -3
BITMAP
000020
000420
7FC420
008420
008420
008420
018420
017C20
030420
060420
0C0420
380420
E00000
0FFFE0
000020
000020
000020
0FFFE0
080000
080000
0FFFF0
ENDCHAR
STARTCHAR AC9C
ENCODING 12375
SWIDTH 2400 0
DWIDTH 24 0
BBX 19 22 2 -4
BITMAP
000020
000420
7FC420
00C420
008420
008420
018420
017C20
030420
060420
0C0420
380420
E00420
000000
000000
0FFFE0
080020
080020
080020
080020
0FFFE0
080020
ENDCHAR
STARTCHAR AC9D
ENCODING 12376
SWIDTH 2400 0
DWIDTH 24 0
BBX 18 22 3 -4
BITMAP
000040
000840
FF8840
018840
010840
010840
030840
02F840
060840
0C0840
180840
300840
E00800
900040
100040
100040
1FFFC0
100040
100040
100040
1FFFC0
100040
ENDCHAR
STARTCHAR AC9F
ENCODING 12377
SWIDTH 2400 0
DWIDTH 24 0
BBX 20 22 2 -4
BITMAP
000020
000420
7F8420
008420
008420
018420
018420
010420
037C20
020420
040420
080420
300420
E00020
001820
001000
003800
002C00
004600
018380
0F00F0
0C0000
ENDCHAR
STARTCHAR ACA0
ENCODING 12378
SWIDTH 2400 0
DWIDTH 24 0
BBX 19 22 3 -4
BITMAP
000040
7F8840
018840
018840
018840
010840
030840
02F840
060840
0C0840
380840
E00840
800840
020100
020100
060300
060300
050380
0D8480
18CCC0
301860
603000
ENDCHAR
STARTCHAR ACA1
ENCODING 12379
SWIDTH 2400 0
DWIDTH 24 0
BBX 19 22 3 -4
BITMAP
000040
000840
FF8840
018840
018840
010840
030840
02F840
060840
0C0840
180840
300840
E00840
800040
03FE00
1C0380
3000C0
200060
200060
300040
0C0180
03FE00
ENDCHAR
STARTCHAR ACA8
ENCODING 12380
SWIDTH 2400 0
DWIDTH 24 0
BBX 18 22 3 -4
BITMAP
000040
000040
7FE040
006040
006040
006040
004040
004FC0
00C040
00C040
018040
010040
030040
060FC0
0C0040
180040
700040
E00040
800040
000040
000040
000040
ENDCHAR
STARTCHAR ACA9
ENCODING 12381
SWIDTH 2400 0
DWIDTH 24 0
BBX 18 22 3 -4
BITMAP
000040
FFE040
006040
006040
004040
00CFC0
018040
030040
060040
1C0FC0
F00040
C00040
000040
000000
3FFFC0
000040
000040
000040
000040
000040
000040
000040
ENDCHAR
STARTCHAR ACAA
ENCODING 12382
SWIDTH 2400 0
DWIDTH 24 0
BBX 18 22 3 -4
BITMAP
000040
FFC040
004040
00C040
00CFC0
018040
010040
030040
0E0040
180FC0
F00040
800040
000040
000000
3F9FC0
008040
008040
008040
008040
008040
008040
008040
ENDCHAR
STARTCHAR ACAC
ENCODING 12383
SWIDTH 2400 0
DWIDTH 24 0
BBX 19 21 3 -3
BITMAP
000040
FFE040
004040
004040
00C040
008FC0
018040
010040
030040
060040
180FC0
700040
C00040
000040
000040
100040
100000
100000
100000
100000
1FFFE0
ENDCHAR
STARTCHAR ACAF
ENCODING 12384
SWIDTH 2400 0
DWIDTH 24 0
BBX 19 21 3 -3
BITMAP
000040
000040
FFC040
004040
004FC0
00C040
008040
018040
030040
060FC0
0C0040
380040
E00040
800000
000000
1FFFC0
100000
100000
100000
100000
1FFFE0
ENDCHAR
STARTCHAR ACB0
ENCODING 12385
SWIDTH 2400 0
DWIDTH 24 0
BBX 19 21 3 -3
BITMAP
000040
FFC040
004040
004040
00CFC0
008040
018040
030040
0E0FC0
380040
E00040
000040
000000
1FFFC0
000040
000040
000040
1FFFC0
100000
100000
1FFFE0
ENDCHAR
STARTCHAR ACB8
ENCODING 12386
SWIDTH 2400 0
DWIDTH 24 0
BBX 18 22 3 -4
BITMAP
000040
000040
FFE040
004040
004040
00CFC0
008040
018040
030040
060040
0C0FC0
700040
C00040
000040
000000
1FFFC0
100040
100040
100040
100040
1FFFC0
100040
ENDCHAR
STARTCHAR ACB9
ENCODING 12387
SWIDTH 2400 0
DWIDTH 24 0
BBX 18 22 3 -4
BITMAP
000040
000040
FFE040
006040
006040
004FC0
00C040
018040
030040
060FC0
1C0040
F00040
C00000
100040
100040
100040
1FFFC0
100040
100040
100040
1FFFC0
100040
ENDCHAR
STARTCHAR ACBB
ENCODING 12388
SWIDTH 2400 0
DWIDTH 24 0
BBX 19 22 3 -4
BITMAP
000040
FFC040
00C040
00C040
008040
018FC0
010040
030040
060040
0C0040
380FC0
E00040
800040
000040
002040
006040
007000
00D800
018C00
070700
1C01E0
100040
ENDCHAR
STARTCHAR ACBC
ENCODING 12389
SWIDTH 2400 0
DWIDTH 24 0
BBX 21 22 2 -4
BITMAP
000040
FFC040
004040
004040
00CFC0
00C040
008040
018040
030040
060FC0
0C0040
380040
F00000
830180
020180
030180
070180
058280
08C640
384C60
601838
001010
ENDCHAR
STARTCHAR ACBD
ENCODING 12390
SWIDTH 2400 0
DWIDTH 24 0
BBX 18 22 3 -4
BITMAP
000040
000040
FFE040
004040
004040
00CFC0
00C040
018040
010040
030FC0
060040
1C0040
700040
C00040
03FC00
1E0780
3000C0
200040
200040
3000C0
1E0780
03FC00
ENDCHAR
STARTCHAR ACC1
ENCODING 12391
SWIDTH 2400 0
DWIDTH 24 0
BBX 20 21 2 -3
BITMAP
000020
7FE020
002020
006020
0067E0
00C020
008020
018020
070020
1C07E0
F00020
000020
000000
0FFFE0
080000
080000
080000
0FFFE0
080000
080000
0FFFF0
ENDCHAR
STARTCHAR ACC4
ENCODING 12392
SWIDTH 2400 0
DWIDTH 24 0
BBX 20 22 2 -4
BITMAP
000010
000210
3F8210
008210
008210
008210
008210
013E10
010210
010210
030210
020210
060210
0C3E10
180210
300210
600210
C00210
000210
000210
000210
000210
ENDCHAR
STARTCHAR ACC8
ENCODING 12393
SWIDTH 2400 0
DWIDTH 24 0
BBX 20 21 2 -3
BITMAP
000020
000420
7FC420
008420
008420
00FC20
018420
010420
020420
067C20
0C0420
380420
E00420
400420
000420
080420
080020
080000
080000
080000
0FFFF0
ENDCHAR
STARTCHAR ACCC
ENCODING 12394
SWIDTH 2400 0
DWIDTH 24 0
BBX 20 21 2 -3
BITMAP
000020
000420
7F8420
008420
00FC20
018420
010420
020420
060420
1C7C20
300420
E00420
000000
0FFFE0
000020
000020
000020
0FFFE0
080000
080000
0FFFF0
ENDCHAR
STARTCHAR ACD5
ENCODING 12395
SWIDTH 2400 0
DWIDTH 24 0
BBX 19 22 2 -4
BITMAP
000020
000420
7F8420
008420
00FC20
018420
010420
030420
067C20
0C0420
180420
700420
C00000
080020
080020
080020
0FFFE0
080020
080020
080020
0FFFE0
080020
ENDCHAR
STARTCHAR ACD7
ENCODING 12396
SWIDTH 2400 0
DWIDTH 24 0
BBX 20 22 2 -4
BITMAP
000420
000420
7F8420
008420
008420
00FC20
018420
010420
030420
060420
0C7C20
180420
700420
C00420
001820
001800
003800
002C00
004600
018380
0700F0
0C0000
ENDCHAR
STARTCHAR ACE0
ENCODING 12397
SWIDTH 2400 0
DWIDTH 24 0
BBX 21 17 1 -2
BITMAP
1FFFE0
000020
000020
000020
000020
000020
000020
000060
004060
004060
004040
004040
004000
004000
004000
004000
FFFFF8
ENDCHAR
STARTCHAR ACE1
ENCODING 12398
SWIDTH 2400 0
DWIDTH 24 0
BBX 21 21 2 -4
BITMAP
3FFFC0
0000C0
0000C0
0000C0
000080
004080
004080
004000
004000
FFFFF8
000000
000000
000000
3FFFC0
000040
000040
000040
000040
000040
000040
000040
ENDCHAR
STARTCHAR ACE4
ENCODING 12399
SWIDTH 2400 0
DWIDTH 24 0
BBX 21 19 2 -3
BITMAP
3FFFC0
000040
000040
0000C0
0000C0
004080
004080
004000
004000
FFFFF8
000000
000000
200000
200000
200000
200000
200000
200000
3FFFC0
ENDCHAR
ENDFONT
